<?xml version="1.0" encoding="UTF-8"?>
<svg width="50pt" height="50pt" version="1.1" viewBox="0 0 50 50" xmlns="http://www.w3.org/2000/svg">
 <g>
  <path d="m33.949 73.738c-5.5469 0-10.07 4.5664-10.07 10.129s4.5234 10.129 10.07 10.129 10.07-4.5664 10.07-10.129c0-5.5586-4.5195-10.129-10.07-10.129zm0 16.262c-3.3711 0-6.0703-2.7109-6.0703-6.1289 0-3.418 2.6992-6.1289 6.0703-6.1289 3.3711 0 6.0703 2.7109 6.0703 6.1289 0 3.418-2.6992 6.1289-6.0703 6.1289z"/>
  <path d="m33.949 6c-5.5469 0-10.07 4.5664-10.07 10.129s4.5234 10.129 10.07 10.129 10.07-4.5664 10.07-10.129-4.5195-10.129-10.07-10.129zm0 16.262c-3.3711 0-6.0703-2.7109-6.0703-6.1289 0-3.4219 2.6992-6.1328 6.0703-6.1328 3.3711 0 6.0703 2.7109 6.0703 6.1289 0 3.418-2.6992 6.1328-6.0703 6.1328z"/>
  <path d="m68.137 63.352c-2.5352 4.3828-6.0039 7.8711-10.023 10.371-0.94531 0.57031-1.25 1.8008-0.67969 2.7461 0.57031 0.94531 1.8008 1.25 2.7461 0.67969 0.015624-0.007813 0.03125-0.019532 0.046874-0.027344 4.5586-2.8398 8.5078-6.8086 11.375-11.766 8.4648-14.668 4.6484-33.094-8.2266-43.32h8.6641c1.1055 0.015625 2.0117-0.86719 2.0273-1.9727s-0.86719-2.0117-1.9727-2.0273h-0.058594l-14.707-0.003906c-1.1055 0-2 0.89453-2 2v14.719c-0.015625 1.1055 0.86719 2.0117 1.9727 2.0273s2.0117-0.86719 2.0273-1.9727v-0.058594-10.738c12.621 8.7344 16.621 25.801 8.8086 39.344 0.003906-0.003906 0 0 0 0z"/>
 </g>
</svg>
