<?xml version="1.0" encoding="utf-8"?>
<!-- Generator: Adobe Illustrator 16.0.0, SVG Export Plug-In . SVG Version: 6.00 Build 0)  -->
<!DOCTYPE svg PUBLIC "-//W3C//DTD SVG 1.1//EN" "http://www.w3.org/Graphics/SVG/1.1/DTD/svg11.dtd">
<svg version="1.1" xmlns="http://www.w3.org/2000/svg" xmlns:xlink="http://www.w3.org/1999/xlink" x="0px" y="0px" width="64px"
	 height="64px" viewBox="0 0 64 64" enable-background="new 0 0 64 64" xml:space="preserve">
<g id="_x32_5_planet_x2C__earth_x2C__global_x2C__mass_x2C__bulb_x2C__idea_x2C__creative">
</g>
<g id="_x32_4_founder_x2C__business_x2C__startup_x2C__team_x2C__bulb_x2C__idea_x2C__brainstorm">
</g>
<g id="_x32_3_like_x2C__success_x2C__smm_x2C__network_x2C__social_x2C__bulb_x2C__idea">
</g>
<g id="_x32_2_diamond_x2C__good_x2C__great_x2C__smart_x2C__bulb_x2C__idea_x2C__creative">
</g>
<g id="_x32_1_presentation_x2C__business_x2C__training_x2C__description_x2C__bulb_x2C__idea_x2C__plan">
</g>
<g id="_x32_0_fire_x2C__hot_x2C__bonfire_x2C__bulb_x2C__idea_x2C__light_x2C__creative">
</g>
<g id="_x31_9_presentation_x2C__business_x2C__tablet_x2C__description_x2C__bulb_x2C__idea_x2C__plan">
</g>
<g id="_x31_8_laboratory_x2C__lab_x2C__flask_x2C__experiment_x2C__bulb_x2C__idea_x2C__creative">
</g>
<g id="_x31_7_sprout_x2C__leaf_x2C__startup_x2C__water_x2C__bulb_x2C__idea_x2C__watering">
</g>
<g id="_x31_6_machine_x2C__generator_x2C__paper_x2C__bulb_x2C__idea_x2C__creative_x2C__computer">
</g>
<g id="_x31_5_portfolio_x2C__case_x2C__presentation_x2C__work_x2C__bulb_x2C__idea_x2C__creative">
</g>
<g id="_x31_4_optimization_x2C__cogwheel_x2C__setting_x2C__mechanism_x2C__bulb_x2C__idea_x2C__light">
</g>
<g id="_x31_3_air_x2C__cloud_x2C__brainstorm_x2C__storm_x2C__bulb_x2C__idea_x2C__light">
</g>
<g id="_x31_2_planet_x2C__space_x2C__flag_x2C__discovery_x2C__bulb_x2C__idea">
	<g>
		<polygon fill="#DA4453" points="43.002,4.749 36.94,4.749 37.971,3.719 38.002,1.748 43.002,1.748 42.002,3.248 		"/>
		<g>
			<path fill="#3A3847" d="M32.001,8.25c-0.276,0-0.5-0.224-0.5-0.5v-7c0-0.276,0.224-0.5,0.5-0.5s0.5,0.224,0.5,0.5v7
				C32.501,8.026,32.277,8.25,32.001,8.25z"/>
		</g>
		<path fill="#FFCE54" d="M53.501,29.25c0-11.872-9.625-21.5-21.5-21.5c-11.873,0-21.5,9.626-21.5,21.5
			c0,7.639,3.996,14.326,10,18.136v1.364h2.487h18.026h2.511v-1.378C49.517,43.559,53.501,36.879,53.501,29.25z"/>
		<ellipse fill="#F6BB42" cx="29.972" cy="22.707" rx="4.5" ry="4"/>
		
			<ellipse transform="matrix(0.7071 0.7071 -0.7071 0.7071 23.0571 -25.3016)" fill="#F6BB42" cx="42.07" cy="15.182" rx="3.027" ry="1.499"/>
		<path fill="#F6BB42" d="M43.776,38.449c-0.483-0.482-0.326-1.424,0.35-2.1c0.677-0.678,1.617-0.834,2.101-0.352
			c0.483,0.484,0.327,1.424-0.349,2.104C45.2,38.775,44.26,38.932,43.776,38.449z"/>
		<circle fill="#F6BB42" cx="17.972" cy="31.207" r="1.5"/>
		<ellipse fill="#F6BB42" cx="28.972" cy="42.707" rx="1.5" ry="1.002"/>
		<ellipse fill="#F6BB42" cx="29.972" cy="22.707" rx="4.5" ry="4"/>
		
			<ellipse transform="matrix(0.7071 0.7071 -0.7071 0.7071 23.0571 -25.3016)" fill="#F6BB42" cx="42.07" cy="15.182" rx="3.027" ry="1.499"/>
		<path fill="#F6BB42" d="M43.776,38.449c-0.483-0.482-0.326-1.424,0.35-2.1c0.677-0.678,1.617-0.834,2.101-0.352
			c0.483,0.484,0.327,1.424-0.349,2.104C45.2,38.775,44.26,38.932,43.776,38.449z"/>
		<circle fill="#F6BB42" cx="17.972" cy="31.207" r="1.5"/>
		<ellipse fill="#F6BB42" cx="28.972" cy="42.707" rx="1.5" ry="1.002"/>
		<polygon fill="#CCD1D9" points="43.501,58.75 40.501,61.75 23.501,61.75 20.501,58.75 20.501,48.75 43.501,48.75 		"/>
		<path fill="#F6BB42" d="M17.472,31.207c0-0.651,0.419-1.201,1-1.408c-0.157-0.055-0.324-0.092-0.5-0.092
			c-0.828,0-1.5,0.672-1.5,1.5c0,0.83,0.672,1.502,1.5,1.502c0.176,0,0.343-0.037,0.5-0.092
			C17.891,32.41,17.472,31.86,17.472,31.207z"/>
		<path fill="#F6BB42" d="M28.472,42.707c0-0.434,0.419-0.801,1-0.938c-0.157-0.037-0.324-0.062-0.5-0.062c-0.828,0-1.5,0.449-1.5,1
			c0,0.553,0.672,1.002,1.5,1.002c0.176,0,0.343-0.024,0.5-0.062C28.891,43.51,28.472,43.143,28.472,42.707z"/>
		<rect x="32.501" y="0.75" fill="#ED5565" width="5.501" height="3"/>
		<path fill="#656D78" d="M26.501,61.75c0,0,1.5,2,5.5,2s5.5-2,5.5-2H26.501z"/>
		<g>
			<path fill="#ED5565" d="M2.983,43.515c-1.559,0-2.589-0.318-2.891-1.048c-0.233-0.563-0.941-2.276,8.155-7.65
				c0.233-0.14,0.542-0.063,0.685,0.177c0.141,0.237,0.062,0.544-0.177,0.685c-8.254,4.877-7.764,6.347-7.739,6.406
				c0.7,1.687,13.46-0.852,32.654-8.804c8.397-3.479,16.083-7.208,21.642-10.499c8.185-4.846,7.696-6.307,7.672-6.366
				c-0.023-0.059-0.682-1.379-9.362,0.782c-0.271,0.062-0.54-0.097-0.606-0.364c-0.066-0.269,0.097-0.54,0.364-0.606
				c9.617-2.392,10.304-0.738,10.528-0.194c0.232,0.561,0.939,2.266-8.087,7.61c-5.598,3.314-13.328,7.065-21.768,10.562
				C23.8,38.452,9.197,43.514,2.983,43.515z"/>
		</g>
		<g>
			<path fill="#F6BB42" d="M38.531,41.25c-0.276,0-0.505-0.224-0.505-0.5s0.219-0.5,0.494-0.5h0.011c0.275,0,0.5,0.224,0.5,0.5
				S38.807,41.25,38.531,41.25z"/>
		</g>
		<g>
			<path fill="#F6BB42" d="M19.531,19.25c-0.276,0-0.505-0.224-0.505-0.5s0.219-0.5,0.494-0.5h0.011c0.275,0,0.5,0.224,0.5,0.5
				S19.807,19.25,19.531,19.25z"/>
		</g>
		<g>
			<path fill="#F6BB42" d="M45.531,25.25c-0.276,0-0.505-0.224-0.505-0.5s0.219-0.5,0.494-0.5h0.011c0.275,0,0.5,0.224,0.5,0.5
				S45.807,25.25,45.531,25.25z"/>
		</g>
		<g>
			<g>
				<path fill="#E6E9ED" d="M20.001,53.251c-0.257,0-0.476-0.197-0.497-0.458c-0.023-0.275,0.182-0.518,0.456-0.54l23.999-2
					c0.268-0.021,0.518,0.18,0.54,0.456c0.023,0.275-0.182,0.518-0.456,0.54l-23.999,2C20.029,53.25,20.016,53.251,20.001,53.251z"
					/>
			</g>
			<g>
				<path fill="#E6E9ED" d="M20.001,56.251c-0.257,0-0.476-0.197-0.497-0.458c-0.023-0.275,0.182-0.518,0.456-0.54l23.999-2
					c0.268-0.025,0.518,0.181,0.54,0.456c0.023,0.275-0.182,0.518-0.456,0.54l-23.999,2C20.029,56.25,20.016,56.251,20.001,56.251z"
					/>
			</g>
			<g>
				<path fill="#E6E9ED" d="M20.001,59.251c-0.257,0-0.476-0.197-0.497-0.458c-0.023-0.275,0.182-0.518,0.456-0.54l23.999-2
					c0.268-0.021,0.518,0.18,0.54,0.456c0.023,0.275-0.182,0.518-0.456,0.54l-23.999,2C20.029,59.25,20.016,59.251,20.001,59.251z"
					/>
			</g>
		</g>
	</g>
</g>
<g id="_x31_1_target_x2C__focus_x2C__arrow_x2C__bulb_x2C__idea_x2C__light_x2C__creative">
</g>
<g id="_x31_0_bulb_x2C__idea_x2C__light_x2C__coin_x2C__investment_x2C__money_x2C__creative">
</g>
<g id="_x39__brain_x2C__smart_x2C__bulb_x2C__idea_x2C__light_x2C__science_x2C__creative">
</g>
<g id="_x38__bulb_x2C__idea_x2C__people_x2C__team_x2C__brainstorm_x2C__creative">
</g>
<g id="_x37__rocket_x2C__space_x2C__business_x2C__startup_x2C__bulb_x2C__idea_x2C__planet">
</g>
<g id="_x36__balloon_x2C__business_x2C__startup_x2C__bulb_x2C__idea_x2C__light_x2C__basket">
</g>
<g id="_x35__coin_x2C__investment_x2C__money_x2C__bulb_x2C__idea_x2C__light">
</g>
<g id="_x34__sprout_x2C__hand_x2C__leaf_x2C__startup_x2C__earth_x2C__bulb_x2C__idea">
</g>
<g id="_x33__head_x2C__brain_x2C__storm_x2C__lightning_x2C__cloud_x2C__idea_x2C__creative">
</g>
<g id="_x32__man_x2C__suit_x2C__job_x2C__bulb_x2C__idea_x2C__creative_x2C__director">
</g>
<g id="_x31__skull_x2C__bulb_x2C__idea_x2C__light_x2C__death_x2C__creative">
</g>
</svg>
