<svg width="234.556" height="25.172" viewBox="0 0 234.556 25.172" xmlns="http://www.w3.org/2000/svg"><g id="svgGroup" stroke-linecap="round" fill-rule="evenodd" font-size="9pt" stroke="#ffffff" stroke-width="0.25mm" fill="#ffffff" style="stroke:#ffffff;stroke-width:0.25mm;fill:#ffffff"><path d="M 184.94 18.928 L 184.94 1.204 A 1.886 1.886 0 0 1 184.969 0.864 Q 185.032 0.52 185.234 0.308 A 0.943 0.943 0 0 1 185.663 0.055 Q 185.815 0.011 185.998 0.002 A 1.921 1.921 0 0 1 186.088 0 A 1.626 1.626 0 0 1 186.423 0.032 Q 186.628 0.076 186.784 0.177 A 0.886 0.886 0 0 1 186.942 0.308 Q 187.192 0.569 187.229 1.032 A 2.112 2.112 0 0 1 187.236 1.204 L 187.236 8.932 L 199.08 8.932 L 199.08 1.204 A 1.886 1.886 0 0 1 199.109 0.864 Q 199.172 0.52 199.374 0.308 A 0.943 0.943 0 0 1 199.803 0.055 Q 199.955 0.011 200.138 0.002 A 1.921 1.921 0 0 1 200.228 0 A 1.626 1.626 0 0 1 200.563 0.032 Q 200.768 0.076 200.924 0.177 A 0.886 0.886 0 0 1 201.082 0.308 Q 201.332 0.569 201.369 1.032 A 2.112 2.112 0 0 1 201.376 1.204 L 201.376 18.928 Q 201.376 19.39 201.176 19.691 A 1.004 1.004 0 0 1 201.082 19.81 Q 200.803 20.116 200.283 20.131 A 1.881 1.881 0 0 1 200.228 20.132 A 1.554 1.554 0 0 1 199.889 20.097 Q 199.572 20.026 199.374 19.81 A 0.997 0.997 0 0 1 199.369 19.805 Q 199.08 19.484 199.08 18.928 L 199.08 10.92 L 187.236 10.92 L 187.236 18.928 A 1.809 1.809 0 0 1 187.203 19.285 Q 187.14 19.599 186.956 19.81 Q 186.676 20.132 186.088 20.132 A 1.554 1.554 0 0 1 185.749 20.097 Q 185.432 20.026 185.234 19.81 Q 184.956 19.506 184.941 18.989 A 2.06 2.06 0 0 1 184.94 18.928 Z M 11.676 19.936 L 1.26 19.936 A 1.881 1.881 0 0 1 0.896 19.903 Q 0.685 19.861 0.522 19.767 A 0.964 0.964 0 0 1 0.322 19.614 A 1.031 1.031 0 0 1 0.067 19.178 Q 0 18.958 0 18.676 L 0 1.456 A 1.881 1.881 0 0 1 0.033 1.092 Q 0.075 0.881 0.169 0.718 A 0.964 0.964 0 0 1 0.322 0.518 A 1.031 1.031 0 0 1 0.758 0.263 Q 0.979 0.196 1.26 0.196 L 11.676 0.196 A 1.437 1.437 0 0 1 11.961 0.223 Q 12.234 0.278 12.404 0.448 A 0.829 0.829 0 0 1 12.622 0.845 Q 12.656 0.984 12.656 1.148 A 1.437 1.437 0 0 1 12.63 1.433 Q 12.574 1.706 12.404 1.876 Q 12.18 2.1 11.779 2.125 A 1.663 1.663 0 0 1 11.676 2.128 L 2.24 2.128 L 2.24 8.96 L 11.088 8.96 A 1.523 1.523 0 0 1 11.37 8.984 Q 11.529 9.014 11.653 9.081 A 0.758 0.758 0 0 1 11.816 9.198 A 0.748 0.748 0 0 1 12.013 9.518 Q 12.052 9.638 12.063 9.784 A 1.621 1.621 0 0 1 12.068 9.912 A 1.437 1.437 0 0 1 12.042 10.197 Q 11.986 10.47 11.816 10.64 Q 11.592 10.864 11.191 10.889 A 1.663 1.663 0 0 1 11.088 10.892 L 2.24 10.892 L 2.24 18.004 L 11.676 18.004 A 1.437 1.437 0 0 1 11.961 18.031 Q 12.234 18.086 12.404 18.256 A 0.829 0.829 0 0 1 12.622 18.653 Q 12.656 18.792 12.656 18.956 A 1.437 1.437 0 0 1 12.63 19.241 Q 12.574 19.514 12.404 19.684 Q 12.18 19.908 11.779 19.933 A 1.663 1.663 0 0 1 11.676 19.936 Z M 62.216 13.608 L 52.472 13.608 L 52.472 12.124 L 61.684 12.124 L 61.236 12.488 A 8.505 8.505 0 0 0 61.165 11.357 Q 61.086 10.77 60.92 10.273 A 4.639 4.639 0 0 0 60.788 9.926 A 3.882 3.882 0 0 0 60.221 8.977 A 3.264 3.264 0 0 0 59.486 8.316 A 3.288 3.288 0 0 0 58.388 7.863 Q 57.953 7.766 57.449 7.757 A 5.804 5.804 0 0 0 57.344 7.756 A 5.159 5.159 0 0 0 56.197 7.878 A 3.826 3.826 0 0 0 54.922 8.414 A 4.038 4.038 0 0 0 53.472 10.126 A 4.865 4.865 0 0 0 53.424 10.234 A 5.933 5.933 0 0 0 53.017 11.661 A 8.051 8.051 0 0 0 52.92 12.936 L 52.92 13.104 A 8.527 8.527 0 0 0 53.042 14.594 Q 53.188 15.416 53.509 16.065 A 4.041 4.041 0 0 0 54.166 17.024 A 4.046 4.046 0 0 0 56.223 18.202 Q 56.901 18.368 57.708 18.368 Q 58.66 18.368 59.598 18.116 A 6.121 6.121 0 0 0 61.024 17.525 A 7.218 7.218 0 0 0 61.432 17.276 Q 61.803 17.037 62.112 17.037 A 0.785 0.785 0 0 1 62.146 17.038 A 0.979 0.979 0 0 1 62.378 17.075 A 0.702 0.702 0 0 1 62.664 17.234 Q 62.86 17.416 62.93 17.682 A 0.764 0.764 0 0 1 62.955 17.877 Q 62.955 17.985 62.926 18.098 A 1.177 1.177 0 0 1 62.874 18.256 Q 62.756 18.545 62.429 18.76 A 1.797 1.797 0 0 1 62.384 18.788 A 6.482 6.482 0 0 1 61.027 19.537 A 8.078 8.078 0 0 1 60.2 19.824 A 9.048 9.048 0 0 1 58.016 20.182 A 8.38 8.38 0 0 1 57.708 20.188 A 9.141 9.141 0 0 1 55.937 20.025 A 6.687 6.687 0 0 1 53.998 19.334 Q 52.444 18.48 51.59 16.912 A 6.813 6.813 0 0 1 50.888 14.893 A 9.414 9.414 0 0 1 50.736 13.16 A 9.1 9.1 0 0 1 50.921 11.285 A 6.933 6.933 0 0 1 51.576 9.45 Q 52.416 7.868 53.886 6.972 A 6.14 6.14 0 0 1 56.451 6.12 A 7.721 7.721 0 0 1 57.288 6.076 A 7 7 0 0 1 58.667 6.206 A 5.61 5.61 0 0 1 59.752 6.538 Q 60.844 7 61.614 7.868 A 5.652 5.652 0 0 1 62.564 9.375 A 6.866 6.866 0 0 1 62.79 9.968 Q 63.196 11.2 63.196 12.74 A 1.262 1.262 0 0 1 63.174 12.985 Q 63.121 13.25 62.944 13.398 Q 62.744 13.565 62.404 13.599 A 1.864 1.864 0 0 1 62.216 13.608 Z M 103.292 13.608 L 93.548 13.608 L 93.548 12.124 L 102.76 12.124 L 102.312 12.488 A 8.505 8.505 0 0 0 102.241 11.357 Q 102.162 10.77 101.996 10.273 A 4.639 4.639 0 0 0 101.864 9.926 A 3.882 3.882 0 0 0 101.297 8.977 A 3.264 3.264 0 0 0 100.562 8.316 A 3.288 3.288 0 0 0 99.464 7.863 Q 99.029 7.766 98.525 7.757 A 5.804 5.804 0 0 0 98.42 7.756 A 5.159 5.159 0 0 0 97.273 7.878 A 3.826 3.826 0 0 0 95.998 8.414 A 4.038 4.038 0 0 0 94.548 10.126 A 4.865 4.865 0 0 0 94.5 10.234 A 5.933 5.933 0 0 0 94.093 11.661 A 8.051 8.051 0 0 0 93.996 12.936 L 93.996 13.104 A 8.527 8.527 0 0 0 94.118 14.594 Q 94.264 15.416 94.585 16.065 A 4.041 4.041 0 0 0 95.242 17.024 A 4.046 4.046 0 0 0 97.299 18.202 Q 97.977 18.368 98.784 18.368 Q 99.736 18.368 100.674 18.116 A 6.121 6.121 0 0 0 102.1 17.525 A 7.218 7.218 0 0 0 102.508 17.276 Q 102.879 17.037 103.188 17.037 A 0.785 0.785 0 0 1 103.222 17.038 A 0.979 0.979 0 0 1 103.454 17.075 A 0.702 0.702 0 0 1 103.74 17.234 Q 103.936 17.416 104.006 17.682 A 0.764 0.764 0 0 1 104.031 17.877 Q 104.031 17.985 104.002 18.098 A 1.177 1.177 0 0 1 103.95 18.256 Q 103.832 18.545 103.505 18.76 A 1.797 1.797 0 0 1 103.46 18.788 A 6.482 6.482 0 0 1 102.103 19.537 A 8.078 8.078 0 0 1 101.276 19.824 A 9.048 9.048 0 0 1 99.092 20.182 A 8.38 8.38 0 0 1 98.784 20.188 A 9.141 9.141 0 0 1 97.013 20.025 A 6.687 6.687 0 0 1 95.074 19.334 Q 93.52 18.48 92.666 16.912 A 6.813 6.813 0 0 1 91.964 14.893 A 9.414 9.414 0 0 1 91.812 13.16 A 9.1 9.1 0 0 1 91.997 11.285 A 6.933 6.933 0 0 1 92.652 9.45 Q 93.492 7.868 94.962 6.972 A 6.14 6.14 0 0 1 97.527 6.12 A 7.721 7.721 0 0 1 98.364 6.076 A 7 7 0 0 1 99.743 6.206 A 5.61 5.61 0 0 1 100.828 6.538 Q 101.92 7 102.69 7.868 A 5.652 5.652 0 0 1 103.64 9.375 A 6.866 6.866 0 0 1 103.866 9.968 Q 104.272 11.2 104.272 12.74 A 1.262 1.262 0 0 1 104.25 12.985 Q 104.197 13.25 104.02 13.398 Q 103.82 13.565 103.48 13.599 A 1.864 1.864 0 0 1 103.292 13.608 Z M 134.092 13.608 L 124.348 13.608 L 124.348 12.124 L 133.56 12.124 L 133.112 12.488 A 8.505 8.505 0 0 0 133.041 11.357 Q 132.962 10.77 132.796 10.273 A 4.639 4.639 0 0 0 132.664 9.926 A 3.882 3.882 0 0 0 132.097 8.977 A 3.264 3.264 0 0 0 131.362 8.316 A 3.288 3.288 0 0 0 130.264 7.863 Q 129.829 7.766 129.325 7.757 A 5.804 5.804 0 0 0 129.22 7.756 A 5.159 5.159 0 0 0 128.073 7.878 A 3.826 3.826 0 0 0 126.798 8.414 A 4.038 4.038 0 0 0 125.348 10.126 A 4.865 4.865 0 0 0 125.3 10.234 A 5.933 5.933 0 0 0 124.893 11.661 A 8.051 8.051 0 0 0 124.796 12.936 L 124.796 13.104 A 8.527 8.527 0 0 0 124.918 14.594 Q 125.064 15.416 125.385 16.065 A 4.041 4.041 0 0 0 126.042 17.024 A 4.046 4.046 0 0 0 128.099 18.202 Q 128.777 18.368 129.584 18.368 Q 130.536 18.368 131.474 18.116 A 6.121 6.121 0 0 0 132.9 17.525 A 7.218 7.218 0 0 0 133.308 17.276 Q 133.679 17.037 133.988 17.037 A 0.785 0.785 0 0 1 134.022 17.038 A 0.979 0.979 0 0 1 134.254 17.075 A 0.702 0.702 0 0 1 134.54 17.234 Q 134.736 17.416 134.806 17.682 A 0.764 0.764 0 0 1 134.831 17.877 Q 134.831 17.985 134.802 18.098 A 1.177 1.177 0 0 1 134.75 18.256 Q 134.632 18.545 134.305 18.76 A 1.797 1.797 0 0 1 134.26 18.788 A 6.482 6.482 0 0 1 132.903 19.537 A 8.078 8.078 0 0 1 132.076 19.824 A 9.048 9.048 0 0 1 129.892 20.182 A 8.38 8.38 0 0 1 129.584 20.188 A 9.141 9.141 0 0 1 127.813 20.025 A 6.687 6.687 0 0 1 125.874 19.334 Q 124.32 18.48 123.466 16.912 A 6.813 6.813 0 0 1 122.764 14.893 A 9.414 9.414 0 0 1 122.612 13.16 A 9.1 9.1 0 0 1 122.797 11.285 A 6.933 6.933 0 0 1 123.452 9.45 Q 124.292 7.868 125.762 6.972 A 6.14 6.14 0 0 1 128.327 6.12 A 7.721 7.721 0 0 1 129.164 6.076 A 7 7 0 0 1 130.543 6.206 A 5.61 5.61 0 0 1 131.628 6.538 Q 132.72 7 133.49 7.868 A 5.652 5.652 0 0 1 134.44 9.375 A 6.866 6.866 0 0 1 134.666 9.968 Q 135.072 11.2 135.072 12.74 A 1.262 1.262 0 0 1 135.05 12.985 Q 134.997 13.25 134.82 13.398 Q 134.62 13.565 134.28 13.599 A 1.864 1.864 0 0 1 134.092 13.608 Z M 16.016 18.956 L 16.016 7.28 A 1.798 1.798 0 0 1 16.043 6.956 Q 16.077 6.772 16.153 6.627 A 0.884 0.884 0 0 1 16.296 6.426 A 0.9 0.9 0 0 1 16.711 6.182 Q 16.855 6.141 17.027 6.134 A 1.823 1.823 0 0 1 17.108 6.132 Q 17.64 6.132 17.934 6.426 A 0.943 0.943 0 0 1 18.168 6.827 Q 18.228 7.026 18.228 7.28 L 18.228 9.688 L 17.92 9.352 A 5.14 5.14 0 0 1 18.664 7.966 A 4.37 4.37 0 0 1 19.838 6.902 A 5.506 5.506 0 0 1 22.267 6.105 A 6.852 6.852 0 0 1 22.904 6.076 A 7.441 7.441 0 0 1 24.045 6.159 Q 24.679 6.257 25.204 6.473 A 4.069 4.069 0 0 1 25.606 6.664 A 3.637 3.637 0 0 1 27.174 8.35 A 4.502 4.502 0 0 1 27.216 8.442 Q 27.748 9.632 27.748 11.452 L 27.748 18.956 Q 27.748 19.384 27.577 19.664 A 0.941 0.941 0 0 1 27.454 19.824 A 0.96 0.96 0 0 1 26.973 20.094 Q 26.82 20.131 26.64 20.132 A 1.823 1.823 0 0 1 26.628 20.132 A 1.626 1.626 0 0 1 26.293 20.1 Q 26.088 20.056 25.933 19.955 A 0.886 0.886 0 0 1 25.774 19.824 A 1.006 1.006 0 0 1 25.536 19.398 Q 25.48 19.201 25.48 18.956 L 25.48 11.592 A 7.758 7.758 0 0 0 25.421 10.602 Q 25.282 9.524 24.813 8.9 A 2.215 2.215 0 0 0 24.738 8.806 Q 23.996 7.924 22.372 7.924 Q 20.496 7.924 19.39 9.086 A 3.916 3.916 0 0 0 18.392 11.048 A 5.652 5.652 0 0 0 18.284 12.18 L 18.284 18.956 Q 18.284 19.884 17.569 20.08 A 1.643 1.643 0 0 1 17.136 20.132 A 1.618 1.618 0 0 1 16.813 20.102 Q 16.626 20.064 16.482 19.977 A 0.832 0.832 0 0 1 16.296 19.824 A 1.01 1.01 0 0 1 16.078 19.426 Q 16.031 19.271 16.02 19.084 A 2.07 2.07 0 0 1 16.016 18.956 Z M 107.548 18.956 L 107.548 7.28 A 1.798 1.798 0 0 1 107.575 6.956 Q 107.609 6.772 107.685 6.627 A 0.884 0.884 0 0 1 107.828 6.426 A 0.9 0.9 0 0 1 108.243 6.182 Q 108.387 6.141 108.559 6.134 A 1.823 1.823 0 0 1 108.64 6.132 Q 109.172 6.132 109.466 6.426 A 0.943 0.943 0 0 1 109.7 6.827 Q 109.76 7.026 109.76 7.28 L 109.76 9.688 L 109.452 9.352 A 5.14 5.14 0 0 1 110.196 7.966 A 4.37 4.37 0 0 1 111.37 6.902 A 5.506 5.506 0 0 1 113.799 6.105 A 6.852 6.852 0 0 1 114.436 6.076 A 7.441 7.441 0 0 1 115.577 6.159 Q 116.211 6.257 116.736 6.473 A 4.069 4.069 0 0 1 117.138 6.664 A 3.637 3.637 0 0 1 118.706 8.35 A 4.502 4.502 0 0 1 118.748 8.442 Q 119.28 9.632 119.28 11.452 L 119.28 18.956 Q 119.28 19.384 119.109 19.664 A 0.941 0.941 0 0 1 118.986 19.824 A 0.96 0.96 0 0 1 118.505 20.094 Q 118.352 20.131 118.172 20.132 A 1.823 1.823 0 0 1 118.16 20.132 A 1.626 1.626 0 0 1 117.825 20.1 Q 117.62 20.056 117.465 19.955 A 0.886 0.886 0 0 1 117.306 19.824 A 1.006 1.006 0 0 1 117.068 19.398 Q 117.012 19.201 117.012 18.956 L 117.012 11.592 A 7.758 7.758 0 0 0 116.953 10.602 Q 116.814 9.524 116.345 8.9 A 2.215 2.215 0 0 0 116.27 8.806 Q 115.528 7.924 113.904 7.924 Q 112.028 7.924 110.922 9.086 A 3.916 3.916 0 0 0 109.924 11.048 A 5.652 5.652 0 0 0 109.816 12.18 L 109.816 18.956 Q 109.816 19.884 109.101 20.08 A 1.643 1.643 0 0 1 108.668 20.132 A 1.618 1.618 0 0 1 108.345 20.102 Q 108.158 20.064 108.014 19.977 A 0.832 0.832 0 0 1 107.828 19.824 A 1.01 1.01 0 0 1 107.61 19.426 Q 107.563 19.271 107.552 19.084 A 2.07 2.07 0 0 1 107.548 18.956 Z M 138.264 14.784 L 138.264 7.28 A 1.864 1.864 0 0 1 138.29 6.958 Q 138.32 6.785 138.387 6.649 A 0.821 0.821 0 0 1 138.558 6.412 A 0.964 0.964 0 0 1 138.971 6.184 Q 139.121 6.142 139.3 6.134 A 1.916 1.916 0 0 1 139.384 6.132 A 1.798 1.798 0 0 1 139.708 6.159 Q 139.892 6.193 140.037 6.269 A 0.884 0.884 0 0 1 140.238 6.412 A 0.861 0.861 0 0 1 140.454 6.756 Q 140.532 6.977 140.532 7.28 L 140.532 14.756 A 6.97 6.97 0 0 0 140.591 15.692 Q 140.741 16.796 141.274 17.43 Q 141.916 18.193 143.198 18.296 A 5.186 5.186 0 0 0 143.612 18.312 A 4.171 4.171 0 0 0 144.985 18.095 A 3.547 3.547 0 0 0 146.44 17.136 A 4.01 4.01 0 0 0 147.443 15.083 A 5.683 5.683 0 0 0 147.532 14.056 L 147.532 7.28 A 1.864 1.864 0 0 1 147.558 6.958 Q 147.588 6.785 147.655 6.649 A 0.821 0.821 0 0 1 147.826 6.412 Q 148.12 6.132 148.68 6.132 Q 149.096 6.132 149.367 6.303 A 0.899 0.899 0 0 1 149.506 6.412 A 0.861 0.861 0 0 1 149.722 6.756 Q 149.8 6.977 149.8 7.28 L 149.8 18.956 A 1.837 1.837 0 0 1 149.75 19.407 Q 149.601 19.993 149.012 20.105 A 1.624 1.624 0 0 1 148.708 20.132 A 1.474 1.474 0 0 1 148.37 20.096 Q 148.107 20.034 147.925 19.867 A 0.93 0.93 0 0 1 147.882 19.824 A 1.006 1.006 0 0 1 147.644 19.398 Q 147.588 19.201 147.588 18.956 L 147.588 16.408 L 147.952 16.8 Q 147.392 18.452 146.118 19.32 A 5.017 5.017 0 0 1 143.578 20.174 A 6.224 6.224 0 0 1 143.164 20.188 A 7.471 7.471 0 0 1 142.006 20.103 Q 141.108 19.962 140.434 19.586 A 3.758 3.758 0 0 1 138.883 17.933 A 4.657 4.657 0 0 1 138.81 17.78 Q 138.264 16.576 138.264 14.784 Z M 205.856 14.784 L 205.856 7.28 A 1.864 1.864 0 0 1 205.882 6.958 Q 205.912 6.785 205.979 6.649 A 0.821 0.821 0 0 1 206.15 6.412 A 0.964 0.964 0 0 1 206.563 6.184 Q 206.713 6.142 206.892 6.134 A 1.916 1.916 0 0 1 206.976 6.132 A 1.798 1.798 0 0 1 207.3 6.159 Q 207.484 6.193 207.629 6.269 A 0.884 0.884 0 0 1 207.83 6.412 A 0.861 0.861 0 0 1 208.046 6.756 Q 208.124 6.977 208.124 7.28 L 208.124 14.756 A 6.97 6.97 0 0 0 208.183 15.692 Q 208.333 16.796 208.866 17.43 Q 209.508 18.193 210.79 18.296 A 5.186 5.186 0 0 0 211.204 18.312 A 4.171 4.171 0 0 0 212.577 18.095 A 3.547 3.547 0 0 0 214.032 17.136 A 4.01 4.01 0 0 0 215.035 15.083 A 5.683 5.683 0 0 0 215.124 14.056 L 215.124 7.28 A 1.864 1.864 0 0 1 215.15 6.958 Q 215.18 6.785 215.247 6.649 A 0.821 0.821 0 0 1 215.418 6.412 Q 215.712 6.132 216.272 6.132 Q 216.688 6.132 216.959 6.303 A 0.899 0.899 0 0 1 217.098 6.412 A 0.861 0.861 0 0 1 217.314 6.756 Q 217.392 6.977 217.392 7.28 L 217.392 18.956 A 1.837 1.837 0 0 1 217.342 19.407 Q 217.193 19.993 216.604 20.105 A 1.624 1.624 0 0 1 216.3 20.132 A 1.474 1.474 0 0 1 215.962 20.096 Q 215.699 20.034 215.517 19.867 A 0.93 0.93 0 0 1 215.474 19.824 A 1.006 1.006 0 0 1 215.236 19.398 Q 215.18 19.201 215.18 18.956 L 215.18 16.408 L 215.544 16.8 Q 214.984 18.452 213.71 19.32 A 5.017 5.017 0 0 1 211.17 20.174 A 6.224 6.224 0 0 1 210.756 20.188 A 7.471 7.471 0 0 1 209.598 20.103 Q 208.7 19.962 208.026 19.586 A 3.758 3.758 0 0 1 206.475 17.933 A 4.657 4.657 0 0 1 206.402 17.78 Q 205.856 16.576 205.856 14.784 Z M 223.58 16.688 L 223.888 16.38 L 223.888 18.956 Q 223.888 19.384 223.717 19.664 A 0.941 0.941 0 0 1 223.594 19.824 A 0.96 0.96 0 0 1 223.113 20.094 Q 222.96 20.131 222.78 20.132 A 1.823 1.823 0 0 1 222.768 20.132 A 1.618 1.618 0 0 1 222.445 20.102 Q 222.258 20.064 222.114 19.977 A 0.832 0.832 0 0 1 221.928 19.824 A 1.01 1.01 0 0 1 221.71 19.426 Q 221.663 19.271 221.652 19.084 A 2.07 2.07 0 0 1 221.648 18.956 L 221.648 1.148 A 1.798 1.798 0 0 1 221.675 0.824 Q 221.709 0.64 221.785 0.495 A 0.884 0.884 0 0 1 221.928 0.294 A 0.881 0.881 0 0 1 222.305 0.065 Q 222.446 0.019 222.618 0.006 A 1.923 1.923 0 0 1 222.768 0 A 1.554 1.554 0 0 1 223.118 0.037 Q 223.382 0.098 223.57 0.26 A 0.98 0.98 0 0 1 223.608 0.294 A 0.943 0.943 0 0 1 223.861 0.723 Q 223.905 0.875 223.914 1.058 A 1.921 1.921 0 0 1 223.916 1.148 L 223.916 9.492 L 223.58 9.492 Q 224.056 7.924 225.372 7 Q 226.688 6.076 228.536 6.076 A 6.712 6.712 0 0 1 230.158 6.264 A 5.278 5.278 0 0 1 231.728 6.93 A 5.495 5.495 0 0 1 233.567 8.889 A 6.787 6.787 0 0 1 233.814 9.366 Q 234.534 10.902 234.555 13.005 A 12.703 12.703 0 0 1 234.556 13.132 A 10.576 10.576 0 0 1 234.414 14.909 Q 234.234 15.963 233.827 16.842 A 6.654 6.654 0 0 1 233.814 16.87 A 6.042 6.042 0 0 1 232.716 18.497 A 5.421 5.421 0 0 1 231.714 19.32 A 5.509 5.509 0 0 1 229.364 20.14 A 7.011 7.011 0 0 1 228.536 20.188 A 6 6 0 0 1 226.88 19.968 A 4.917 4.917 0 0 1 225.358 19.236 Q 224.028 18.284 223.58 16.688 Z M 169.596 14.308 L 167.048 13.748 A 7.5 7.5 0 0 1 166.034 13.469 Q 165.496 13.276 165.078 13.012 A 3.375 3.375 0 0 1 164.43 12.488 A 3.046 3.046 0 0 1 163.623 10.804 A 4.215 4.215 0 0 1 163.576 10.164 A 4.042 4.042 0 0 1 163.73 9.026 A 3.351 3.351 0 0 1 164.234 7.994 A 3.957 3.957 0 0 1 165.397 6.935 A 5.172 5.172 0 0 1 166.096 6.58 A 6.312 6.312 0 0 1 167.563 6.174 A 8.629 8.629 0 0 1 168.896 6.076 A 8.452 8.452 0 0 1 170.885 6.305 A 7.762 7.762 0 0 1 171.234 6.398 Q 172.34 6.72 173.236 7.42 A 1.196 1.196 0 0 1 173.44 7.597 A 0.874 0.874 0 0 1 173.614 7.882 A 0.906 0.906 0 0 1 173.67 8.141 Q 173.671 8.167 173.671 8.192 A 0.868 0.868 0 0 1 173.642 8.414 Q 173.572 8.68 173.376 8.862 A 0.795 0.795 0 0 1 172.904 9.072 A 0.957 0.957 0 0 1 172.9 9.072 Q 172.638 9.098 172.351 8.928 A 1.475 1.475 0 0 1 172.312 8.904 A 6.907 6.907 0 0 0 171.197 8.296 A 5.922 5.922 0 0 0 170.604 8.078 A 5.964 5.964 0 0 0 169.278 7.826 A 5.378 5.378 0 0 0 168.896 7.812 A 6.388 6.388 0 0 0 168.011 7.869 Q 167.575 7.93 167.219 8.057 A 2.592 2.592 0 0 0 166.516 8.428 Q 165.718 9.033 165.704 10.016 A 2.479 2.479 0 0 0 165.704 10.052 Q 165.704 10.836 166.208 11.34 A 2.094 2.094 0 0 0 166.699 11.697 Q 166.945 11.83 167.255 11.931 A 5.073 5.073 0 0 0 167.776 12.068 L 170.324 12.6 A 8.72 8.72 0 0 1 171.42 12.907 Q 171.963 13.101 172.391 13.354 A 3.775 3.775 0 0 1 173.054 13.846 Q 173.964 14.7 173.964 16.156 A 3.69 3.69 0 0 1 173.665 17.664 Q 173.32 18.443 172.58 19.02 A 4.467 4.467 0 0 1 172.48 19.096 A 5.267 5.267 0 0 1 170.705 19.928 Q 169.978 20.123 169.119 20.172 A 10.342 10.342 0 0 1 168.532 20.188 Q 167.272 20.188 165.998 19.88 Q 164.724 19.572 163.632 18.816 A 1.27 1.27 0 0 1 163.414 18.625 A 0.965 0.965 0 0 1 163.24 18.354 Q 163.159 18.161 163.159 17.967 A 0.929 0.929 0 0 1 163.17 17.822 Q 163.212 17.556 163.394 17.36 Q 163.576 17.164 163.842 17.122 Q 164.108 17.08 164.444 17.248 A 9.112 9.112 0 0 0 165.502 17.811 A 6.786 6.786 0 0 0 166.558 18.186 Q 167.58 18.452 168.588 18.452 A 6.937 6.937 0 0 0 169.467 18.4 Q 169.901 18.345 170.256 18.229 A 2.649 2.649 0 0 0 170.996 17.864 A 1.974 1.974 0 0 0 171.565 17.245 Q 171.808 16.819 171.808 16.268 A 1.863 1.863 0 0 0 171.727 15.705 A 1.479 1.479 0 0 0 171.276 15.022 A 2.28 2.28 0 0 0 170.838 14.729 Q 170.381 14.49 169.692 14.33 A 7.947 7.947 0 0 0 169.596 14.308 Z M 66.472 24.024 L 66.472 7.28 A 1.798 1.798 0 0 1 66.499 6.956 Q 66.533 6.772 66.609 6.627 A 0.884 0.884 0 0 1 66.752 6.426 A 0.9 0.9 0 0 1 67.167 6.182 Q 67.311 6.141 67.483 6.134 A 1.823 1.823 0 0 1 67.564 6.132 A 1.705 1.705 0 0 1 67.896 6.162 Q 68.218 6.226 68.418 6.426 A 0.943 0.943 0 0 1 68.652 6.827 Q 68.712 7.026 68.712 7.28 L 68.712 9.94 L 68.404 9.548 Q 68.852 7.952 70.182 7.014 A 5.112 5.112 0 0 1 72.522 6.128 A 6.63 6.63 0 0 1 73.36 6.076 Q 75.18 6.076 76.538 6.93 A 5.495 5.495 0 0 1 78.44 8.976 A 6.756 6.756 0 0 1 78.638 9.366 Q 79.358 10.902 79.379 13.005 A 12.703 12.703 0 0 1 79.38 13.132 A 10.576 10.576 0 0 1 79.238 14.909 Q 79.058 15.963 78.651 16.842 A 6.654 6.654 0 0 1 78.638 16.87 A 6.127 6.127 0 0 1 77.581 18.458 A 5.415 5.415 0 0 1 76.552 19.32 Q 75.208 20.188 73.36 20.188 A 6.077 6.077 0 0 1 71.751 19.984 A 4.871 4.871 0 0 1 70.196 19.25 Q 68.88 18.312 68.404 16.744 L 68.74 16.744 L 68.74 24.024 A 1.626 1.626 0 0 1 68.708 24.359 Q 68.664 24.564 68.563 24.72 A 0.886 0.886 0 0 1 68.432 24.878 A 1.027 1.027 0 0 1 67.953 25.132 Q 67.793 25.171 67.604 25.172 A 1.907 1.907 0 0 1 67.592 25.172 A 1.695 1.695 0 0 1 67.271 25.144 Q 67.09 25.109 66.95 25.031 A 0.828 0.828 0 0 1 66.752 24.878 Q 66.472 24.584 66.472 24.024 Z M 32.564 15.232 L 32.564 8.092 L 30.688 8.092 A 1.523 1.523 0 0 1 30.406 8.068 Q 30.247 8.038 30.123 7.971 A 0.758 0.758 0 0 1 29.96 7.854 A 0.782 0.782 0 0 1 29.731 7.435 A 1.159 1.159 0 0 1 29.708 7.196 A 1.118 1.118 0 0 1 29.736 6.936 A 0.724 0.724 0 0 1 29.96 6.552 Q 30.167 6.368 30.526 6.335 A 1.786 1.786 0 0 1 30.688 6.328 L 32.564 6.328 L 32.564 3.108 A 1.626 1.626 0 0 1 32.596 2.773 Q 32.64 2.568 32.741 2.413 A 0.886 0.886 0 0 1 32.872 2.254 A 1.027 1.027 0 0 1 33.352 2 Q 33.512 1.961 33.7 1.96 A 1.907 1.907 0 0 1 33.712 1.96 Q 34.244 1.96 34.538 2.254 A 0.943 0.943 0 0 1 34.772 2.655 Q 34.832 2.854 34.832 3.108 L 34.832 6.328 L 38.36 6.328 Q 38.686 6.328 38.908 6.433 A 0.765 0.765 0 0 1 39.088 6.552 Q 39.34 6.776 39.34 7.196 A 1.126 1.126 0 0 1 39.308 7.472 A 0.774 0.774 0 0 1 39.088 7.854 Q 38.874 8.056 38.499 8.087 A 1.712 1.712 0 0 1 38.36 8.092 L 34.832 8.092 L 34.832 15.008 A 6.073 6.073 0 0 0 34.894 15.909 Q 35.037 16.856 35.504 17.43 A 2.061 2.061 0 0 0 36.446 18.072 Q 36.973 18.256 37.688 18.256 Q 38.114 18.256 38.441 18.184 A 2.249 2.249 0 0 0 38.598 18.144 A 3.603 3.603 0 0 1 38.822 18.085 Q 39.055 18.032 39.228 18.032 Q 39.48 18.004 39.648 18.2 Q 39.799 18.376 39.814 18.776 A 2.458 2.458 0 0 1 39.816 18.872 A 1.559 1.559 0 0 1 39.762 19.289 A 1.38 1.38 0 0 1 39.69 19.488 Q 39.564 19.768 39.256 19.88 A 4.129 4.129 0 0 1 39 19.955 Q 38.732 20.026 38.374 20.09 Q 37.828 20.188 37.38 20.188 Q 36.027 20.188 35.047 19.776 A 4.133 4.133 0 0 1 34.706 19.614 Q 33.628 19.04 33.096 17.934 A 5.078 5.078 0 0 1 32.701 16.727 Q 32.564 16.043 32.564 15.232 Z M 41.72 18.956 L 41.72 7.28 A 1.798 1.798 0 0 1 41.747 6.956 Q 41.781 6.772 41.857 6.627 A 0.884 0.884 0 0 1 42 6.426 A 0.9 0.9 0 0 1 42.415 6.182 Q 42.559 6.141 42.731 6.134 A 1.823 1.823 0 0 1 42.812 6.132 Q 43.344 6.132 43.638 6.426 A 0.943 0.943 0 0 1 43.872 6.827 Q 43.932 7.026 43.932 7.28 L 43.932 9.548 L 43.652 9.548 A 4.965 4.965 0 0 1 44.25 8.165 A 4.174 4.174 0 0 1 45.36 7 A 5.018 5.018 0 0 1 47.241 6.191 A 6.847 6.847 0 0 1 48.468 6.048 Q 48.662 6.035 48.82 6.073 A 0.772 0.772 0 0 1 49.14 6.23 Q 49.392 6.44 49.42 6.944 Q 49.432 7.156 49.39 7.329 A 0.852 0.852 0 0 1 49.196 7.7 Q 48.989 7.93 48.592 8.009 A 2 2 0 0 1 48.412 8.036 L 47.964 8.092 A 6.194 6.194 0 0 0 46.759 8.312 Q 46.037 8.524 45.494 8.916 A 3.477 3.477 0 0 0 45.038 9.31 A 3.486 3.486 0 0 0 44.148 10.971 Q 44.016 11.526 44.016 12.18 L 44.016 18.956 Q 44.016 19.384 43.845 19.664 A 0.941 0.941 0 0 1 43.722 19.824 A 0.943 0.943 0 0 1 43.293 20.077 Q 43.141 20.121 42.959 20.13 A 1.921 1.921 0 0 1 42.868 20.132 A 1.626 1.626 0 0 1 42.533 20.1 Q 42.328 20.056 42.173 19.955 A 0.886 0.886 0 0 1 42.014 19.824 A 1.006 1.006 0 0 1 41.776 19.398 Q 41.72 19.201 41.72 18.956 Z M 82.796 18.956 L 82.796 7.28 A 1.798 1.798 0 0 1 82.823 6.956 Q 82.857 6.772 82.933 6.627 A 0.884 0.884 0 0 1 83.076 6.426 A 0.9 0.9 0 0 1 83.491 6.182 Q 83.635 6.141 83.807 6.134 A 1.823 1.823 0 0 1 83.888 6.132 Q 84.42 6.132 84.714 6.426 A 0.943 0.943 0 0 1 84.948 6.827 Q 85.008 7.026 85.008 7.28 L 85.008 9.548 L 84.728 9.548 A 4.965 4.965 0 0 1 85.326 8.165 A 4.174 4.174 0 0 1 86.436 7 A 5.018 5.018 0 0 1 88.317 6.191 A 6.847 6.847 0 0 1 89.544 6.048 Q 89.738 6.035 89.896 6.073 A 0.772 0.772 0 0 1 90.216 6.23 Q 90.468 6.44 90.496 6.944 Q 90.508 7.156 90.466 7.329 A 0.852 0.852 0 0 1 90.272 7.7 Q 90.065 7.93 89.668 8.009 A 2 2 0 0 1 89.488 8.036 L 89.04 8.092 A 6.194 6.194 0 0 0 87.835 8.312 Q 87.113 8.524 86.57 8.916 A 3.477 3.477 0 0 0 86.114 9.31 A 3.486 3.486 0 0 0 85.224 10.971 Q 85.092 11.526 85.092 12.18 L 85.092 18.956 Q 85.092 19.384 84.921 19.664 A 0.941 0.941 0 0 1 84.798 19.824 A 0.943 0.943 0 0 1 84.369 20.077 Q 84.217 20.121 84.035 20.13 A 1.921 1.921 0 0 1 83.944 20.132 A 1.626 1.626 0 0 1 83.609 20.1 Q 83.404 20.056 83.249 19.955 A 0.886 0.886 0 0 1 83.09 19.824 A 1.006 1.006 0 0 1 82.852 19.398 Q 82.796 19.201 82.796 18.956 Z M 154.056 18.956 L 154.056 7.28 A 1.798 1.798 0 0 1 154.083 6.956 Q 154.117 6.772 154.193 6.627 A 0.884 0.884 0 0 1 154.336 6.426 A 0.9 0.9 0 0 1 154.751 6.182 Q 154.895 6.141 155.067 6.134 A 1.823 1.823 0 0 1 155.148 6.132 Q 155.68 6.132 155.974 6.426 A 0.943 0.943 0 0 1 156.208 6.827 Q 156.268 7.026 156.268 7.28 L 156.268 9.548 L 155.988 9.548 A 4.965 4.965 0 0 1 156.586 8.165 A 4.174 4.174 0 0 1 157.696 7 A 5.018 5.018 0 0 1 159.577 6.191 A 6.847 6.847 0 0 1 160.804 6.048 Q 160.998 6.035 161.156 6.073 A 0.772 0.772 0 0 1 161.476 6.23 Q 161.728 6.44 161.756 6.944 Q 161.768 7.156 161.726 7.329 A 0.852 0.852 0 0 1 161.532 7.7 Q 161.325 7.93 160.928 8.009 A 2 2 0 0 1 160.748 8.036 L 160.3 8.092 A 6.194 6.194 0 0 0 159.095 8.312 Q 158.373 8.524 157.83 8.916 A 3.477 3.477 0 0 0 157.374 9.31 A 3.486 3.486 0 0 0 156.484 10.971 Q 156.352 11.526 156.352 12.18 L 156.352 18.956 Q 156.352 19.384 156.181 19.664 A 0.941 0.941 0 0 1 156.058 19.824 A 0.943 0.943 0 0 1 155.629 20.077 Q 155.477 20.121 155.295 20.13 A 1.921 1.921 0 0 1 155.204 20.132 A 1.626 1.626 0 0 1 154.869 20.1 Q 154.664 20.056 154.509 19.955 A 0.886 0.886 0 0 1 154.35 19.824 A 1.006 1.006 0 0 1 154.112 19.398 Q 154.056 19.201 154.056 18.956 Z M 72.884 18.368 A 4.52 4.52 0 0 0 74.032 18.228 A 3.618 3.618 0 0 0 75.11 17.752 A 3.78 3.78 0 0 0 76.261 16.545 A 4.893 4.893 0 0 0 76.566 15.96 Q 77.044 14.876 77.081 13.387 A 10.188 10.188 0 0 0 77.084 13.132 Q 77.084 11.419 76.571 10.25 A 4.121 4.121 0 0 0 75.95 9.24 A 3.712 3.712 0 0 0 73.297 7.912 A 5.2 5.2 0 0 0 72.884 7.896 A 4.461 4.461 0 0 0 71.649 8.061 A 3.756 3.756 0 0 0 70.672 8.498 A 3.714 3.714 0 0 0 69.469 9.748 A 4.748 4.748 0 0 0 69.202 10.262 A 5.55 5.55 0 0 0 68.835 11.449 Q 68.722 12.018 68.694 12.675 A 10.548 10.548 0 0 0 68.684 13.132 A 8.875 8.875 0 0 0 68.802 14.627 Q 69.052 16.087 69.832 17.01 A 3.736 3.736 0 0 0 72.562 18.358 A 5.079 5.079 0 0 0 72.884 18.368 Z M 228.06 18.368 A 4.52 4.52 0 0 0 229.208 18.228 A 3.618 3.618 0 0 0 230.286 17.752 A 3.78 3.78 0 0 0 231.437 16.545 A 4.893 4.893 0 0 0 231.742 15.96 Q 232.22 14.876 232.257 13.387 A 10.188 10.188 0 0 0 232.26 13.132 Q 232.26 11.419 231.747 10.25 A 4.121 4.121 0 0 0 231.126 9.24 A 3.712 3.712 0 0 0 228.473 7.912 A 5.2 5.2 0 0 0 228.06 7.896 A 4.461 4.461 0 0 0 226.825 8.061 A 3.756 3.756 0 0 0 225.848 8.498 A 3.714 3.714 0 0 0 224.645 9.748 A 4.748 4.748 0 0 0 224.378 10.262 A 5.55 5.55 0 0 0 224.011 11.449 Q 223.898 12.018 223.87 12.675 A 10.548 10.548 0 0 0 223.86 13.132 A 8.875 8.875 0 0 0 223.978 14.627 Q 224.228 16.087 225.008 17.01 A 3.736 3.736 0 0 0 227.738 18.358 A 5.079 5.079 0 0 0 228.06 18.368 Z" vector-effect="non-scaling-stroke"/></g></svg>