<?xml version="1.0" encoding="UTF-8"?>
<svg width="40pt" height="50pt" version="1.1" viewBox="5 0 80 100" xmlns="http://www.w3.org/2000/svg">
 <g fill="#fff">
  <path d="m33.949 74.238c-5.2773 0-9.5703 4.3359-9.5703 9.6289 0 5.293 4.293 9.6289 9.5703 9.6289 5.2773 0 9.5703-4.3359 9.5703-9.6289 0-5.293-4.293-9.6289-9.5703-9.6289zm0 16.262c-3.6445 0-6.5703-2.9453-6.5703-6.6289 0-3.6875 2.9258-6.6289 6.5703-6.6289s6.5703 2.9453 6.5703 6.6289-2.9258 6.6289-6.5703 6.6289z"/>
  <path d="m33.949 6.5c-5.2773 0-9.5703 4.3359-9.5703 9.6289 0 5.293 4.293 9.6289 9.5703 9.6289 5.2773 0 9.5703-4.3359 9.5703-9.6289 0-5.293-4.293-9.6289-9.5703-9.6289zm0 16.262c-3.6445 0-6.5703-2.9453-6.5703-6.6289 0-3.6875 2.9258-6.6289 6.5703-6.6289s6.5703 2.9453 6.5703 6.6289c0 3.6836-2.9258 6.6289-6.5703 6.6289z"/>
  <path d="m68.57 63.602c-2.5742 4.4531-6.1055 8.0039-10.191 10.547-0.70703 0.43359-0.92969 1.3555-0.49609 2.0625 0.43359 0.70703 1.3555 0.92969 2.0625 0.49609 0.007813-0.003906 0.011719-0.007812 0.015626-0.011719 4.4922-2.7969 8.3828-6.707 11.207-11.594 8.5938-14.895 4.3477-33.703-9.2812-43.57h10.152c0.82813 0.011719 1.5117-0.64844 1.5195-1.4805 0.011718-0.82812-0.65234-1.5117-1.4805-1.5195h-0.042969-14.711c-0.82812 0-1.5 0.67188-1.5 1.5v14.719c-0.011719 0.82812 0.64844 1.5117 1.4805 1.5195 0.82812 0.011719 1.5117-0.65234 1.5195-1.4805v-0.042968l0.003906-11.676c13.445 8.7031 17.844 26.488 9.7422 40.531v0z"/>
 </g>
</svg>
