<svg width="155.934" height="16.146" viewBox="0 0 155.934 16.146" xmlns="http://www.w3.org/2000/svg"><g id="svgGroup" stroke-linecap="round" fill-rule="evenodd" font-size="9pt" stroke="#ffffff" stroke-width="0.25mm" fill="#ffffff" style="stroke:#ffffff;stroke-width:0.25mm;fill:#ffffff"><path d="M 7.416 12.798 L 0.612 12.798 A 0.825 0.825 0 0 1 0.429 12.779 Q 0.268 12.742 0.162 12.636 A 0.521 0.521 0 0 1 0.032 12.412 Q 0.008 12.331 0.002 12.234 A 1.069 1.069 0 0 1 0 12.168 L 0 0.738 A 0.924 0.924 0 0 1 0.017 0.555 Q 0.053 0.379 0.162 0.27 A 0.533 0.533 0 0 1 0.418 0.13 Q 0.501 0.109 0.599 0.108 A 1.01 1.01 0 0 1 0.612 0.108 L 7.416 0.108 A 0.803 0.803 0 0 1 7.558 0.12 Q 7.706 0.146 7.794 0.234 A 0.419 0.419 0 0 1 7.908 0.45 A 0.615 0.615 0 0 1 7.92 0.576 Q 7.92 0.828 7.794 0.945 A 0.395 0.395 0 0 1 7.651 1.028 Q 7.552 1.062 7.416 1.062 L 1.08 1.062 L 1.08 5.886 L 7.056 5.886 Q 7.218 5.886 7.328 5.934 A 0.378 0.378 0 0 1 7.434 6.003 Q 7.56 6.12 7.56 6.354 A 0.697 0.697 0 0 1 7.546 6.496 Q 7.519 6.629 7.434 6.714 Q 7.308 6.84 7.056 6.84 L 1.08 6.84 L 1.08 11.844 L 7.416 11.844 Q 7.578 11.844 7.688 11.892 A 0.378 0.378 0 0 1 7.794 11.961 Q 7.92 12.078 7.92 12.312 A 0.697 0.697 0 0 1 7.906 12.454 Q 7.879 12.587 7.794 12.672 Q 7.668 12.798 7.416 12.798 Z M 39.06 8.658 L 32.562 8.658 L 32.562 7.848 L 38.88 7.848 L 38.592 8.082 Q 38.592 7.038 38.286 6.309 A 2.625 2.625 0 0 0 37.863 5.611 A 2.294 2.294 0 0 0 37.377 5.184 Q 36.774 4.788 35.892 4.788 A 3.554 3.554 0 0 0 35.111 4.87 A 2.617 2.617 0 0 0 34.218 5.247 A 2.792 2.792 0 0 0 33.214 6.457 A 3.348 3.348 0 0 0 33.192 6.507 Q 32.85 7.308 32.85 8.352 L 32.85 8.442 A 5.665 5.665 0 0 0 32.937 9.467 Q 33.121 10.467 33.696 11.097 Q 34.542 12.024 36.072 12.024 Q 36.738 12.024 37.359 11.844 A 3.696 3.696 0 0 0 38.2 11.477 A 4.543 4.543 0 0 0 38.574 11.232 A 0.808 0.808 0 0 1 38.708 11.155 Q 38.818 11.106 38.925 11.106 A 0.538 0.538 0 0 1 39.064 11.123 A 0.418 0.418 0 0 1 39.213 11.196 Q 39.33 11.286 39.375 11.421 Q 39.42 11.556 39.357 11.709 Q 39.302 11.843 39.157 11.956 A 1.011 1.011 0 0 1 39.114 11.988 A 3.745 3.745 0 0 1 38.211 12.525 A 4.647 4.647 0 0 1 37.728 12.699 Q 36.918 12.942 36.108 12.942 A 5.666 5.666 0 0 1 34.999 12.839 A 4.153 4.153 0 0 1 33.786 12.402 Q 32.814 11.862 32.292 10.854 A 4.534 4.534 0 0 1 31.863 9.562 A 6.235 6.235 0 0 1 31.77 8.46 A 6.047 6.047 0 0 1 31.884 7.257 A 4.559 4.559 0 0 1 32.292 6.075 Q 32.814 5.058 33.741 4.482 A 3.833 3.833 0 0 1 35.432 3.926 A 4.746 4.746 0 0 1 35.874 3.906 A 4.451 4.451 0 0 1 36.68 3.976 A 3.375 3.375 0 0 1 37.431 4.203 Q 38.106 4.5 38.583 5.049 A 3.562 3.562 0 0 1 39.152 5.958 A 4.388 4.388 0 0 1 39.312 6.381 A 5.116 5.116 0 0 1 39.516 7.327 A 6.797 6.797 0 0 1 39.564 8.154 A 0.747 0.747 0 0 1 39.551 8.299 Q 39.535 8.381 39.498 8.445 A 0.373 0.373 0 0 1 39.429 8.532 A 0.45 0.45 0 0 1 39.228 8.639 Q 39.151 8.658 39.06 8.658 Z M 64.944 8.658 L 58.446 8.658 L 58.446 7.848 L 64.764 7.848 L 64.476 8.082 Q 64.476 7.038 64.17 6.309 A 2.625 2.625 0 0 0 63.747 5.611 A 2.294 2.294 0 0 0 63.261 5.184 Q 62.658 4.788 61.776 4.788 A 3.554 3.554 0 0 0 60.995 4.87 A 2.617 2.617 0 0 0 60.102 5.247 A 2.792 2.792 0 0 0 59.098 6.457 A 3.348 3.348 0 0 0 59.076 6.507 Q 58.734 7.308 58.734 8.352 L 58.734 8.442 A 5.665 5.665 0 0 0 58.821 9.467 Q 59.005 10.467 59.58 11.097 Q 60.426 12.024 61.956 12.024 Q 62.622 12.024 63.243 11.844 A 3.696 3.696 0 0 0 64.084 11.477 A 4.543 4.543 0 0 0 64.458 11.232 A 0.808 0.808 0 0 1 64.592 11.155 Q 64.702 11.106 64.809 11.106 A 0.538 0.538 0 0 1 64.948 11.123 A 0.418 0.418 0 0 1 65.097 11.196 Q 65.214 11.286 65.259 11.421 Q 65.304 11.556 65.241 11.709 Q 65.186 11.843 65.041 11.956 A 1.011 1.011 0 0 1 64.998 11.988 A 3.745 3.745 0 0 1 64.095 12.525 A 4.647 4.647 0 0 1 63.612 12.699 Q 62.802 12.942 61.992 12.942 A 5.666 5.666 0 0 1 60.883 12.839 A 4.153 4.153 0 0 1 59.67 12.402 Q 58.698 11.862 58.176 10.854 A 4.534 4.534 0 0 1 57.747 9.562 A 6.235 6.235 0 0 1 57.654 8.46 A 6.047 6.047 0 0 1 57.768 7.257 A 4.559 4.559 0 0 1 58.176 6.075 Q 58.698 5.058 59.625 4.482 A 3.833 3.833 0 0 1 61.316 3.926 A 4.746 4.746 0 0 1 61.758 3.906 A 4.451 4.451 0 0 1 62.564 3.976 A 3.375 3.375 0 0 1 63.315 4.203 Q 63.99 4.5 64.467 5.049 A 3.562 3.562 0 0 1 65.036 5.958 A 4.388 4.388 0 0 1 65.196 6.381 A 5.116 5.116 0 0 1 65.4 7.327 A 6.797 6.797 0 0 1 65.448 8.154 A 0.747 0.747 0 0 1 65.435 8.299 Q 65.419 8.381 65.382 8.445 A 0.373 0.373 0 0 1 65.313 8.532 A 0.45 0.45 0 0 1 65.112 8.639 Q 65.035 8.658 64.944 8.658 Z M 84.51 8.658 L 78.012 8.658 L 78.012 7.848 L 84.33 7.848 L 84.042 8.082 Q 84.042 7.038 83.736 6.309 A 2.625 2.625 0 0 0 83.313 5.611 A 2.294 2.294 0 0 0 82.827 5.184 Q 82.224 4.788 81.342 4.788 A 3.554 3.554 0 0 0 80.561 4.87 A 2.617 2.617 0 0 0 79.668 5.247 A 2.792 2.792 0 0 0 78.664 6.457 A 3.348 3.348 0 0 0 78.642 6.507 Q 78.3 7.308 78.3 8.352 L 78.3 8.442 A 5.665 5.665 0 0 0 78.387 9.467 Q 78.571 10.467 79.146 11.097 Q 79.992 12.024 81.522 12.024 Q 82.188 12.024 82.809 11.844 A 3.696 3.696 0 0 0 83.65 11.477 A 4.543 4.543 0 0 0 84.024 11.232 A 0.808 0.808 0 0 1 84.158 11.155 Q 84.268 11.106 84.375 11.106 A 0.538 0.538 0 0 1 84.514 11.123 A 0.418 0.418 0 0 1 84.663 11.196 Q 84.78 11.286 84.825 11.421 Q 84.87 11.556 84.807 11.709 Q 84.752 11.843 84.607 11.956 A 1.011 1.011 0 0 1 84.564 11.988 A 3.745 3.745 0 0 1 83.661 12.525 A 4.647 4.647 0 0 1 83.178 12.699 Q 82.368 12.942 81.558 12.942 A 5.666 5.666 0 0 1 80.449 12.839 A 4.153 4.153 0 0 1 79.236 12.402 Q 78.264 11.862 77.742 10.854 A 4.534 4.534 0 0 1 77.313 9.562 A 6.235 6.235 0 0 1 77.22 8.46 A 6.047 6.047 0 0 1 77.334 7.257 A 4.559 4.559 0 0 1 77.742 6.075 Q 78.264 5.058 79.191 4.482 A 3.833 3.833 0 0 1 80.882 3.926 A 4.746 4.746 0 0 1 81.324 3.906 A 4.451 4.451 0 0 1 82.13 3.976 A 3.375 3.375 0 0 1 82.881 4.203 Q 83.556 4.5 84.033 5.049 A 3.562 3.562 0 0 1 84.602 5.958 A 4.388 4.388 0 0 1 84.762 6.381 A 5.116 5.116 0 0 1 84.966 7.327 A 6.797 6.797 0 0 1 85.014 8.154 A 0.747 0.747 0 0 1 85.001 8.299 Q 84.985 8.381 84.948 8.445 A 0.373 0.373 0 0 1 84.879 8.532 A 0.45 0.45 0 0 1 84.678 8.639 Q 84.601 8.658 84.51 8.658 Z M 155.43 8.658 L 148.932 8.658 L 148.932 7.848 L 155.25 7.848 L 154.962 8.082 Q 154.962 7.038 154.656 6.309 A 2.625 2.625 0 0 0 154.233 5.611 A 2.294 2.294 0 0 0 153.747 5.184 Q 153.144 4.788 152.262 4.788 A 3.554 3.554 0 0 0 151.481 4.87 A 2.617 2.617 0 0 0 150.588 5.247 A 2.792 2.792 0 0 0 149.584 6.457 A 3.348 3.348 0 0 0 149.562 6.507 Q 149.22 7.308 149.22 8.352 L 149.22 8.442 A 5.665 5.665 0 0 0 149.307 9.467 Q 149.491 10.467 150.066 11.097 Q 150.912 12.024 152.442 12.024 Q 153.108 12.024 153.729 11.844 A 3.696 3.696 0 0 0 154.57 11.477 A 4.543 4.543 0 0 0 154.944 11.232 A 0.808 0.808 0 0 1 155.078 11.155 Q 155.188 11.106 155.295 11.106 A 0.538 0.538 0 0 1 155.434 11.123 A 0.418 0.418 0 0 1 155.583 11.196 Q 155.7 11.286 155.745 11.421 Q 155.79 11.556 155.727 11.709 Q 155.672 11.843 155.527 11.956 A 1.011 1.011 0 0 1 155.484 11.988 A 3.745 3.745 0 0 1 154.581 12.525 A 4.647 4.647 0 0 1 154.098 12.699 Q 153.288 12.942 152.478 12.942 A 5.666 5.666 0 0 1 151.369 12.839 A 4.153 4.153 0 0 1 150.156 12.402 Q 149.184 11.862 148.662 10.854 A 4.534 4.534 0 0 1 148.233 9.562 A 6.235 6.235 0 0 1 148.14 8.46 A 6.047 6.047 0 0 1 148.254 7.257 A 4.559 4.559 0 0 1 148.662 6.075 Q 149.184 5.058 150.111 4.482 A 3.833 3.833 0 0 1 151.802 3.926 A 4.746 4.746 0 0 1 152.244 3.906 A 4.451 4.451 0 0 1 153.05 3.976 A 3.375 3.375 0 0 1 153.801 4.203 Q 154.476 4.5 154.953 5.049 A 3.562 3.562 0 0 1 155.522 5.958 A 4.388 4.388 0 0 1 155.682 6.381 A 5.116 5.116 0 0 1 155.886 7.327 A 6.797 6.797 0 0 1 155.934 8.154 A 0.747 0.747 0 0 1 155.921 8.299 Q 155.905 8.381 155.868 8.445 A 0.373 0.373 0 0 1 155.799 8.532 A 0.45 0.45 0 0 1 155.598 8.639 Q 155.521 8.658 155.43 8.658 Z M 136.116 7.794 L 136.89 7.794 L 136.89 8.604 L 136.134 8.604 A 32.805 32.805 0 0 0 135.368 8.612 Q 134.287 8.638 133.605 8.739 Q 132.696 8.874 132.336 9.234 Q 131.994 9.576 131.977 10.179 A 2.258 2.258 0 0 0 131.976 10.242 A 1.914 1.914 0 0 0 132.075 10.871 A 1.63 1.63 0 0 0 132.534 11.556 Q 133.092 12.06 134.046 12.06 A 2.746 2.746 0 0 0 134.805 11.959 A 2.311 2.311 0 0 0 135.405 11.691 Q 135.99 11.322 136.332 10.674 A 2.963 2.963 0 0 0 136.651 9.613 A 3.7 3.7 0 0 0 136.674 9.198 L 136.674 7.146 Q 136.674 5.94 136.188 5.391 Q 135.794 4.945 135.019 4.861 A 3.525 3.525 0 0 0 134.64 4.842 Q 133.956 4.842 133.317 5.022 Q 132.688 5.199 131.981 5.586 A 8.91 8.91 0 0 0 131.958 5.598 Q 131.76 5.706 131.607 5.67 Q 131.454 5.634 131.373 5.526 Q 131.292 5.418 131.265 5.265 A 0.476 0.476 0 0 1 131.258 5.182 Q 131.258 5.073 131.31 4.968 Q 131.38 4.828 131.553 4.739 A 0.825 0.825 0 0 1 131.562 4.734 A 6.916 6.916 0 0 1 132.906 4.168 A 6.379 6.379 0 0 1 133.101 4.113 A 6.21 6.21 0 0 1 134.156 3.926 A 5.432 5.432 0 0 1 134.622 3.906 A 5.157 5.157 0 0 1 135.366 3.957 Q 135.944 4.041 136.377 4.266 Q 137.07 4.626 137.403 5.346 A 3.221 3.221 0 0 1 137.619 5.999 Q 137.692 6.329 137.72 6.716 A 6.831 6.831 0 0 1 137.736 7.2 L 137.736 12.348 A 0.931 0.931 0 0 1 137.724 12.504 Q 137.709 12.591 137.677 12.66 A 0.439 0.439 0 0 1 137.61 12.762 A 0.4 0.4 0 0 1 137.416 12.882 Q 137.35 12.902 137.27 12.905 A 0.833 0.833 0 0 1 137.232 12.906 Q 136.98 12.906 136.836 12.762 A 0.464 0.464 0 0 1 136.72 12.56 Q 136.698 12.487 136.693 12.399 A 0.947 0.947 0 0 1 136.692 12.348 L 136.692 10.692 L 136.872 10.692 A 3.094 3.094 0 0 1 136.591 11.456 A 2.684 2.684 0 0 1 136.296 11.898 Q 135.882 12.402 135.27 12.672 A 3.18 3.18 0 0 1 134.316 12.921 A 3.92 3.92 0 0 1 133.902 12.942 A 3.895 3.895 0 0 1 133.018 12.845 A 3.186 3.186 0 0 1 132.327 12.6 A 2.913 2.913 0 0 1 131.541 12.043 A 2.671 2.671 0 0 1 131.229 11.664 Q 130.824 11.07 130.824 10.332 A 3.139 3.139 0 0 1 130.881 9.713 Q 130.956 9.34 131.129 9.052 A 1.734 1.734 0 0 1 131.31 8.802 A 1.852 1.852 0 0 1 131.791 8.417 Q 132.031 8.279 132.34 8.176 A 4.864 4.864 0 0 1 132.948 8.019 A 9.688 9.688 0 0 1 133.752 7.9 Q 134.593 7.809 135.734 7.796 A 33.93 33.93 0 0 1 136.116 7.794 Z M 10.152 12.348 L 10.152 4.518 Q 10.152 4.325 10.216 4.197 A 0.427 0.427 0 0 1 10.296 4.086 A 0.464 0.464 0 0 1 10.498 3.97 Q 10.571 3.948 10.659 3.943 A 0.947 0.947 0 0 1 10.71 3.942 A 0.707 0.707 0 0 1 10.863 3.958 Q 10.966 3.98 11.041 4.036 A 0.414 0.414 0 0 1 11.097 4.086 A 0.452 0.452 0 0 1 11.194 4.252 Q 11.232 4.364 11.232 4.518 L 11.232 6.21 L 11.034 6.102 A 3.316 3.316 0 0 1 11.503 5.178 A 2.835 2.835 0 0 1 12.267 4.464 A 3.555 3.555 0 0 1 13.926 3.92 A 4.377 4.377 0 0 1 14.274 3.906 Q 15.318 3.906 16.011 4.275 A 2.303 2.303 0 0 1 17.03 5.365 A 2.849 2.849 0 0 1 17.046 5.4 Q 17.388 6.156 17.388 7.29 L 17.388 12.348 Q 17.388 12.618 17.244 12.762 A 0.476 0.476 0 0 1 17.009 12.889 A 0.714 0.714 0 0 1 16.848 12.906 Q 16.578 12.906 16.434 12.762 A 0.464 0.464 0 0 1 16.318 12.56 Q 16.296 12.487 16.291 12.399 A 0.947 0.947 0 0 1 16.29 12.348 L 16.29 7.38 Q 16.29 6.121 15.811 5.515 A 1.504 1.504 0 0 0 15.768 5.463 A 1.603 1.603 0 0 0 15.067 5.001 Q 14.801 4.909 14.473 4.877 A 3.728 3.728 0 0 0 14.112 4.86 A 3.399 3.399 0 0 0 13.186 4.98 A 2.554 2.554 0 0 0 12.033 5.661 Q 11.25 6.462 11.25 7.812 L 11.25 12.348 Q 11.25 12.838 10.834 12.898 A 0.871 0.871 0 0 1 10.71 12.906 Q 10.44 12.906 10.296 12.762 A 0.464 0.464 0 0 1 10.18 12.56 Q 10.158 12.487 10.153 12.399 A 0.947 0.947 0 0 1 10.152 12.348 Z M 67.68 12.348 L 67.68 4.518 Q 67.68 4.325 67.744 4.197 A 0.427 0.427 0 0 1 67.824 4.086 A 0.464 0.464 0 0 1 68.026 3.97 Q 68.099 3.948 68.187 3.943 A 0.947 0.947 0 0 1 68.238 3.942 A 0.707 0.707 0 0 1 68.391 3.958 Q 68.494 3.98 68.569 4.036 A 0.414 0.414 0 0 1 68.625 4.086 A 0.452 0.452 0 0 1 68.722 4.252 Q 68.76 4.364 68.76 4.518 L 68.76 6.21 L 68.562 6.102 A 3.316 3.316 0 0 1 69.031 5.178 A 2.835 2.835 0 0 1 69.795 4.464 A 3.555 3.555 0 0 1 71.454 3.92 A 4.377 4.377 0 0 1 71.802 3.906 Q 72.846 3.906 73.539 4.275 A 2.303 2.303 0 0 1 74.558 5.365 A 2.849 2.849 0 0 1 74.574 5.4 Q 74.916 6.156 74.916 7.29 L 74.916 12.348 Q 74.916 12.618 74.772 12.762 A 0.476 0.476 0 0 1 74.537 12.889 A 0.714 0.714 0 0 1 74.376 12.906 Q 74.106 12.906 73.962 12.762 A 0.464 0.464 0 0 1 73.846 12.56 Q 73.824 12.487 73.819 12.399 A 0.947 0.947 0 0 1 73.818 12.348 L 73.818 7.38 Q 73.818 6.121 73.339 5.515 A 1.504 1.504 0 0 0 73.296 5.463 A 1.603 1.603 0 0 0 72.595 5.001 Q 72.329 4.909 72.001 4.877 A 3.728 3.728 0 0 0 71.64 4.86 A 3.399 3.399 0 0 0 70.714 4.98 A 2.554 2.554 0 0 0 69.561 5.661 Q 68.778 6.462 68.778 7.812 L 68.778 12.348 Q 68.778 12.838 68.362 12.898 A 0.871 0.871 0 0 1 68.238 12.906 Q 67.968 12.906 67.824 12.762 A 0.464 0.464 0 0 1 67.708 12.56 Q 67.686 12.487 67.681 12.399 A 0.947 0.947 0 0 1 67.68 12.348 Z M 87.21 9.558 L 87.21 4.518 Q 87.21 4.325 87.274 4.197 A 0.427 0.427 0 0 1 87.354 4.086 A 0.464 0.464 0 0 1 87.556 3.97 Q 87.629 3.948 87.717 3.943 A 0.947 0.947 0 0 1 87.768 3.942 Q 88.02 3.942 88.164 4.086 Q 88.283 4.205 88.304 4.423 A 1.013 1.013 0 0 1 88.308 4.518 L 88.308 9.504 A 4.9 4.9 0 0 0 88.349 10.162 Q 88.395 10.502 88.493 10.778 A 1.934 1.934 0 0 0 88.83 11.385 A 1.62 1.62 0 0 0 89.579 11.879 Q 89.962 12.006 90.468 12.006 A 2.97 2.97 0 0 0 91.401 11.866 A 2.446 2.446 0 0 0 92.448 11.187 A 2.792 2.792 0 0 0 93.136 9.791 A 3.979 3.979 0 0 0 93.204 9.036 L 93.204 4.518 Q 93.204 4.325 93.268 4.197 A 0.427 0.427 0 0 1 93.348 4.086 A 0.464 0.464 0 0 1 93.55 3.97 Q 93.623 3.948 93.711 3.943 A 0.947 0.947 0 0 1 93.762 3.942 Q 94.014 3.942 94.158 4.086 Q 94.277 4.205 94.298 4.423 A 1.013 1.013 0 0 1 94.302 4.518 L 94.302 12.348 A 0.863 0.863 0 0 1 94.277 12.564 Q 94.206 12.841 93.924 12.894 A 0.784 0.784 0 0 1 93.78 12.906 Q 93.528 12.906 93.384 12.762 A 0.464 0.464 0 0 1 93.268 12.56 Q 93.246 12.487 93.241 12.399 A 0.947 0.947 0 0 1 93.24 12.348 L 93.24 10.566 L 93.456 10.692 Q 93.114 11.79 92.268 12.366 A 3.334 3.334 0 0 1 90.494 12.939 A 4.078 4.078 0 0 1 90.324 12.942 A 4.783 4.783 0 0 1 89.59 12.889 Q 89.02 12.8 88.587 12.564 Q 87.894 12.186 87.552 11.43 A 3.559 3.559 0 0 1 87.312 10.671 Q 87.237 10.302 87.217 9.875 A 6.789 6.789 0 0 1 87.21 9.558 Z M 106.83 9.108 L 105.264 8.748 A 5.024 5.024 0 0 1 104.613 8.56 Q 103.961 8.319 103.59 7.929 A 1.932 1.932 0 0 1 103.076 6.843 A 2.669 2.669 0 0 1 103.05 6.462 A 2.491 2.491 0 0 1 103.163 5.698 A 2.158 2.158 0 0 1 103.455 5.112 A 2.441 2.441 0 0 1 104.213 4.42 A 3.166 3.166 0 0 1 104.607 4.221 A 3.929 3.929 0 0 1 105.567 3.959 A 5.226 5.226 0 0 1 106.326 3.906 Q 107.118 3.906 107.838 4.14 Q 108.558 4.374 109.098 4.86 A 0.608 0.608 0 0 1 109.202 4.958 A 0.451 0.451 0 0 1 109.287 5.112 Q 109.332 5.256 109.287 5.391 Q 109.242 5.526 109.134 5.616 Q 109.026 5.706 108.882 5.706 A 0.442 0.442 0 0 1 108.738 5.681 Q 108.682 5.661 108.623 5.627 A 0.873 0.873 0 0 1 108.576 5.598 A 3.855 3.855 0 0 0 107.763 5.12 A 3.482 3.482 0 0 0 107.478 5.013 Q 106.902 4.824 106.308 4.824 A 4.07 4.07 0 0 0 105.702 4.866 Q 105.385 4.914 105.128 5.016 A 1.804 1.804 0 0 0 104.697 5.256 A 1.372 1.372 0 0 0 104.139 6.246 A 1.783 1.783 0 0 0 104.13 6.426 A 1.439 1.439 0 0 0 104.186 6.836 A 1.115 1.115 0 0 0 104.481 7.326 Q 104.832 7.668 105.588 7.848 L 107.154 8.208 A 6.049 6.049 0 0 1 107.827 8.402 Q 108.504 8.644 108.9 9.009 A 1.757 1.757 0 0 1 109.452 10.09 A 2.495 2.495 0 0 1 109.476 10.44 Q 109.476 11.592 108.567 12.267 A 3.171 3.171 0 0 1 107.537 12.763 Q 107.105 12.886 106.592 12.924 A 6.428 6.428 0 0 1 106.11 12.942 A 6.067 6.067 0 0 1 106.097 12.942 A 6.164 6.164 0 0 1 104.499 12.726 A 4.586 4.586 0 0 1 103.115 12.084 A 5.262 5.262 0 0 1 102.978 11.988 Q 102.834 11.898 102.789 11.763 Q 102.744 11.628 102.771 11.484 Q 102.798 11.34 102.897 11.241 Q 102.996 11.142 103.14 11.124 Q 103.284 11.106 103.446 11.214 A 5.547 5.547 0 0 0 104.096 11.589 A 4.079 4.079 0 0 0 104.814 11.862 Q 105.48 12.042 106.146 12.042 A 4.674 4.674 0 0 0 106.767 12.004 Q 107.073 11.962 107.323 11.877 A 1.882 1.882 0 0 0 107.82 11.628 Q 108.396 11.214 108.396 10.512 A 1.438 1.438 0 0 0 108.35 10.139 A 1.007 1.007 0 0 0 108.027 9.621 A 1.621 1.621 0 0 0 107.735 9.427 Q 107.435 9.267 106.982 9.146 A 6.126 6.126 0 0 0 106.83 9.108 Z M 41.796 15.588 L 41.796 4.518 Q 41.796 4.325 41.86 4.197 A 0.427 0.427 0 0 1 41.94 4.086 A 0.464 0.464 0 0 1 42.142 3.97 Q 42.215 3.948 42.303 3.943 A 0.947 0.947 0 0 1 42.354 3.942 Q 42.606 3.942 42.75 4.086 Q 42.869 4.205 42.89 4.423 A 1.013 1.013 0 0 1 42.894 4.518 L 42.894 6.354 L 42.696 6.246 A 3.214 3.214 0 0 1 43.276 5.097 A 3.068 3.068 0 0 1 43.866 4.536 Q 44.73 3.906 45.954 3.906 Q 47.124 3.906 47.997 4.464 A 3.624 3.624 0 0 1 49.254 5.845 A 4.389 4.389 0 0 1 49.347 6.03 A 4.791 4.791 0 0 1 49.726 7.246 Q 49.821 7.779 49.824 8.385 A 8.012 8.012 0 0 1 49.824 8.424 Q 49.824 9.798 49.355 10.809 A 4.303 4.303 0 0 1 49.347 10.827 A 3.903 3.903 0 0 1 48.691 11.82 A 3.412 3.412 0 0 1 48.006 12.393 A 3.483 3.483 0 0 1 46.665 12.888 A 4.556 4.556 0 0 1 45.954 12.942 A 3.962 3.962 0 0 1 44.902 12.808 A 3.164 3.164 0 0 1 43.866 12.312 Q 43.002 11.682 42.696 10.638 L 42.894 10.638 L 42.894 15.588 Q 42.894 15.858 42.75 16.002 A 0.476 0.476 0 0 1 42.515 16.129 A 0.714 0.714 0 0 1 42.354 16.146 Q 42.084 16.146 41.94 16.002 A 0.464 0.464 0 0 1 41.824 15.8 Q 41.802 15.727 41.797 15.639 A 0.947 0.947 0 0 1 41.796 15.588 Z M 115.722 15.588 L 115.722 4.518 Q 115.722 4.325 115.786 4.197 A 0.427 0.427 0 0 1 115.866 4.086 A 0.464 0.464 0 0 1 116.068 3.97 Q 116.141 3.948 116.229 3.943 A 0.947 0.947 0 0 1 116.28 3.942 Q 116.532 3.942 116.676 4.086 Q 116.795 4.205 116.816 4.423 A 1.013 1.013 0 0 1 116.82 4.518 L 116.82 6.354 L 116.622 6.246 A 3.214 3.214 0 0 1 117.202 5.097 A 3.068 3.068 0 0 1 117.792 4.536 Q 118.656 3.906 119.88 3.906 Q 121.05 3.906 121.923 4.464 A 3.624 3.624 0 0 1 123.18 5.845 A 4.389 4.389 0 0 1 123.273 6.03 A 4.791 4.791 0 0 1 123.652 7.246 Q 123.747 7.779 123.75 8.385 A 8.012 8.012 0 0 1 123.75 8.424 Q 123.75 9.798 123.281 10.809 A 4.303 4.303 0 0 1 123.273 10.827 A 3.903 3.903 0 0 1 122.617 11.82 A 3.412 3.412 0 0 1 121.932 12.393 A 3.483 3.483 0 0 1 120.591 12.888 A 4.556 4.556 0 0 1 119.88 12.942 A 3.962 3.962 0 0 1 118.828 12.808 A 3.164 3.164 0 0 1 117.792 12.312 Q 116.928 11.682 116.622 10.638 L 116.82 10.638 L 116.82 15.588 Q 116.82 15.858 116.676 16.002 A 0.476 0.476 0 0 1 116.441 16.129 A 0.714 0.714 0 0 1 116.28 16.146 Q 116.01 16.146 115.866 16.002 A 0.464 0.464 0 0 1 115.75 15.8 Q 115.728 15.727 115.723 15.639 A 0.947 0.947 0 0 1 115.722 15.588 Z M 20.61 9.882 L 20.61 4.95 L 19.278 4.95 Q 19.067 4.95 18.929 4.855 A 0.466 0.466 0 0 1 18.9 4.833 Q 18.756 4.716 18.756 4.5 A 0.439 0.439 0 0 1 18.78 4.353 A 0.374 0.374 0 0 1 18.9 4.185 A 0.503 0.503 0 0 1 19.103 4.087 Q 19.177 4.07 19.263 4.068 A 0.918 0.918 0 0 1 19.278 4.068 L 20.61 4.068 L 20.61 1.818 A 0.912 0.912 0 0 1 20.622 1.662 Q 20.652 1.49 20.754 1.395 A 0.464 0.464 0 0 1 20.936 1.292 Q 21.006 1.27 21.089 1.263 A 0.972 0.972 0 0 1 21.168 1.26 A 0.76 0.76 0 0 1 21.329 1.276 Q 21.47 1.306 21.564 1.395 A 0.413 0.413 0 0 1 21.67 1.562 Q 21.694 1.629 21.703 1.712 A 0.987 0.987 0 0 1 21.708 1.818 L 21.708 4.068 L 24.138 4.068 Q 24.3 4.068 24.41 4.116 A 0.378 0.378 0 0 1 24.516 4.185 A 0.387 0.387 0 0 1 24.636 4.42 A 0.55 0.55 0 0 1 24.642 4.5 A 0.593 0.593 0 0 1 24.628 4.634 Q 24.6 4.755 24.516 4.833 A 0.395 0.395 0 0 1 24.373 4.916 Q 24.274 4.95 24.138 4.95 L 21.708 4.95 L 21.708 9.738 Q 21.708 10.836 22.158 11.412 A 1.377 1.377 0 0 0 22.801 11.86 Q 23.161 11.988 23.652 11.988 A 2.657 2.657 0 0 0 23.906 11.977 Q 24.029 11.965 24.135 11.941 A 1.298 1.298 0 0 0 24.255 11.907 Q 24.413 11.854 24.537 11.836 A 0.841 0.841 0 0 1 24.66 11.826 A 0.281 0.281 0 0 1 24.839 11.891 A 0.403 0.403 0 0 1 24.885 11.934 Q 24.956 12.011 24.976 12.154 A 0.877 0.877 0 0 1 24.984 12.276 A 0.696 0.696 0 0 1 24.941 12.515 A 0.823 0.823 0 0 1 24.921 12.564 A 0.296 0.296 0 0 1 24.74 12.732 A 0.397 0.397 0 0 1 24.696 12.744 A 2.039 2.039 0 0 1 24.558 12.788 Q 24.391 12.836 24.156 12.879 A 4.029 4.029 0 0 1 23.828 12.926 A 3.034 3.034 0 0 1 23.526 12.942 Q 22.725 12.942 22.144 12.697 A 2.432 2.432 0 0 1 21.906 12.582 Q 21.258 12.222 20.934 11.547 Q 20.653 10.962 20.616 10.139 A 5.679 5.679 0 0 1 20.61 9.882 Z M 143.078 12.826 A 4.821 4.821 0 0 0 144.162 12.942 A 4.231 4.231 0 0 0 144.584 12.921 A 4.864 4.864 0 0 0 145.53 12.726 Q 146.232 12.51 146.79 11.988 A 0.594 0.594 0 0 0 146.836 11.944 A 0.465 0.465 0 0 0 146.952 11.736 A 0.573 0.573 0 0 0 146.954 11.728 Q 146.987 11.588 146.943 11.457 Q 146.898 11.322 146.79 11.241 A 0.433 0.433 0 0 0 146.667 11.177 A 0.531 0.531 0 0 0 146.529 11.151 Q 146.376 11.142 146.214 11.286 A 3.513 3.513 0 0 1 145.771 11.598 A 2.583 2.583 0 0 1 145.197 11.853 A 3.936 3.936 0 0 1 144.942 11.92 A 3.36 3.36 0 0 1 144.198 12.006 A 3.777 3.777 0 0 1 143.552 11.953 A 2.541 2.541 0 0 1 141.957 11.043 A 3.015 3.015 0 0 1 141.603 10.494 Q 141.369 10.028 141.262 9.443 A 5.903 5.903 0 0 1 141.174 8.388 A 6.177 6.177 0 0 1 141.218 7.631 A 4.493 4.493 0 0 1 141.372 6.885 A 3.528 3.528 0 0 1 141.53 6.458 A 2.782 2.782 0 0 1 141.957 5.778 Q 142.344 5.328 142.902 5.094 A 2.9 2.9 0 0 1 143.546 4.911 A 3.943 3.943 0 0 1 144.198 4.86 A 3.182 3.182 0 0 1 144.504 4.875 A 3.652 3.652 0 0 1 145.197 5.013 Q 145.71 5.166 146.214 5.58 A 0.765 0.765 0 0 0 146.268 5.624 Q 146.402 5.723 146.529 5.715 A 0.575 0.575 0 0 0 146.6 5.706 A 0.447 0.447 0 0 0 146.79 5.625 A 0.47 0.47 0 0 0 146.863 5.557 A 0.516 0.516 0 0 0 146.952 5.409 Q 146.986 5.325 146.984 5.237 A 0.47 0.47 0 0 0 146.97 5.13 Q 146.934 4.986 146.808 4.878 A 3.941 3.941 0 0 0 146.79 4.862 A 3.458 3.458 0 0 0 145.53 4.131 A 5.082 5.082 0 0 0 145.181 4.033 A 4.299 4.299 0 0 0 144.162 3.906 A 5.239 5.239 0 0 0 143.528 3.943 A 4.158 4.158 0 0 0 142.443 4.221 Q 141.678 4.536 141.147 5.112 A 3.57 3.57 0 0 0 140.784 5.578 A 4.106 4.106 0 0 0 140.337 6.507 A 5.017 5.017 0 0 0 140.127 7.39 A 6.679 6.679 0 0 0 140.058 8.37 A 6.594 6.594 0 0 0 140.134 9.388 A 4.969 4.969 0 0 0 140.553 10.773 A 4.446 4.446 0 0 0 140.6 10.869 A 3.694 3.694 0 0 0 141.966 12.375 A 3.665 3.665 0 0 0 143.078 12.826 Z M 126.072 10.044 L 126.072 0.558 A 0.912 0.912 0 0 1 126.084 0.402 Q 126.114 0.23 126.216 0.135 A 0.464 0.464 0 0 1 126.398 0.032 Q 126.468 0.01 126.551 0.003 A 0.972 0.972 0 0 1 126.63 0 A 0.76 0.76 0 0 1 126.791 0.016 Q 126.932 0.046 127.026 0.135 A 0.413 0.413 0 0 1 127.132 0.302 Q 127.156 0.369 127.165 0.452 A 0.987 0.987 0 0 1 127.17 0.558 L 127.17 9.918 Q 127.17 10.955 127.579 11.469 A 1.333 1.333 0 0 0 127.584 11.475 A 1.339 1.339 0 0 0 128.396 11.952 A 2.038 2.038 0 0 0 128.79 11.988 Q 128.928 11.988 129.034 11.977 A 1.461 1.461 0 0 0 129.096 11.97 Q 129.222 11.952 129.348 11.952 A 0.54 0.54 0 0 1 129.384 11.949 Q 129.5 11.944 129.569 11.996 A 0.204 0.204 0 0 1 129.591 12.015 A 0.203 0.203 0 0 1 129.633 12.08 Q 129.661 12.146 129.669 12.254 A 1.272 1.272 0 0 1 129.672 12.348 A 0.803 0.803 0 0 1 129.66 12.49 Q 129.634 12.638 129.546 12.726 Q 129.425 12.847 129.155 12.902 A 1.655 1.655 0 0 1 129.132 12.906 A 3.445 3.445 0 0 1 128.905 12.931 A 3.784 3.784 0 0 1 128.871 12.933 Q 128.736 12.942 128.592 12.942 A 3.084 3.084 0 0 1 127.828 12.853 A 2.109 2.109 0 0 1 126.729 12.186 A 2.481 2.481 0 0 1 126.236 11.273 Q 126.123 10.904 126.088 10.462 A 5.259 5.259 0 0 1 126.072 10.044 Z M 26.262 12.348 L 26.262 4.518 Q 26.262 4.325 26.326 4.197 A 0.427 0.427 0 0 1 26.406 4.086 A 0.464 0.464 0 0 1 26.608 3.97 Q 26.681 3.948 26.769 3.943 A 0.947 0.947 0 0 1 26.82 3.942 A 0.707 0.707 0 0 1 26.973 3.958 Q 27.076 3.98 27.151 4.036 A 0.414 0.414 0 0 1 27.207 4.086 A 0.452 0.452 0 0 1 27.304 4.252 Q 27.342 4.364 27.342 4.518 L 27.342 6.12 L 27.162 6.12 A 3.256 3.256 0 0 1 27.614 5.18 A 2.822 2.822 0 0 1 28.323 4.482 A 3.335 3.335 0 0 1 29.698 3.942 A 4.353 4.353 0 0 1 30.33 3.888 Q 30.546 3.87 30.69 3.978 Q 30.826 4.08 30.834 4.294 A 0.726 0.726 0 0 1 30.834 4.32 A 0.872 0.872 0 0 1 30.836 4.372 Q 30.838 4.554 30.757 4.669 A 0.366 0.366 0 0 1 30.726 4.707 A 0.442 0.442 0 0 1 30.597 4.8 Q 30.483 4.857 30.312 4.878 L 30.06 4.896 Q 28.782 5.022 28.08 5.742 A 2.404 2.404 0 0 0 27.454 6.937 A 3.52 3.52 0 0 0 27.378 7.686 L 27.378 12.348 Q 27.378 12.541 27.309 12.669 A 0.435 0.435 0 0 1 27.243 12.762 A 0.413 0.413 0 0 1 27.076 12.868 Q 27.009 12.892 26.926 12.901 A 0.987 0.987 0 0 1 26.82 12.906 Q 26.55 12.906 26.406 12.762 A 0.464 0.464 0 0 1 26.29 12.56 Q 26.268 12.487 26.263 12.399 A 0.947 0.947 0 0 1 26.262 12.348 Z M 52.146 12.348 L 52.146 4.518 Q 52.146 4.325 52.21 4.197 A 0.427 0.427 0 0 1 52.29 4.086 A 0.464 0.464 0 0 1 52.492 3.97 Q 52.565 3.948 52.653 3.943 A 0.947 0.947 0 0 1 52.704 3.942 A 0.707 0.707 0 0 1 52.857 3.958 Q 52.96 3.98 53.035 4.036 A 0.414 0.414 0 0 1 53.091 4.086 A 0.452 0.452 0 0 1 53.188 4.252 Q 53.226 4.364 53.226 4.518 L 53.226 6.12 L 53.046 6.12 A 3.256 3.256 0 0 1 53.498 5.18 A 2.822 2.822 0 0 1 54.207 4.482 A 3.335 3.335 0 0 1 55.582 3.942 A 4.353 4.353 0 0 1 56.214 3.888 Q 56.43 3.87 56.574 3.978 Q 56.71 4.08 56.718 4.294 A 0.726 0.726 0 0 1 56.718 4.32 A 0.872 0.872 0 0 1 56.72 4.372 Q 56.722 4.554 56.641 4.669 A 0.366 0.366 0 0 1 56.61 4.707 A 0.442 0.442 0 0 1 56.481 4.8 Q 56.367 4.857 56.196 4.878 L 55.944 4.896 Q 54.666 5.022 53.964 5.742 A 2.404 2.404 0 0 0 53.338 6.937 A 3.52 3.52 0 0 0 53.262 7.686 L 53.262 12.348 Q 53.262 12.541 53.193 12.669 A 0.435 0.435 0 0 1 53.127 12.762 A 0.413 0.413 0 0 1 52.96 12.868 Q 52.893 12.892 52.81 12.901 A 0.987 0.987 0 0 1 52.704 12.906 Q 52.434 12.906 52.29 12.762 A 0.464 0.464 0 0 1 52.174 12.56 Q 52.152 12.487 52.147 12.399 A 0.947 0.947 0 0 1 52.146 12.348 Z M 97.2 12.348 L 97.2 4.518 Q 97.2 4.325 97.264 4.197 A 0.427 0.427 0 0 1 97.344 4.086 A 0.464 0.464 0 0 1 97.546 3.97 Q 97.619 3.948 97.707 3.943 A 0.947 0.947 0 0 1 97.758 3.942 A 0.707 0.707 0 0 1 97.911 3.958 Q 98.014 3.98 98.089 4.036 A 0.414 0.414 0 0 1 98.145 4.086 A 0.452 0.452 0 0 1 98.242 4.252 Q 98.28 4.364 98.28 4.518 L 98.28 6.12 L 98.1 6.12 A 3.256 3.256 0 0 1 98.552 5.18 A 2.822 2.822 0 0 1 99.261 4.482 A 3.335 3.335 0 0 1 100.636 3.942 A 4.353 4.353 0 0 1 101.268 3.888 Q 101.484 3.87 101.628 3.978 Q 101.764 4.08 101.772 4.294 A 0.726 0.726 0 0 1 101.772 4.32 A 0.872 0.872 0 0 1 101.774 4.372 Q 101.776 4.554 101.695 4.669 A 0.366 0.366 0 0 1 101.664 4.707 A 0.442 0.442 0 0 1 101.535 4.8 Q 101.421 4.857 101.25 4.878 L 100.998 4.896 Q 99.72 5.022 99.018 5.742 A 2.404 2.404 0 0 0 98.392 6.937 A 3.52 3.52 0 0 0 98.316 7.686 L 98.316 12.348 Q 98.316 12.541 98.247 12.669 A 0.435 0.435 0 0 1 98.181 12.762 A 0.413 0.413 0 0 1 98.014 12.868 Q 97.947 12.892 97.864 12.901 A 0.987 0.987 0 0 1 97.758 12.906 Q 97.488 12.906 97.344 12.762 A 0.464 0.464 0 0 1 97.228 12.56 Q 97.206 12.487 97.201 12.399 A 0.947 0.947 0 0 1 97.2 12.348 Z M 45.792 12.024 A 3.105 3.105 0 0 0 46.618 11.918 A 2.565 2.565 0 0 0 47.331 11.601 A 2.61 2.61 0 0 0 48.156 10.738 A 3.348 3.348 0 0 0 48.348 10.368 Q 48.708 9.558 48.708 8.424 A 5.936 5.936 0 0 0 48.625 7.397 Q 48.451 6.411 47.916 5.778 Q 47.124 4.842 45.792 4.842 A 3.105 3.105 0 0 0 44.966 4.948 A 2.565 2.565 0 0 0 44.253 5.265 A 2.636 2.636 0 0 0 43.408 6.157 A 3.345 3.345 0 0 0 43.236 6.489 A 3.88 3.88 0 0 0 42.967 7.369 Q 42.876 7.855 42.876 8.424 A 6.058 6.058 0 0 0 42.957 9.45 Q 43.13 10.452 43.668 11.088 Q 44.46 12.024 45.792 12.024 Z M 119.718 12.024 A 3.105 3.105 0 0 0 120.544 11.918 A 2.565 2.565 0 0 0 121.257 11.601 A 2.61 2.61 0 0 0 122.082 10.738 A 3.348 3.348 0 0 0 122.274 10.368 Q 122.634 9.558 122.634 8.424 A 5.936 5.936 0 0 0 122.551 7.397 Q 122.377 6.411 121.842 5.778 Q 121.05 4.842 119.718 4.842 A 3.105 3.105 0 0 0 118.892 4.948 A 2.565 2.565 0 0 0 118.179 5.265 A 2.636 2.636 0 0 0 117.334 6.157 A 3.345 3.345 0 0 0 117.162 6.489 A 3.88 3.88 0 0 0 116.893 7.369 Q 116.802 7.855 116.802 8.424 A 6.058 6.058 0 0 0 116.883 9.45 Q 117.056 10.452 117.594 11.088 Q 118.386 12.024 119.718 12.024 Z M 112.024 12.806 A 0.906 0.906 0 0 0 112.32 12.852 A 1.066 1.066 0 0 0 112.489 12.839 A 0.749 0.749 0 0 0 112.923 12.618 Q 113.148 12.384 113.148 12.024 A 1.072 1.072 0 0 0 113.144 11.925 A 0.798 0.798 0 0 0 112.923 11.43 Q 112.698 11.196 112.32 11.196 A 1.056 1.056 0 0 0 112.254 11.198 A 0.79 0.79 0 0 0 111.726 11.43 A 0.771 0.771 0 0 0 111.538 11.728 A 0.906 0.906 0 0 0 111.492 12.024 A 1.056 1.056 0 0 0 111.494 12.09 A 0.79 0.79 0 0 0 111.726 12.618 A 0.771 0.771 0 0 0 112.024 12.806 Z" vector-effect="non-scaling-stroke"/></g></svg>