<svg width="209.425" height="22.475" viewBox="0 0 209.425 22.475" xmlns="http://www.w3.org/2000/svg"><g id="svgGroup" stroke-linecap="round" fill-rule="evenodd" font-size="9pt" stroke="#000000" stroke-width="0.25mm" fill="#000000" style="stroke:#000000;stroke-width:0.25mm;fill:#000000"><path d="M 165.125 16.9 L 165.125 1.075 A 1.684 1.684 0 0 1 165.151 0.771 Q 165.182 0.599 165.253 0.464 A 0.826 0.826 0 0 1 165.388 0.275 A 0.842 0.842 0 0 1 165.77 0.049 Q 165.906 0.01 166.069 0.002 A 1.715 1.715 0 0 1 166.15 0 Q 166.529 0 166.771 0.158 A 0.791 0.791 0 0 1 166.913 0.275 A 0.881 0.881 0 0 1 167.113 0.625 Q 167.175 0.821 167.175 1.075 L 167.175 7.975 L 177.75 7.975 L 177.75 1.075 A 1.684 1.684 0 0 1 177.776 0.771 Q 177.807 0.599 177.878 0.464 A 0.826 0.826 0 0 1 178.013 0.275 A 0.842 0.842 0 0 1 178.395 0.049 Q 178.531 0.01 178.694 0.002 A 1.715 1.715 0 0 1 178.775 0 Q 179.154 0 179.396 0.158 A 0.791 0.791 0 0 1 179.538 0.275 A 0.881 0.881 0 0 1 179.738 0.625 Q 179.8 0.821 179.8 1.075 L 179.8 16.9 A 1.541 1.541 0 0 1 179.769 17.219 Q 179.71 17.499 179.538 17.688 A 0.844 0.844 0 0 1 179.123 17.933 Q 178.986 17.97 178.822 17.974 A 1.681 1.681 0 0 1 178.775 17.975 A 1.387 1.387 0 0 1 178.472 17.944 Q 178.274 17.9 178.128 17.791 A 0.801 0.801 0 0 1 178.013 17.688 A 0.96 0.96 0 0 1 177.795 17.278 Q 177.75 17.107 177.75 16.9 L 177.75 9.75 L 167.175 9.75 L 167.175 16.9 Q 167.175 17.297 167.018 17.56 A 0.894 0.894 0 0 1 166.925 17.688 A 0.779 0.779 0 0 1 166.569 17.916 Q 166.44 17.958 166.283 17.97 A 1.73 1.73 0 0 1 166.15 17.975 A 1.387 1.387 0 0 1 165.847 17.944 Q 165.649 17.9 165.503 17.791 A 0.801 0.801 0 0 1 165.388 17.688 A 0.96 0.96 0 0 1 165.17 17.278 Q 165.125 17.107 165.125 16.9 Z M 10.425 17.8 L 1.125 17.8 A 1.68 1.68 0 0 1 0.8 17.771 Q 0.483 17.708 0.288 17.513 A 0.92 0.92 0 0 1 0.06 17.123 Q 0.016 16.977 0.004 16.801 A 1.935 1.935 0 0 1 0 16.675 L 0 1.3 A 1.68 1.68 0 0 1 0.03 0.975 Q 0.092 0.658 0.288 0.463 A 0.92 0.92 0 0 1 0.677 0.235 Q 0.823 0.191 0.999 0.179 A 1.935 1.935 0 0 1 1.125 0.175 L 10.425 0.175 A 1.283 1.283 0 0 1 10.68 0.199 Q 10.83 0.229 10.945 0.299 A 0.677 0.677 0 0 1 11.075 0.4 Q 11.295 0.62 11.3 1.007 A 1.402 1.402 0 0 1 11.3 1.025 A 1.283 1.283 0 0 1 11.276 1.28 Q 11.246 1.43 11.176 1.545 A 0.677 0.677 0 0 1 11.075 1.675 A 0.724 0.724 0 0 1 10.764 1.855 Q 10.652 1.889 10.517 1.897 A 1.485 1.485 0 0 1 10.425 1.9 L 2 1.9 L 2 8 L 9.9 8 A 1.36 1.36 0 0 1 10.152 8.022 Q 10.294 8.049 10.405 8.108 A 0.677 0.677 0 0 1 10.55 8.213 A 0.668 0.668 0 0 1 10.726 8.498 Q 10.76 8.606 10.771 8.736 A 1.447 1.447 0 0 1 10.775 8.85 A 1.283 1.283 0 0 1 10.751 9.105 Q 10.721 9.255 10.651 9.37 A 0.677 0.677 0 0 1 10.55 9.5 A 0.724 0.724 0 0 1 10.239 9.68 Q 10.127 9.714 9.992 9.722 A 1.485 1.485 0 0 1 9.9 9.725 L 2 9.725 L 2 16.075 L 10.425 16.075 A 1.283 1.283 0 0 1 10.68 16.099 Q 10.83 16.129 10.945 16.199 A 0.677 0.677 0 0 1 11.075 16.3 Q 11.295 16.52 11.3 16.907 A 1.402 1.402 0 0 1 11.3 16.925 A 1.283 1.283 0 0 1 11.276 17.18 Q 11.246 17.33 11.176 17.445 A 0.677 0.677 0 0 1 11.075 17.575 A 0.724 0.724 0 0 1 10.764 17.755 Q 10.652 17.789 10.517 17.797 A 1.485 1.485 0 0 1 10.425 17.8 Z M 55.55 12.15 L 46.85 12.15 L 46.85 10.825 L 55.075 10.825 L 54.675 11.15 Q 54.675 10.016 54.393 9.173 A 4.142 4.142 0 0 0 54.275 8.863 A 3.466 3.466 0 0 0 53.768 8.015 A 2.914 2.914 0 0 0 53.113 7.425 A 2.936 2.936 0 0 0 52.132 7.021 Q 51.743 6.934 51.294 6.926 A 5.181 5.181 0 0 0 51.2 6.925 A 4.606 4.606 0 0 0 50.176 7.034 A 3.416 3.416 0 0 0 49.038 7.513 A 3.605 3.605 0 0 0 47.743 9.041 A 4.342 4.342 0 0 0 47.7 9.138 A 5.298 5.298 0 0 0 47.336 10.412 A 7.189 7.189 0 0 0 47.25 11.55 L 47.25 11.7 Q 47.25 13.282 47.776 14.344 A 3.608 3.608 0 0 0 48.363 15.2 A 3.613 3.613 0 0 0 50.2 16.252 Q 50.804 16.4 51.525 16.4 Q 52.375 16.4 53.213 16.175 A 5.465 5.465 0 0 0 54.486 15.648 A 6.445 6.445 0 0 0 54.85 15.425 Q 55.182 15.212 55.457 15.212 A 0.701 0.701 0 0 1 55.488 15.213 Q 55.775 15.225 55.95 15.388 Q 56.125 15.55 56.188 15.788 Q 56.234 15.963 56.184 16.159 A 1.051 1.051 0 0 1 56.138 16.3 A 0.87 0.87 0 0 1 55.947 16.582 Q 55.845 16.686 55.7 16.775 Q 54.875 17.375 53.75 17.7 A 8.078 8.078 0 0 1 51.8 18.02 A 7.483 7.483 0 0 1 51.525 18.025 A 8.161 8.161 0 0 1 49.944 17.879 A 5.97 5.97 0 0 1 48.213 17.263 Q 46.825 16.5 46.063 15.1 Q 45.3 13.7 45.3 11.75 A 8.125 8.125 0 0 1 45.465 10.076 A 6.19 6.19 0 0 1 46.05 8.438 Q 46.8 7.025 48.113 6.225 Q 49.425 5.425 51.15 5.425 A 6.25 6.25 0 0 1 52.381 5.541 A 5.009 5.009 0 0 1 53.35 5.838 Q 54.325 6.25 55.013 7.025 A 5.046 5.046 0 0 1 55.861 8.37 A 6.13 6.13 0 0 1 56.063 8.9 A 7.095 7.095 0 0 1 56.364 10.293 A 9.248 9.248 0 0 1 56.425 11.375 A 1.126 1.126 0 0 1 56.405 11.594 Q 56.358 11.831 56.2 11.963 Q 56.022 12.111 55.718 12.142 A 1.664 1.664 0 0 1 55.55 12.15 Z M 92.225 12.15 L 83.525 12.15 L 83.525 10.825 L 91.75 10.825 L 91.35 11.15 Q 91.35 10.016 91.068 9.173 A 4.142 4.142 0 0 0 90.95 8.863 A 3.466 3.466 0 0 0 90.443 8.015 A 2.914 2.914 0 0 0 89.788 7.425 A 2.936 2.936 0 0 0 88.807 7.021 Q 88.418 6.934 87.969 6.926 A 5.181 5.181 0 0 0 87.875 6.925 A 4.606 4.606 0 0 0 86.851 7.034 A 3.416 3.416 0 0 0 85.713 7.513 A 3.605 3.605 0 0 0 84.418 9.041 A 4.342 4.342 0 0 0 84.375 9.138 A 5.298 5.298 0 0 0 84.011 10.412 A 7.189 7.189 0 0 0 83.925 11.55 L 83.925 11.7 Q 83.925 13.282 84.451 14.344 A 3.608 3.608 0 0 0 85.038 15.2 A 3.613 3.613 0 0 0 86.875 16.252 Q 87.479 16.4 88.2 16.4 Q 89.05 16.4 89.888 16.175 A 5.465 5.465 0 0 0 91.161 15.648 A 6.445 6.445 0 0 0 91.525 15.425 Q 91.857 15.212 92.132 15.212 A 0.701 0.701 0 0 1 92.163 15.213 Q 92.45 15.225 92.625 15.388 Q 92.8 15.55 92.863 15.788 Q 92.909 15.963 92.859 16.159 A 1.051 1.051 0 0 1 92.813 16.3 A 0.87 0.87 0 0 1 92.622 16.582 Q 92.52 16.686 92.375 16.775 Q 91.55 17.375 90.425 17.7 A 8.078 8.078 0 0 1 88.475 18.02 A 7.483 7.483 0 0 1 88.2 18.025 A 8.161 8.161 0 0 1 86.619 17.879 A 5.97 5.97 0 0 1 84.888 17.263 Q 83.5 16.5 82.738 15.1 Q 81.975 13.7 81.975 11.75 A 8.125 8.125 0 0 1 82.14 10.076 A 6.19 6.19 0 0 1 82.725 8.438 Q 83.475 7.025 84.788 6.225 Q 86.1 5.425 87.825 5.425 A 6.25 6.25 0 0 1 89.056 5.541 A 5.009 5.009 0 0 1 90.025 5.838 Q 91 6.25 91.688 7.025 A 5.046 5.046 0 0 1 92.536 8.37 A 6.13 6.13 0 0 1 92.738 8.9 A 7.095 7.095 0 0 1 93.039 10.293 A 9.248 9.248 0 0 1 93.1 11.375 A 1.126 1.126 0 0 1 93.08 11.594 Q 93.033 11.831 92.875 11.963 Q 92.697 12.111 92.393 12.142 A 1.664 1.664 0 0 1 92.225 12.15 Z M 119.725 12.15 L 111.025 12.15 L 111.025 10.825 L 119.25 10.825 L 118.85 11.15 Q 118.85 10.016 118.568 9.173 A 4.142 4.142 0 0 0 118.45 8.863 A 3.466 3.466 0 0 0 117.943 8.015 A 2.914 2.914 0 0 0 117.288 7.425 A 2.936 2.936 0 0 0 116.307 7.021 Q 115.918 6.934 115.469 6.926 A 5.181 5.181 0 0 0 115.375 6.925 A 4.606 4.606 0 0 0 114.351 7.034 A 3.416 3.416 0 0 0 113.213 7.513 A 3.605 3.605 0 0 0 111.918 9.041 A 4.342 4.342 0 0 0 111.875 9.138 A 5.298 5.298 0 0 0 111.511 10.412 A 7.189 7.189 0 0 0 111.425 11.55 L 111.425 11.7 Q 111.425 13.282 111.951 14.344 A 3.608 3.608 0 0 0 112.538 15.2 A 3.613 3.613 0 0 0 114.375 16.252 Q 114.979 16.4 115.7 16.4 Q 116.55 16.4 117.388 16.175 A 5.465 5.465 0 0 0 118.661 15.648 A 6.445 6.445 0 0 0 119.025 15.425 Q 119.357 15.212 119.632 15.212 A 0.701 0.701 0 0 1 119.663 15.213 Q 119.95 15.225 120.125 15.388 Q 120.3 15.55 120.363 15.788 Q 120.409 15.963 120.359 16.159 A 1.051 1.051 0 0 1 120.313 16.3 A 0.87 0.87 0 0 1 120.122 16.582 Q 120.02 16.686 119.875 16.775 Q 119.05 17.375 117.925 17.7 A 8.078 8.078 0 0 1 115.975 18.02 A 7.483 7.483 0 0 1 115.7 18.025 A 8.161 8.161 0 0 1 114.119 17.879 A 5.97 5.97 0 0 1 112.388 17.263 Q 111 16.5 110.238 15.1 Q 109.475 13.7 109.475 11.75 A 8.125 8.125 0 0 1 109.64 10.076 A 6.19 6.19 0 0 1 110.225 8.438 Q 110.975 7.025 112.288 6.225 Q 113.6 5.425 115.325 5.425 A 6.25 6.25 0 0 1 116.556 5.541 A 5.009 5.009 0 0 1 117.525 5.838 Q 118.5 6.25 119.188 7.025 A 5.046 5.046 0 0 1 120.036 8.37 A 6.13 6.13 0 0 1 120.238 8.9 A 7.095 7.095 0 0 1 120.539 10.293 A 9.248 9.248 0 0 1 120.6 11.375 A 1.126 1.126 0 0 1 120.58 11.594 Q 120.533 11.831 120.375 11.963 Q 120.197 12.111 119.893 12.142 A 1.664 1.664 0 0 1 119.725 12.15 Z M 14.3 16.925 L 14.3 6.5 A 1.605 1.605 0 0 1 14.324 6.211 Q 14.355 6.046 14.422 5.917 A 0.789 0.789 0 0 1 14.55 5.738 A 0.803 0.803 0 0 1 14.92 5.52 Q 15.078 5.475 15.275 5.475 A 1.379 1.379 0 0 1 15.573 5.505 Q 15.769 5.549 15.914 5.654 A 0.809 0.809 0 0 1 16.013 5.738 A 0.842 0.842 0 0 1 16.221 6.096 Q 16.262 6.229 16.272 6.39 A 1.758 1.758 0 0 1 16.275 6.5 L 16.275 8.65 L 16 8.35 A 4.59 4.59 0 0 1 16.664 7.113 A 3.902 3.902 0 0 1 17.713 6.163 A 4.916 4.916 0 0 1 19.882 5.451 A 6.118 6.118 0 0 1 20.45 5.425 A 6.644 6.644 0 0 1 21.469 5.499 Q 22.261 5.622 22.863 5.95 A 3.247 3.247 0 0 1 24.262 7.455 A 4.018 4.018 0 0 1 24.3 7.538 Q 24.686 8.401 24.758 9.637 A 10.084 10.084 0 0 1 24.775 10.225 L 24.775 16.925 A 1.535 1.535 0 0 1 24.747 17.229 Q 24.689 17.515 24.513 17.7 A 0.857 0.857 0 0 1 24.083 17.941 Q 23.946 17.974 23.785 17.975 A 1.628 1.628 0 0 1 23.775 17.975 Q 23.396 17.975 23.154 17.817 A 0.791 0.791 0 0 1 23.013 17.7 Q 22.773 17.449 22.752 17.012 A 1.794 1.794 0 0 1 22.75 16.925 L 22.75 10.35 Q 22.75 8.65 22.088 7.863 Q 21.527 7.196 20.403 7.094 A 4.711 4.711 0 0 0 19.975 7.075 Q 18.3 7.075 17.313 8.113 A 3.497 3.497 0 0 0 16.421 9.864 A 5.046 5.046 0 0 0 16.325 10.875 L 16.325 16.925 Q 16.325 17.754 15.686 17.928 A 1.467 1.467 0 0 1 15.3 17.975 A 1.445 1.445 0 0 1 15.012 17.948 Q 14.722 17.889 14.55 17.7 A 0.901 0.901 0 0 1 14.355 17.344 Q 14.314 17.206 14.304 17.04 A 1.848 1.848 0 0 1 14.3 16.925 Z M 96.025 16.925 L 96.025 6.5 A 1.605 1.605 0 0 1 96.049 6.211 Q 96.08 6.046 96.147 5.917 A 0.789 0.789 0 0 1 96.275 5.738 A 0.803 0.803 0 0 1 96.645 5.52 Q 96.803 5.475 97 5.475 A 1.379 1.379 0 0 1 97.298 5.505 Q 97.494 5.549 97.639 5.654 A 0.809 0.809 0 0 1 97.738 5.738 A 0.842 0.842 0 0 1 97.946 6.096 Q 97.987 6.229 97.997 6.39 A 1.758 1.758 0 0 1 98 6.5 L 98 8.65 L 97.725 8.35 A 4.59 4.59 0 0 1 98.389 7.113 A 3.902 3.902 0 0 1 99.438 6.163 A 4.916 4.916 0 0 1 101.607 5.451 A 6.118 6.118 0 0 1 102.175 5.425 A 6.644 6.644 0 0 1 103.194 5.499 Q 103.986 5.622 104.588 5.95 A 3.247 3.247 0 0 1 105.987 7.455 A 4.018 4.018 0 0 1 106.025 7.538 Q 106.411 8.401 106.483 9.637 A 10.084 10.084 0 0 1 106.5 10.225 L 106.5 16.925 A 1.535 1.535 0 0 1 106.472 17.229 Q 106.414 17.515 106.238 17.7 A 0.857 0.857 0 0 1 105.808 17.941 Q 105.671 17.974 105.51 17.975 A 1.628 1.628 0 0 1 105.5 17.975 Q 105.121 17.975 104.879 17.817 A 0.791 0.791 0 0 1 104.738 17.7 Q 104.498 17.449 104.477 17.012 A 1.794 1.794 0 0 1 104.475 16.925 L 104.475 10.35 Q 104.475 8.65 103.813 7.863 Q 103.252 7.196 102.128 7.094 A 4.711 4.711 0 0 0 101.7 7.075 Q 100.025 7.075 99.038 8.113 A 3.497 3.497 0 0 0 98.146 9.864 A 5.046 5.046 0 0 0 98.05 10.875 L 98.05 16.925 Q 98.05 17.754 97.411 17.928 A 1.467 1.467 0 0 1 97.025 17.975 A 1.445 1.445 0 0 1 96.737 17.948 Q 96.447 17.889 96.275 17.7 A 0.901 0.901 0 0 1 96.08 17.344 Q 96.039 17.206 96.029 17.04 A 1.848 1.848 0 0 1 96.025 16.925 Z M 123.45 13.2 L 123.45 6.5 Q 123.45 6.161 123.559 5.937 A 0.733 0.733 0 0 1 123.713 5.725 A 0.86 0.86 0 0 1 124.081 5.521 Q 124.215 5.484 124.375 5.477 A 1.71 1.71 0 0 1 124.45 5.475 A 1.605 1.605 0 0 1 124.739 5.499 Q 124.904 5.53 125.033 5.597 A 0.789 0.789 0 0 1 125.213 5.725 Q 125.424 5.927 125.465 6.307 A 1.804 1.804 0 0 1 125.475 6.5 L 125.475 13.175 Q 125.475 14.128 125.71 14.793 A 2.451 2.451 0 0 0 126.138 15.563 Q 126.8 16.35 128.225 16.35 A 3.724 3.724 0 0 0 129.451 16.156 A 3.167 3.167 0 0 0 130.75 15.3 A 3.581 3.581 0 0 0 131.646 13.467 A 5.074 5.074 0 0 0 131.725 12.55 L 131.725 6.5 Q 131.725 6.161 131.834 5.937 A 0.733 0.733 0 0 1 131.988 5.725 A 0.842 0.842 0 0 1 132.321 5.534 Q 132.508 5.475 132.75 5.475 A 1.449 1.449 0 0 1 133.045 5.503 Q 133.225 5.541 133.363 5.628 A 0.803 0.803 0 0 1 133.488 5.725 Q 133.699 5.927 133.74 6.307 A 1.804 1.804 0 0 1 133.75 6.5 L 133.75 16.925 A 1.64 1.64 0 0 1 133.705 17.328 Q 133.572 17.851 133.046 17.951 A 1.45 1.45 0 0 1 132.775 17.975 A 1.316 1.316 0 0 1 132.474 17.943 Q 132.239 17.887 132.076 17.738 A 0.83 0.83 0 0 1 132.038 17.7 Q 131.798 17.449 131.777 17.012 A 1.794 1.794 0 0 1 131.775 16.925 L 131.775 14.65 L 132.1 15 A 4.875 4.875 0 0 1 131.492 16.228 A 3.968 3.968 0 0 1 130.463 17.25 Q 129.325 18.025 127.825 18.025 A 6.67 6.67 0 0 1 126.791 17.949 Q 126.24 17.863 125.783 17.677 A 3.573 3.573 0 0 1 125.388 17.488 A 3.355 3.355 0 0 1 124.002 16.011 A 4.158 4.158 0 0 1 123.938 15.875 A 5.044 5.044 0 0 1 123.596 14.793 Q 123.45 14.075 123.45 13.2 Z M 183.8 13.2 L 183.8 6.5 Q 183.8 6.161 183.909 5.937 A 0.733 0.733 0 0 1 184.063 5.725 A 0.86 0.86 0 0 1 184.431 5.521 Q 184.565 5.484 184.725 5.477 A 1.71 1.71 0 0 1 184.8 5.475 A 1.605 1.605 0 0 1 185.089 5.499 Q 185.254 5.53 185.383 5.597 A 0.789 0.789 0 0 1 185.563 5.725 Q 185.774 5.927 185.815 6.307 A 1.804 1.804 0 0 1 185.825 6.5 L 185.825 13.175 Q 185.825 14.128 186.06 14.793 A 2.451 2.451 0 0 0 186.488 15.563 Q 187.15 16.35 188.575 16.35 A 3.724 3.724 0 0 0 189.801 16.156 A 3.167 3.167 0 0 0 191.1 15.3 A 3.581 3.581 0 0 0 191.996 13.467 A 5.074 5.074 0 0 0 192.075 12.55 L 192.075 6.5 Q 192.075 6.161 192.184 5.937 A 0.733 0.733 0 0 1 192.338 5.725 A 0.842 0.842 0 0 1 192.671 5.534 Q 192.858 5.475 193.1 5.475 A 1.449 1.449 0 0 1 193.395 5.503 Q 193.575 5.541 193.713 5.628 A 0.803 0.803 0 0 1 193.838 5.725 Q 194.049 5.927 194.09 6.307 A 1.804 1.804 0 0 1 194.1 6.5 L 194.1 16.925 A 1.64 1.64 0 0 1 194.055 17.328 Q 193.922 17.851 193.396 17.951 A 1.45 1.45 0 0 1 193.125 17.975 A 1.316 1.316 0 0 1 192.824 17.943 Q 192.589 17.887 192.426 17.738 A 0.83 0.83 0 0 1 192.388 17.7 Q 192.148 17.449 192.127 17.012 A 1.794 1.794 0 0 1 192.125 16.925 L 192.125 14.65 L 192.45 15 A 4.875 4.875 0 0 1 191.842 16.228 A 3.968 3.968 0 0 1 190.813 17.25 Q 189.675 18.025 188.175 18.025 A 6.67 6.67 0 0 1 187.141 17.949 Q 186.59 17.863 186.133 17.677 A 3.573 3.573 0 0 1 185.738 17.488 A 3.355 3.355 0 0 1 184.352 16.011 A 4.158 4.158 0 0 1 184.288 15.875 A 5.044 5.044 0 0 1 183.946 14.793 Q 183.8 14.075 183.8 13.2 Z M 199.625 14.9 L 199.9 14.625 L 199.9 16.925 A 1.535 1.535 0 0 1 199.872 17.229 Q 199.814 17.515 199.638 17.7 A 0.857 0.857 0 0 1 199.208 17.941 Q 199.071 17.974 198.91 17.975 A 1.628 1.628 0 0 1 198.9 17.975 A 1.445 1.445 0 0 1 198.612 17.948 Q 198.322 17.889 198.15 17.7 A 0.901 0.901 0 0 1 197.955 17.344 Q 197.914 17.206 197.904 17.04 A 1.848 1.848 0 0 1 197.9 16.925 L 197.9 1.025 A 1.605 1.605 0 0 1 197.924 0.736 Q 197.955 0.571 198.022 0.442 A 0.789 0.789 0 0 1 198.15 0.263 A 0.787 0.787 0 0 1 198.486 0.058 Q 198.666 0 198.9 0 Q 199.346 0 199.616 0.232 A 0.875 0.875 0 0 1 199.65 0.263 A 0.842 0.842 0 0 1 199.876 0.645 Q 199.915 0.781 199.923 0.944 A 1.715 1.715 0 0 1 199.925 1.025 L 199.925 8.475 L 199.625 8.475 Q 200.05 7.075 201.225 6.25 A 4.512 4.512 0 0 1 203.207 5.483 A 5.919 5.919 0 0 1 204.05 5.425 A 5.993 5.993 0 0 1 205.498 5.593 A 4.712 4.712 0 0 1 206.9 6.188 A 4.906 4.906 0 0 1 208.542 7.937 A 6.06 6.06 0 0 1 208.763 8.363 Q 209.425 9.775 209.425 11.725 Q 209.425 13.633 208.774 15.038 A 5.962 5.962 0 0 1 208.763 15.063 A 5.395 5.395 0 0 1 207.782 16.515 A 4.84 4.84 0 0 1 206.888 17.25 A 4.918 4.918 0 0 1 204.789 17.982 A 6.26 6.26 0 0 1 204.05 18.025 A 5.357 5.357 0 0 1 202.571 17.829 A 4.39 4.39 0 0 1 201.213 17.175 Q 200.025 16.325 199.625 14.9 Z M 151.425 12.775 L 149.15 12.275 A 6.697 6.697 0 0 1 148.245 12.026 Q 147.764 11.853 147.391 11.618 A 3.014 3.014 0 0 1 146.813 11.15 Q 146.05 10.35 146.05 9.075 A 3.609 3.609 0 0 1 146.188 8.059 A 2.992 2.992 0 0 1 146.638 7.138 A 3.533 3.533 0 0 1 147.676 6.192 A 4.618 4.618 0 0 1 148.3 5.875 Q 149.375 5.425 150.8 5.425 A 7.546 7.546 0 0 1 152.576 5.63 A 6.93 6.93 0 0 1 152.888 5.713 Q 153.875 6 154.675 6.625 A 1.068 1.068 0 0 1 154.857 6.783 A 0.781 0.781 0 0 1 155.013 7.038 Q 155.064 7.176 155.064 7.315 A 0.775 0.775 0 0 1 155.038 7.513 Q 154.975 7.75 154.8 7.913 A 0.71 0.71 0 0 1 154.379 8.1 A 0.87 0.87 0 0 1 154.375 8.1 Q 154.141 8.123 153.885 7.972 A 1.318 1.318 0 0 1 153.85 7.95 A 6.167 6.167 0 0 0 152.855 7.407 A 5.287 5.287 0 0 0 152.325 7.213 Q 151.55 6.975 150.8 6.975 Q 149.4 6.975 148.675 7.525 A 1.856 1.856 0 0 0 148.17 8.09 Q 147.957 8.467 147.95 8.943 A 2.212 2.212 0 0 0 147.95 8.975 Q 147.95 9.675 148.4 10.125 A 1.869 1.869 0 0 0 148.838 10.444 Q 149.058 10.563 149.335 10.652 A 4.529 4.529 0 0 0 149.8 10.775 L 152.075 11.25 A 7.786 7.786 0 0 1 153.054 11.524 Q 153.539 11.697 153.92 11.923 A 3.371 3.371 0 0 1 154.513 12.363 A 2.525 2.525 0 0 1 155.28 13.845 A 3.62 3.62 0 0 1 155.325 14.425 A 3.295 3.295 0 0 1 155.058 15.771 Q 154.75 16.467 154.09 16.982 A 3.989 3.989 0 0 1 154 17.05 A 4.703 4.703 0 0 1 152.415 17.793 Q 151.766 17.967 150.999 18.011 A 9.234 9.234 0 0 1 150.475 18.025 Q 149.35 18.025 148.213 17.75 Q 147.075 17.475 146.1 16.8 A 1.134 1.134 0 0 1 145.905 16.629 A 0.862 0.862 0 0 1 145.75 16.388 Q 145.677 16.215 145.677 16.042 A 0.829 0.829 0 0 1 145.688 15.913 Q 145.725 15.675 145.888 15.5 Q 146.05 15.325 146.288 15.288 Q 146.525 15.25 146.825 15.4 A 8.136 8.136 0 0 0 147.77 15.903 A 6.059 6.059 0 0 0 148.713 16.238 Q 149.625 16.475 150.525 16.475 A 6.194 6.194 0 0 0 151.309 16.429 Q 151.697 16.379 152.014 16.276 A 2.365 2.365 0 0 0 152.675 15.95 A 1.762 1.762 0 0 0 153.183 15.397 Q 153.4 15.017 153.4 14.525 A 1.664 1.664 0 0 0 153.328 14.022 A 1.321 1.321 0 0 0 152.925 13.413 A 2.036 2.036 0 0 0 152.533 13.151 Q 152.098 12.923 151.425 12.775 Z M 59.35 21.45 L 59.35 6.5 A 1.605 1.605 0 0 1 59.374 6.211 Q 59.405 6.046 59.472 5.917 A 0.789 0.789 0 0 1 59.6 5.738 A 0.803 0.803 0 0 1 59.97 5.52 Q 60.128 5.475 60.325 5.475 A 1.523 1.523 0 0 1 60.621 5.502 Q 60.792 5.536 60.924 5.613 A 0.788 0.788 0 0 1 61.088 5.738 A 0.842 0.842 0 0 1 61.296 6.096 Q 61.337 6.229 61.347 6.39 A 1.758 1.758 0 0 1 61.35 6.5 L 61.35 8.875 L 61.075 8.525 Q 61.475 7.1 62.663 6.263 A 4.565 4.565 0 0 1 64.752 5.471 A 5.92 5.92 0 0 1 65.5 5.425 Q 67.125 5.425 68.338 6.188 A 4.906 4.906 0 0 1 70.035 8.014 A 6.032 6.032 0 0 1 70.213 8.363 Q 70.875 9.775 70.875 11.725 Q 70.875 13.633 70.224 15.038 A 5.962 5.962 0 0 1 70.213 15.063 A 5.47 5.47 0 0 1 69.269 16.481 A 4.835 4.835 0 0 1 68.35 17.25 Q 67.15 18.025 65.5 18.025 Q 63.85 18.025 62.675 17.188 Q 61.5 16.35 61.075 14.95 L 61.375 14.95 L 61.375 21.45 Q 61.375 21.829 61.217 22.071 A 0.791 0.791 0 0 1 61.1 22.213 Q 60.825 22.475 60.35 22.475 A 1.513 1.513 0 0 1 60.064 22.45 Q 59.772 22.394 59.6 22.213 A 0.842 0.842 0 0 1 59.409 21.879 Q 59.35 21.692 59.35 21.45 Z M 29.075 13.6 L 29.075 7.225 L 27.4 7.225 A 1.36 1.36 0 0 1 27.148 7.203 Q 27.006 7.176 26.896 7.117 A 0.677 0.677 0 0 1 26.75 7.013 A 0.698 0.698 0 0 1 26.546 6.638 A 1.035 1.035 0 0 1 26.525 6.425 A 0.998 0.998 0 0 1 26.55 6.193 A 0.647 0.647 0 0 1 26.75 5.85 Q 26.975 5.65 27.4 5.65 L 29.075 5.65 L 29.075 2.775 Q 29.075 2.396 29.233 2.154 A 0.791 0.791 0 0 1 29.35 2.013 Q 29.625 1.75 30.1 1.75 A 1.379 1.379 0 0 1 30.398 1.78 Q 30.594 1.824 30.739 1.929 A 0.809 0.809 0 0 1 30.838 2.013 A 0.842 0.842 0 0 1 31.046 2.371 Q 31.087 2.504 31.097 2.665 A 1.758 1.758 0 0 1 31.1 2.775 L 31.1 5.65 L 34.25 5.65 Q 34.675 5.65 34.9 5.85 A 0.647 0.647 0 0 1 35.1 6.193 A 0.998 0.998 0 0 1 35.125 6.425 A 1.005 1.005 0 0 1 35.097 6.671 A 0.691 0.691 0 0 1 34.9 7.013 A 0.724 0.724 0 0 1 34.615 7.175 Q 34.456 7.225 34.25 7.225 L 31.1 7.225 L 31.1 13.4 A 5.422 5.422 0 0 0 31.156 14.205 Q 31.283 15.05 31.7 15.563 Q 32.203 16.18 33.231 16.281 A 4.317 4.317 0 0 0 33.65 16.3 A 3.826 3.826 0 0 0 33.987 16.286 Q 34.167 16.27 34.322 16.236 A 2.008 2.008 0 0 0 34.463 16.2 A 3.217 3.217 0 0 1 34.662 16.147 Q 34.766 16.124 34.857 16.112 A 1.305 1.305 0 0 1 35.025 16.1 Q 35.235 16.077 35.379 16.227 A 0.543 0.543 0 0 1 35.4 16.25 Q 35.55 16.425 35.55 16.85 Q 35.55 17.15 35.438 17.4 Q 35.325 17.65 35.05 17.75 A 3.687 3.687 0 0 1 34.822 17.817 Q 34.702 17.849 34.562 17.879 A 8.954 8.954 0 0 1 34.263 17.938 A 5.969 5.969 0 0 1 33.811 18.002 Q 33.585 18.025 33.381 18.025 A 3.719 3.719 0 0 1 33.375 18.025 A 6.57 6.57 0 0 1 32.332 17.947 Q 31.574 17.825 30.988 17.513 Q 30.025 17 29.55 16.013 Q 29.12 15.119 29.079 13.867 A 8.184 8.184 0 0 1 29.075 13.6 Z M 37.25 16.925 L 37.25 6.5 A 1.605 1.605 0 0 1 37.274 6.211 Q 37.305 6.046 37.372 5.917 A 0.789 0.789 0 0 1 37.5 5.738 A 0.803 0.803 0 0 1 37.87 5.52 Q 38.028 5.475 38.225 5.475 A 1.379 1.379 0 0 1 38.523 5.505 Q 38.719 5.549 38.864 5.654 A 0.809 0.809 0 0 1 38.963 5.738 A 0.842 0.842 0 0 1 39.171 6.096 Q 39.212 6.229 39.222 6.39 A 1.758 1.758 0 0 1 39.225 6.5 L 39.225 8.525 L 38.975 8.525 A 4.433 4.433 0 0 1 39.509 7.291 A 3.727 3.727 0 0 1 40.5 6.25 Q 41.625 5.45 43.275 5.4 A 1.302 1.302 0 0 1 43.356 5.397 Q 43.675 5.396 43.875 5.563 Q 44.045 5.704 44.101 5.997 A 1.545 1.545 0 0 1 44.125 6.2 A 1.418 1.418 0 0 1 44.128 6.283 Q 44.128 6.424 44.098 6.543 A 0.761 0.761 0 0 1 43.925 6.875 A 0.802 0.802 0 0 1 43.649 7.07 Q 43.47 7.149 43.225 7.175 L 42.825 7.225 A 5.53 5.53 0 0 0 41.749 7.421 Q 41.104 7.611 40.62 7.961 A 3.104 3.104 0 0 0 40.213 8.313 A 3.112 3.112 0 0 0 39.418 9.796 Q 39.3 10.291 39.3 10.875 L 39.3 16.925 A 1.535 1.535 0 0 1 39.272 17.229 Q 39.214 17.515 39.038 17.7 A 0.842 0.842 0 0 1 38.655 17.926 Q 38.519 17.965 38.356 17.973 A 1.715 1.715 0 0 1 38.275 17.975 Q 37.896 17.975 37.654 17.817 A 0.791 0.791 0 0 1 37.513 17.7 Q 37.273 17.449 37.252 17.012 A 1.794 1.794 0 0 1 37.25 16.925 Z M 73.925 16.925 L 73.925 6.5 A 1.605 1.605 0 0 1 73.949 6.211 Q 73.98 6.046 74.047 5.917 A 0.789 0.789 0 0 1 74.175 5.738 A 0.803 0.803 0 0 1 74.545 5.52 Q 74.703 5.475 74.9 5.475 A 1.379 1.379 0 0 1 75.198 5.505 Q 75.394 5.549 75.539 5.654 A 0.809 0.809 0 0 1 75.638 5.738 A 0.842 0.842 0 0 1 75.846 6.096 Q 75.887 6.229 75.897 6.39 A 1.758 1.758 0 0 1 75.9 6.5 L 75.9 8.525 L 75.65 8.525 A 4.433 4.433 0 0 1 76.184 7.291 A 3.727 3.727 0 0 1 77.175 6.25 Q 78.3 5.45 79.95 5.4 A 1.302 1.302 0 0 1 80.031 5.397 Q 80.35 5.396 80.55 5.563 Q 80.72 5.704 80.776 5.997 A 1.545 1.545 0 0 1 80.8 6.2 A 1.418 1.418 0 0 1 80.803 6.283 Q 80.803 6.424 80.773 6.543 A 0.761 0.761 0 0 1 80.6 6.875 A 0.802 0.802 0 0 1 80.324 7.07 Q 80.145 7.149 79.9 7.175 L 79.5 7.225 A 5.53 5.53 0 0 0 78.424 7.421 Q 77.779 7.611 77.295 7.961 A 3.104 3.104 0 0 0 76.888 8.313 A 3.112 3.112 0 0 0 76.093 9.796 Q 75.975 10.291 75.975 10.875 L 75.975 16.925 A 1.535 1.535 0 0 1 75.947 17.229 Q 75.889 17.515 75.713 17.7 A 0.842 0.842 0 0 1 75.33 17.926 Q 75.194 17.965 75.031 17.973 A 1.715 1.715 0 0 1 74.95 17.975 Q 74.571 17.975 74.329 17.817 A 0.791 0.791 0 0 1 74.188 17.7 Q 73.948 17.449 73.927 17.012 A 1.794 1.794 0 0 1 73.925 16.925 Z M 137.55 16.925 L 137.55 6.5 A 1.605 1.605 0 0 1 137.574 6.211 Q 137.605 6.046 137.672 5.917 A 0.789 0.789 0 0 1 137.8 5.738 A 0.803 0.803 0 0 1 138.17 5.52 Q 138.328 5.475 138.525 5.475 A 1.379 1.379 0 0 1 138.823 5.505 Q 139.019 5.549 139.164 5.654 A 0.809 0.809 0 0 1 139.263 5.738 A 0.842 0.842 0 0 1 139.471 6.096 Q 139.512 6.229 139.522 6.39 A 1.758 1.758 0 0 1 139.525 6.5 L 139.525 8.525 L 139.275 8.525 A 4.433 4.433 0 0 1 139.809 7.291 A 3.727 3.727 0 0 1 140.8 6.25 Q 141.925 5.45 143.575 5.4 A 1.302 1.302 0 0 1 143.656 5.397 Q 143.975 5.396 144.175 5.563 Q 144.345 5.704 144.401 5.997 A 1.545 1.545 0 0 1 144.425 6.2 A 1.418 1.418 0 0 1 144.428 6.283 Q 144.428 6.424 144.398 6.543 A 0.761 0.761 0 0 1 144.225 6.875 A 0.802 0.802 0 0 1 143.949 7.07 Q 143.77 7.149 143.525 7.175 L 143.125 7.225 A 5.53 5.53 0 0 0 142.049 7.421 Q 141.404 7.611 140.92 7.961 A 3.104 3.104 0 0 0 140.513 8.313 A 3.112 3.112 0 0 0 139.718 9.796 Q 139.6 10.291 139.6 10.875 L 139.6 16.925 A 1.535 1.535 0 0 1 139.572 17.229 Q 139.514 17.515 139.338 17.7 A 0.842 0.842 0 0 1 138.955 17.926 Q 138.819 17.965 138.656 17.973 A 1.715 1.715 0 0 1 138.575 17.975 Q 138.196 17.975 137.954 17.817 A 0.791 0.791 0 0 1 137.813 17.7 Q 137.573 17.449 137.552 17.012 A 1.794 1.794 0 0 1 137.55 16.925 Z M 65.075 16.4 A 4.036 4.036 0 0 0 66.1 16.275 A 3.231 3.231 0 0 0 67.063 15.85 A 3.375 3.375 0 0 0 68.09 14.773 A 4.369 4.369 0 0 0 68.363 14.25 Q 68.789 13.282 68.822 11.953 A 9.096 9.096 0 0 0 68.825 11.725 Q 68.825 9.45 67.813 8.25 A 3.315 3.315 0 0 0 65.444 7.064 A 4.643 4.643 0 0 0 65.075 7.05 A 3.983 3.983 0 0 0 63.973 7.197 A 3.353 3.353 0 0 0 63.1 7.588 A 3.316 3.316 0 0 0 62.026 8.704 A 4.239 4.239 0 0 0 61.788 9.163 A 4.956 4.956 0 0 0 61.459 10.223 Q 61.359 10.73 61.334 11.317 A 9.417 9.417 0 0 0 61.325 11.725 A 7.924 7.924 0 0 0 61.43 13.06 Q 61.552 13.773 61.816 14.342 A 3.725 3.725 0 0 0 62.35 15.188 Q 63.375 16.4 65.075 16.4 Z M 203.625 16.4 A 4.036 4.036 0 0 0 204.65 16.275 A 3.231 3.231 0 0 0 205.613 15.85 A 3.375 3.375 0 0 0 206.64 14.773 A 4.369 4.369 0 0 0 206.913 14.25 Q 207.339 13.282 207.372 11.953 A 9.096 9.096 0 0 0 207.375 11.725 Q 207.375 9.45 206.363 8.25 A 3.315 3.315 0 0 0 203.994 7.064 A 4.643 4.643 0 0 0 203.625 7.05 A 3.983 3.983 0 0 0 202.523 7.197 A 3.353 3.353 0 0 0 201.65 7.588 A 3.316 3.316 0 0 0 200.576 8.704 A 4.239 4.239 0 0 0 200.338 9.163 A 4.956 4.956 0 0 0 200.009 10.223 Q 199.909 10.73 199.884 11.317 A 9.417 9.417 0 0 0 199.875 11.725 A 7.924 7.924 0 0 0 199.98 13.06 Q 200.102 13.773 200.366 14.342 A 3.725 3.725 0 0 0 200.9 15.188 Q 201.925 16.4 203.625 16.4 Z" vector-effect="non-scaling-stroke"/></g></svg>