<svg width="167.884" height="17.081" viewBox="0 0 167.884 17.081" xmlns="http://www.w3.org/2000/svg"><g id="svgGroup" stroke-linecap="round" fill-rule="evenodd" font-size="9pt" stroke="#ffffff" stroke-width="0mm" fill="#ffffff" style="stroke:#ffffff;stroke-width:0mm;fill:#ffffff"><path d="M 7.923 13.528 L 0.855 13.528 A 1.277 1.277 0 0 1 0.608 13.506 Q 0.465 13.477 0.354 13.414 A 0.654 0.654 0 0 1 0.219 13.31 A 0.699 0.699 0 0 1 0.046 13.013 Q 0.012 12.903 0.003 12.769 A 1.47 1.47 0 0 1 0 12.673 L 0 0.988 A 1.277 1.277 0 0 1 0.022 0.741 Q 0.051 0.598 0.115 0.487 A 0.654 0.654 0 0 1 0.219 0.352 A 0.699 0.699 0 0 1 0.515 0.179 Q 0.625 0.145 0.759 0.136 A 1.47 1.47 0 0 1 0.855 0.133 L 7.923 0.133 Q 8.162 0.133 8.318 0.227 A 0.514 0.514 0 0 1 8.417 0.304 A 0.563 0.563 0 0 1 8.565 0.574 Q 8.587 0.662 8.588 0.765 A 1.065 1.065 0 0 1 8.588 0.779 Q 8.588 1.018 8.494 1.174 A 0.514 0.514 0 0 1 8.417 1.273 Q 8.246 1.444 7.923 1.444 L 1.52 1.444 L 1.52 6.08 L 7.524 6.08 A 1.034 1.034 0 0 1 7.715 6.097 Q 7.902 6.132 8.018 6.242 Q 8.165 6.381 8.186 6.639 A 1.1 1.1 0 0 1 8.189 6.726 Q 8.189 6.965 8.095 7.121 A 0.514 0.514 0 0 1 8.018 7.22 Q 7.847 7.391 7.524 7.391 L 1.52 7.391 L 1.52 12.217 L 7.923 12.217 Q 8.162 12.217 8.318 12.311 A 0.514 0.514 0 0 1 8.417 12.388 A 0.563 0.563 0 0 1 8.565 12.658 Q 8.587 12.746 8.588 12.849 A 1.065 1.065 0 0 1 8.588 12.863 Q 8.588 13.102 8.494 13.258 A 0.514 0.514 0 0 1 8.417 13.357 Q 8.246 13.528 7.923 13.528 Z M 42.218 9.234 L 35.606 9.234 L 35.606 8.227 L 41.857 8.227 L 41.553 8.474 A 5.771 5.771 0 0 0 41.505 7.706 Q 41.451 7.308 41.338 6.971 A 3.148 3.148 0 0 0 41.249 6.736 A 2.634 2.634 0 0 0 40.864 6.091 A 2.215 2.215 0 0 0 40.366 5.643 A 2.231 2.231 0 0 0 39.62 5.336 Q 39.294 5.263 38.912 5.263 A 3.501 3.501 0 0 0 38.134 5.345 A 2.597 2.597 0 0 0 37.269 5.71 A 2.74 2.74 0 0 0 36.285 6.871 A 3.3 3.3 0 0 0 36.252 6.945 A 4.026 4.026 0 0 0 35.975 7.913 A 5.463 5.463 0 0 0 35.91 8.778 L 35.91 8.892 A 5.786 5.786 0 0 0 35.993 9.903 Q 36.092 10.461 36.31 10.901 A 2.742 2.742 0 0 0 36.756 11.552 A 2.746 2.746 0 0 0 38.152 12.351 Q 38.597 12.461 39.125 12.464 A 5.287 5.287 0 0 0 39.159 12.464 Q 39.805 12.464 40.442 12.293 A 4.154 4.154 0 0 0 41.409 11.892 A 4.898 4.898 0 0 0 41.686 11.723 A 1.288 1.288 0 0 1 41.851 11.632 Q 42.022 11.555 42.171 11.562 A 0.665 0.665 0 0 1 42.328 11.586 A 0.476 0.476 0 0 1 42.522 11.695 Q 42.655 11.818 42.703 11.999 A 0.519 0.519 0 0 1 42.719 12.131 Q 42.719 12.204 42.7 12.281 A 0.799 0.799 0 0 1 42.665 12.388 Q 42.584 12.584 42.362 12.73 A 1.219 1.219 0 0 1 42.332 12.749 A 4.398 4.398 0 0 1 41.411 13.258 A 5.482 5.482 0 0 1 40.85 13.452 A 6.14 6.14 0 0 1 39.368 13.695 A 5.686 5.686 0 0 1 39.159 13.699 Q 37.696 13.699 36.642 13.12 Q 35.587 12.54 35.008 11.476 Q 34.428 10.412 34.428 8.93 A 6.175 6.175 0 0 1 34.553 7.658 A 4.705 4.705 0 0 1 34.998 6.413 Q 35.568 5.339 36.566 4.731 A 4.167 4.167 0 0 1 38.306 4.153 A 5.239 5.239 0 0 1 38.874 4.123 A 4.75 4.75 0 0 1 39.81 4.212 A 3.806 3.806 0 0 1 40.546 4.437 Q 41.287 4.75 41.81 5.339 A 3.835 3.835 0 0 1 42.454 6.361 A 4.659 4.659 0 0 1 42.608 6.764 A 5.392 5.392 0 0 1 42.837 7.823 A 7.028 7.028 0 0 1 42.883 8.645 Q 42.883 8.849 42.806 8.98 A 0.42 0.42 0 0 1 42.712 9.092 A 0.555 0.555 0 0 1 42.526 9.191 Q 42.444 9.218 42.345 9.228 A 1.265 1.265 0 0 1 42.218 9.234 Z M 70.091 9.234 L 63.479 9.234 L 63.479 8.227 L 69.73 8.227 L 69.426 8.474 A 5.771 5.771 0 0 0 69.378 7.706 Q 69.324 7.308 69.211 6.971 A 3.148 3.148 0 0 0 69.122 6.736 A 2.634 2.634 0 0 0 68.737 6.091 A 2.215 2.215 0 0 0 68.239 5.643 A 2.231 2.231 0 0 0 67.493 5.336 Q 67.167 5.263 66.785 5.263 A 3.501 3.501 0 0 0 66.007 5.345 A 2.597 2.597 0 0 0 65.142 5.71 A 2.74 2.74 0 0 0 64.158 6.871 A 3.3 3.3 0 0 0 64.125 6.945 A 4.026 4.026 0 0 0 63.848 7.913 A 5.463 5.463 0 0 0 63.783 8.778 L 63.783 8.892 A 5.786 5.786 0 0 0 63.866 9.903 Q 63.965 10.461 64.183 10.901 A 2.742 2.742 0 0 0 64.629 11.552 A 2.746 2.746 0 0 0 66.025 12.351 Q 66.47 12.461 66.998 12.464 A 5.287 5.287 0 0 0 67.032 12.464 Q 67.678 12.464 68.315 12.293 A 4.154 4.154 0 0 0 69.282 11.892 A 4.898 4.898 0 0 0 69.559 11.723 A 1.288 1.288 0 0 1 69.724 11.632 Q 69.895 11.555 70.044 11.562 A 0.665 0.665 0 0 1 70.201 11.586 A 0.476 0.476 0 0 1 70.395 11.695 Q 70.528 11.818 70.576 11.999 A 0.519 0.519 0 0 1 70.592 12.131 Q 70.592 12.204 70.573 12.281 A 0.799 0.799 0 0 1 70.538 12.388 Q 70.457 12.584 70.235 12.73 A 1.219 1.219 0 0 1 70.205 12.749 A 4.398 4.398 0 0 1 69.284 13.258 A 5.482 5.482 0 0 1 68.723 13.452 A 6.14 6.14 0 0 1 67.241 13.695 A 5.686 5.686 0 0 1 67.032 13.699 Q 65.569 13.699 64.515 13.12 Q 63.46 12.54 62.881 11.476 Q 62.301 10.412 62.301 8.93 A 6.175 6.175 0 0 1 62.426 7.658 A 4.705 4.705 0 0 1 62.871 6.413 Q 63.441 5.339 64.439 4.731 A 4.167 4.167 0 0 1 66.179 4.153 A 5.239 5.239 0 0 1 66.747 4.123 A 4.75 4.75 0 0 1 67.683 4.212 A 3.806 3.806 0 0 1 68.419 4.437 Q 69.16 4.75 69.683 5.339 A 3.835 3.835 0 0 1 70.327 6.361 A 4.659 4.659 0 0 1 70.481 6.764 A 5.392 5.392 0 0 1 70.71 7.823 A 7.028 7.028 0 0 1 70.756 8.645 Q 70.756 8.849 70.679 8.98 A 0.42 0.42 0 0 1 70.585 9.092 A 0.555 0.555 0 0 1 70.399 9.191 Q 70.317 9.218 70.218 9.228 A 1.265 1.265 0 0 1 70.091 9.234 Z M 90.991 9.234 L 84.379 9.234 L 84.379 8.227 L 90.63 8.227 L 90.326 8.474 A 5.771 5.771 0 0 0 90.278 7.706 Q 90.224 7.308 90.111 6.971 A 3.148 3.148 0 0 0 90.022 6.736 A 2.634 2.634 0 0 0 89.637 6.091 A 2.215 2.215 0 0 0 89.139 5.643 A 2.231 2.231 0 0 0 88.393 5.336 Q 88.067 5.263 87.685 5.263 A 3.501 3.501 0 0 0 86.907 5.345 A 2.597 2.597 0 0 0 86.042 5.71 A 2.74 2.74 0 0 0 85.058 6.871 A 3.3 3.3 0 0 0 85.025 6.945 A 4.026 4.026 0 0 0 84.748 7.913 A 5.463 5.463 0 0 0 84.683 8.778 L 84.683 8.892 A 5.786 5.786 0 0 0 84.766 9.903 Q 84.865 10.461 85.083 10.901 A 2.742 2.742 0 0 0 85.529 11.552 A 2.746 2.746 0 0 0 86.925 12.351 Q 87.37 12.461 87.898 12.464 A 5.287 5.287 0 0 0 87.932 12.464 Q 88.578 12.464 89.215 12.293 A 4.154 4.154 0 0 0 90.182 11.892 A 4.898 4.898 0 0 0 90.459 11.723 A 1.288 1.288 0 0 1 90.624 11.632 Q 90.795 11.555 90.944 11.562 A 0.665 0.665 0 0 1 91.101 11.586 A 0.476 0.476 0 0 1 91.295 11.695 Q 91.428 11.818 91.476 11.999 A 0.519 0.519 0 0 1 91.492 12.131 Q 91.492 12.204 91.473 12.281 A 0.799 0.799 0 0 1 91.438 12.388 Q 91.357 12.584 91.135 12.73 A 1.219 1.219 0 0 1 91.105 12.749 A 4.398 4.398 0 0 1 90.184 13.258 A 5.482 5.482 0 0 1 89.623 13.452 A 6.14 6.14 0 0 1 88.141 13.695 A 5.686 5.686 0 0 1 87.932 13.699 Q 86.469 13.699 85.415 13.12 Q 84.36 12.54 83.781 11.476 Q 83.201 10.412 83.201 8.93 A 6.175 6.175 0 0 1 83.326 7.658 A 4.705 4.705 0 0 1 83.771 6.413 Q 84.341 5.339 85.339 4.731 A 4.167 4.167 0 0 1 87.079 4.153 A 5.239 5.239 0 0 1 87.647 4.123 A 4.75 4.75 0 0 1 88.583 4.212 A 3.806 3.806 0 0 1 89.319 4.437 Q 90.06 4.75 90.583 5.339 A 3.835 3.835 0 0 1 91.227 6.361 A 4.659 4.659 0 0 1 91.381 6.764 A 5.392 5.392 0 0 1 91.61 7.823 A 7.028 7.028 0 0 1 91.656 8.645 Q 91.656 8.849 91.579 8.98 A 0.42 0.42 0 0 1 91.485 9.092 A 0.555 0.555 0 0 1 91.299 9.191 Q 91.217 9.218 91.118 9.228 A 1.265 1.265 0 0 1 90.991 9.234 Z M 167.219 9.234 L 160.607 9.234 L 160.607 8.227 L 166.858 8.227 L 166.554 8.474 A 5.771 5.771 0 0 0 166.506 7.706 Q 166.452 7.308 166.339 6.971 A 3.148 3.148 0 0 0 166.25 6.736 A 2.634 2.634 0 0 0 165.865 6.091 A 2.215 2.215 0 0 0 165.367 5.643 A 2.231 2.231 0 0 0 164.621 5.336 Q 164.295 5.263 163.913 5.263 A 3.501 3.501 0 0 0 163.135 5.345 A 2.597 2.597 0 0 0 162.27 5.71 A 2.74 2.74 0 0 0 161.286 6.871 A 3.3 3.3 0 0 0 161.253 6.945 A 4.026 4.026 0 0 0 160.976 7.913 A 5.463 5.463 0 0 0 160.911 8.778 L 160.911 8.892 A 5.786 5.786 0 0 0 160.994 9.903 Q 161.093 10.461 161.311 10.901 A 2.742 2.742 0 0 0 161.757 11.552 A 2.746 2.746 0 0 0 163.153 12.351 Q 163.598 12.461 164.126 12.464 A 5.287 5.287 0 0 0 164.16 12.464 Q 164.806 12.464 165.443 12.293 A 4.154 4.154 0 0 0 166.41 11.892 A 4.898 4.898 0 0 0 166.687 11.723 A 1.288 1.288 0 0 1 166.852 11.632 Q 167.023 11.555 167.172 11.562 A 0.665 0.665 0 0 1 167.329 11.586 A 0.476 0.476 0 0 1 167.523 11.695 Q 167.656 11.818 167.704 11.999 A 0.519 0.519 0 0 1 167.72 12.131 Q 167.72 12.204 167.701 12.281 A 0.799 0.799 0 0 1 167.666 12.388 Q 167.585 12.584 167.363 12.73 A 1.219 1.219 0 0 1 167.333 12.749 A 4.398 4.398 0 0 1 166.412 13.258 A 5.482 5.482 0 0 1 165.851 13.452 A 6.14 6.14 0 0 1 164.369 13.695 A 5.686 5.686 0 0 1 164.16 13.699 Q 162.697 13.699 161.643 13.12 Q 160.588 12.54 160.009 11.476 Q 159.429 10.412 159.429 8.93 A 6.175 6.175 0 0 1 159.554 7.658 A 4.705 4.705 0 0 1 159.999 6.413 Q 160.569 5.339 161.567 4.731 A 4.167 4.167 0 0 1 163.307 4.153 A 5.239 5.239 0 0 1 163.875 4.123 A 4.75 4.75 0 0 1 164.811 4.212 A 3.806 3.806 0 0 1 165.547 4.437 Q 166.288 4.75 166.811 5.339 A 3.835 3.835 0 0 1 167.455 6.361 A 4.659 4.659 0 0 1 167.609 6.764 A 5.392 5.392 0 0 1 167.838 7.823 A 7.028 7.028 0 0 1 167.884 8.645 Q 167.884 8.849 167.807 8.98 A 0.42 0.42 0 0 1 167.713 9.092 A 0.555 0.555 0 0 1 167.527 9.191 Q 167.445 9.218 167.346 9.228 A 1.265 1.265 0 0 1 167.219 9.234 Z M 146.452 8.17 L 147.307 8.17 L 147.307 9.177 L 146.471 9.177 Q 145.044 9.177 144.18 9.3 A 7.045 7.045 0 0 0 144.049 9.32 A 4.506 4.506 0 0 0 143.605 9.412 Q 143.069 9.556 142.814 9.804 A 1.111 1.111 0 0 0 142.516 10.327 Q 142.469 10.503 142.463 10.712 A 2.164 2.164 0 0 0 142.462 10.773 A 1.824 1.824 0 0 0 142.569 11.41 A 1.607 1.607 0 0 0 143.004 12.046 A 1.816 1.816 0 0 0 143.796 12.462 Q 144.076 12.533 144.407 12.539 A 3.428 3.428 0 0 0 144.476 12.54 A 2.716 2.716 0 0 0 145.233 12.438 A 2.308 2.308 0 0 0 145.816 12.179 Q 146.395 11.818 146.728 11.191 A 2.837 2.837 0 0 0 147.028 10.239 A 3.62 3.62 0 0 0 147.06 9.747 L 147.06 7.581 Q 147.06 6.403 146.585 5.881 Q 146.224 5.483 145.511 5.388 A 3.665 3.665 0 0 0 145.027 5.358 Q 144.362 5.358 143.697 5.529 A 5.968 5.968 0 0 0 142.969 5.77 A 7.987 7.987 0 0 0 142.291 6.08 A 1.146 1.146 0 0 1 142.161 6.136 Q 141.977 6.201 141.835 6.166 Q 141.645 6.118 141.531 5.966 A 0.68 0.68 0 0 1 141.399 5.621 A 0.807 0.807 0 0 1 141.398 5.615 A 0.645 0.645 0 0 1 141.395 5.553 Q 141.395 5.386 141.484 5.225 Q 141.588 5.035 141.816 4.921 Q 142.652 4.503 143.469 4.313 A 7.386 7.386 0 0 1 144.461 4.15 A 6.143 6.143 0 0 1 145.027 4.123 A 6.056 6.056 0 0 1 145.858 4.177 Q 146.513 4.268 147.003 4.513 Q 147.782 4.902 148.162 5.691 A 3.46 3.46 0 0 1 148.415 6.435 Q 148.494 6.788 148.524 7.2 A 7.133 7.133 0 0 1 148.542 7.714 L 148.542 12.863 A 1.286 1.286 0 0 1 148.523 13.094 Q 148.483 13.312 148.362 13.452 A 0.582 0.582 0 0 1 148.046 13.639 A 0.896 0.896 0 0 1 147.839 13.661 Q 147.547 13.661 147.367 13.524 A 0.582 0.582 0 0 1 147.288 13.452 A 0.685 0.685 0 0 1 147.14 13.182 Q 147.109 13.076 147.101 12.95 A 1.405 1.405 0 0 1 147.098 12.863 L 147.098 11.381 L 147.269 11.381 A 2.991 2.991 0 0 1 146.994 12.16 A 2.595 2.595 0 0 1 146.69 12.616 Q 146.262 13.129 145.635 13.414 A 3.185 3.185 0 0 1 144.655 13.676 A 3.936 3.936 0 0 1 144.229 13.699 A 4.187 4.187 0 0 1 143.276 13.594 A 3.454 3.454 0 0 1 142.529 13.329 A 3.131 3.131 0 0 1 141.679 12.724 A 2.88 2.88 0 0 1 141.341 12.312 Q 140.904 11.666 140.904 10.868 Q 140.904 10.045 141.241 9.503 A 1.831 1.831 0 0 1 141.427 9.253 Q 141.802 8.83 142.529 8.584 A 5.21 5.21 0 0 1 143.156 8.417 A 9.741 9.741 0 0 1 143.996 8.287 Q 144.872 8.186 146.056 8.172 A 33.242 33.242 0 0 1 146.452 8.17 Z M 10.868 12.863 L 10.868 4.94 A 1.22 1.22 0 0 1 10.887 4.72 Q 10.91 4.595 10.961 4.497 A 0.6 0.6 0 0 1 11.058 4.361 Q 11.248 4.161 11.609 4.161 Q 11.907 4.161 12.095 4.297 A 0.615 0.615 0 0 1 12.17 4.361 Q 12.346 4.537 12.366 4.856 A 1.336 1.336 0 0 1 12.369 4.94 L 12.369 6.574 L 12.16 6.346 Q 12.559 5.244 13.462 4.684 A 3.736 3.736 0 0 1 15.11 4.143 A 4.649 4.649 0 0 1 15.542 4.123 A 5.049 5.049 0 0 1 16.316 4.179 Q 16.747 4.246 17.103 4.392 A 2.761 2.761 0 0 1 17.376 4.522 A 2.468 2.468 0 0 1 18.439 5.666 A 3.053 3.053 0 0 1 18.468 5.729 A 3.768 3.768 0 0 1 18.712 6.501 Q 18.791 6.881 18.816 7.324 A 7.664 7.664 0 0 1 18.829 7.771 L 18.829 12.863 Q 18.829 13.153 18.713 13.344 A 0.638 0.638 0 0 1 18.63 13.452 A 0.652 0.652 0 0 1 18.303 13.635 Q 18.199 13.66 18.077 13.661 A 1.239 1.239 0 0 1 18.069 13.661 A 1.103 1.103 0 0 1 17.842 13.639 Q 17.702 13.61 17.597 13.541 A 0.601 0.601 0 0 1 17.49 13.452 Q 17.308 13.262 17.292 12.929 A 1.364 1.364 0 0 1 17.29 12.863 L 17.29 7.866 A 5.265 5.265 0 0 0 17.25 7.194 Q 17.156 6.463 16.837 6.04 A 1.503 1.503 0 0 0 16.787 5.976 Q 16.283 5.377 15.181 5.377 A 3.321 3.321 0 0 0 14.3 5.488 A 2.436 2.436 0 0 0 13.158 6.166 Q 12.407 6.954 12.407 8.265 L 12.407 12.863 A 1.182 1.182 0 0 1 12.37 13.174 Q 12.273 13.53 11.922 13.626 A 1.115 1.115 0 0 1 11.628 13.661 A 1.098 1.098 0 0 1 11.409 13.641 Q 11.282 13.615 11.184 13.556 A 0.565 0.565 0 0 1 11.058 13.452 A 0.685 0.685 0 0 1 10.91 13.182 Q 10.879 13.076 10.871 12.95 A 1.405 1.405 0 0 1 10.868 12.863 Z M 72.979 12.863 L 72.979 4.94 A 1.22 1.22 0 0 1 72.998 4.72 Q 73.021 4.595 73.072 4.497 A 0.6 0.6 0 0 1 73.169 4.361 Q 73.359 4.161 73.72 4.161 Q 74.018 4.161 74.206 4.297 A 0.615 0.615 0 0 1 74.281 4.361 Q 74.457 4.537 74.477 4.856 A 1.336 1.336 0 0 1 74.48 4.94 L 74.48 6.574 L 74.271 6.346 Q 74.67 5.244 75.573 4.684 A 3.736 3.736 0 0 1 77.221 4.143 A 4.649 4.649 0 0 1 77.653 4.123 A 5.049 5.049 0 0 1 78.427 4.179 Q 78.858 4.246 79.214 4.392 A 2.761 2.761 0 0 1 79.487 4.522 A 2.468 2.468 0 0 1 80.55 5.666 A 3.053 3.053 0 0 1 80.579 5.729 A 3.768 3.768 0 0 1 80.823 6.501 Q 80.902 6.881 80.927 7.324 A 7.664 7.664 0 0 1 80.94 7.771 L 80.94 12.863 Q 80.94 13.153 80.824 13.344 A 0.638 0.638 0 0 1 80.741 13.452 A 0.652 0.652 0 0 1 80.414 13.635 Q 80.31 13.66 80.188 13.661 A 1.239 1.239 0 0 1 80.18 13.661 A 1.103 1.103 0 0 1 79.953 13.639 Q 79.813 13.61 79.708 13.541 A 0.601 0.601 0 0 1 79.601 13.452 Q 79.419 13.262 79.403 12.929 A 1.364 1.364 0 0 1 79.401 12.863 L 79.401 7.866 A 5.265 5.265 0 0 0 79.361 7.194 Q 79.267 6.463 78.948 6.04 A 1.503 1.503 0 0 0 78.898 5.976 Q 78.394 5.377 77.292 5.377 A 3.321 3.321 0 0 0 76.411 5.488 A 2.436 2.436 0 0 0 75.269 6.166 Q 74.518 6.954 74.518 8.265 L 74.518 12.863 A 1.182 1.182 0 0 1 74.481 13.174 Q 74.384 13.53 74.033 13.626 A 1.115 1.115 0 0 1 73.739 13.661 A 1.098 1.098 0 0 1 73.52 13.641 Q 73.393 13.615 73.295 13.556 A 0.565 0.565 0 0 1 73.169 13.452 A 0.685 0.685 0 0 1 73.021 13.182 Q 72.99 13.076 72.982 12.95 A 1.405 1.405 0 0 1 72.979 12.863 Z M 93.822 10.032 L 93.822 4.94 A 1.265 1.265 0 0 1 93.84 4.722 Q 93.86 4.604 93.905 4.512 A 0.557 0.557 0 0 1 94.022 4.351 A 0.654 0.654 0 0 1 94.302 4.196 Q 94.403 4.168 94.525 4.162 A 1.3 1.3 0 0 1 94.582 4.161 A 1.22 1.22 0 0 1 94.802 4.18 Q 94.927 4.203 95.025 4.254 A 0.6 0.6 0 0 1 95.162 4.351 Q 95.322 4.504 95.354 4.794 A 1.371 1.371 0 0 1 95.361 4.94 L 95.361 10.013 A 4.73 4.73 0 0 0 95.401 10.648 Q 95.445 10.976 95.54 11.243 A 1.863 1.863 0 0 0 95.865 11.828 Q 96.3 12.346 97.17 12.415 A 3.519 3.519 0 0 0 97.451 12.426 A 2.83 2.83 0 0 0 98.383 12.279 A 2.407 2.407 0 0 0 99.37 11.628 A 2.721 2.721 0 0 0 100.051 10.235 A 3.856 3.856 0 0 0 100.111 9.538 L 100.111 4.94 A 1.265 1.265 0 0 1 100.129 4.722 Q 100.149 4.604 100.194 4.512 A 0.557 0.557 0 0 1 100.311 4.351 Q 100.48 4.19 100.779 4.165 A 1.365 1.365 0 0 1 100.89 4.161 A 1.102 1.102 0 0 1 101.114 4.182 Q 101.251 4.211 101.356 4.277 A 0.61 0.61 0 0 1 101.451 4.351 Q 101.611 4.504 101.643 4.794 A 1.371 1.371 0 0 1 101.65 4.94 L 101.65 12.863 A 1.246 1.246 0 0 1 101.616 13.169 Q 101.515 13.567 101.115 13.643 A 1.102 1.102 0 0 1 100.909 13.661 A 1 1 0 0 1 100.68 13.636 Q 100.501 13.594 100.378 13.481 A 0.631 0.631 0 0 1 100.349 13.452 Q 100.167 13.262 100.151 12.929 A 1.364 1.364 0 0 1 100.149 12.863 L 100.149 11.134 L 100.396 11.4 A 3.705 3.705 0 0 1 99.934 12.333 A 3.015 3.015 0 0 1 99.152 13.11 A 3.404 3.404 0 0 1 97.428 13.69 A 4.224 4.224 0 0 1 97.147 13.699 A 5.069 5.069 0 0 1 96.361 13.642 Q 95.752 13.546 95.295 13.291 Q 94.563 12.882 94.193 12.065 A 3.833 3.833 0 0 1 93.933 11.243 Q 93.822 10.697 93.822 10.032 Z M 115.083 9.709 L 113.354 9.329 A 5.09 5.09 0 0 1 112.666 9.139 Q 112.301 9.008 112.017 8.83 A 2.29 2.29 0 0 1 111.578 8.474 A 2.067 2.067 0 0 1 111.03 7.331 A 2.86 2.86 0 0 1 110.998 6.897 A 2.743 2.743 0 0 1 111.103 6.124 A 2.274 2.274 0 0 1 111.445 5.425 A 2.685 2.685 0 0 1 112.234 4.706 A 3.51 3.51 0 0 1 112.708 4.465 A 4.283 4.283 0 0 1 113.704 4.19 A 5.855 5.855 0 0 1 114.608 4.123 A 5.735 5.735 0 0 1 115.958 4.279 A 5.267 5.267 0 0 1 116.195 4.342 Q 116.945 4.56 117.553 5.035 A 0.811 0.811 0 0 1 117.691 5.155 A 0.593 0.593 0 0 1 117.81 5.349 A 0.615 0.615 0 0 1 117.847 5.525 Q 117.848 5.542 117.848 5.559 A 0.589 0.589 0 0 1 117.829 5.71 Q 117.781 5.89 117.648 6.014 A 0.54 0.54 0 0 1 117.328 6.156 A 0.66 0.66 0 0 1 117.325 6.156 Q 117.147 6.174 116.953 6.058 A 1.002 1.002 0 0 1 116.926 6.042 A 4.687 4.687 0 0 0 116.17 5.629 A 4.018 4.018 0 0 0 115.767 5.482 A 4.047 4.047 0 0 0 114.867 5.31 A 3.649 3.649 0 0 0 114.608 5.301 Q 113.937 5.301 113.47 5.467 A 1.759 1.759 0 0 0 112.993 5.719 A 1.411 1.411 0 0 0 112.609 6.148 Q 112.442 6.444 112.442 6.821 A 1.352 1.352 0 0 0 112.506 7.247 A 1.125 1.125 0 0 0 112.784 7.695 A 1.421 1.421 0 0 0 113.117 7.937 Q 113.284 8.028 113.494 8.096 A 3.442 3.442 0 0 0 113.848 8.189 L 115.577 8.55 Q 116.423 8.732 116.979 9.062 A 2.562 2.562 0 0 1 117.43 9.396 A 1.919 1.919 0 0 1 118.013 10.522 A 2.751 2.751 0 0 1 118.047 10.963 A 2.504 2.504 0 0 1 117.844 11.986 Q 117.595 12.55 117.04 12.958 A 3.574 3.574 0 0 1 115.835 13.522 Q 115.177 13.699 114.361 13.699 Q 113.506 13.699 112.642 13.49 Q 111.777 13.281 111.036 12.768 A 0.862 0.862 0 0 1 110.888 12.638 A 0.655 0.655 0 0 1 110.77 12.455 Q 110.715 12.323 110.715 12.192 A 0.63 0.63 0 0 1 110.723 12.094 Q 110.751 11.913 110.875 11.78 Q 110.998 11.647 111.179 11.619 Q 111.359 11.59 111.587 11.704 A 6.183 6.183 0 0 0 112.305 12.086 A 4.605 4.605 0 0 0 113.022 12.341 Q 113.715 12.521 114.399 12.521 Q 115.066 12.521 115.531 12.37 A 1.797 1.797 0 0 0 116.033 12.122 A 1.339 1.339 0 0 0 116.419 11.702 Q 116.584 11.413 116.584 11.039 A 1.264 1.264 0 0 0 116.529 10.657 A 1.004 1.004 0 0 0 116.223 10.194 Q 115.862 9.88 115.083 9.709 Z M 45.106 16.302 L 45.106 4.94 A 1.22 1.22 0 0 1 45.125 4.72 Q 45.148 4.595 45.199 4.497 A 0.6 0.6 0 0 1 45.296 4.361 Q 45.486 4.161 45.847 4.161 A 1.157 1.157 0 0 1 46.072 4.182 Q 46.202 4.207 46.303 4.266 A 0.599 0.599 0 0 1 46.427 4.361 Q 46.603 4.537 46.623 4.856 A 1.336 1.336 0 0 1 46.626 4.94 L 46.626 6.745 L 46.417 6.479 Q 46.721 5.396 47.624 4.76 Q 48.526 4.123 49.78 4.123 Q 51.015 4.123 51.937 4.703 A 3.729 3.729 0 0 1 53.227 6.091 A 4.584 4.584 0 0 1 53.362 6.356 A 5.11 5.11 0 0 1 53.754 7.611 Q 53.865 8.216 53.865 8.911 A 7.177 7.177 0 0 1 53.769 10.117 Q 53.645 10.844 53.362 11.448 A 4.158 4.158 0 0 1 52.644 12.525 A 3.674 3.674 0 0 1 51.946 13.11 A 3.659 3.659 0 0 1 50.467 13.651 A 4.78 4.78 0 0 1 49.78 13.699 A 4.123 4.123 0 0 1 48.688 13.56 A 3.305 3.305 0 0 1 47.633 13.063 Q 46.74 12.426 46.417 11.362 L 46.645 11.362 L 46.645 16.302 A 1.103 1.103 0 0 1 46.623 16.529 Q 46.594 16.669 46.525 16.774 A 0.601 0.601 0 0 1 46.436 16.882 Q 46.229 17.079 45.874 17.081 A 1.291 1.291 0 0 1 45.866 17.081 A 1.15 1.15 0 0 1 45.648 17.062 Q 45.427 17.019 45.296 16.882 Q 45.135 16.712 45.11 16.413 A 1.365 1.365 0 0 1 45.106 16.302 Z M 124.621 16.302 L 124.621 4.94 A 1.22 1.22 0 0 1 124.64 4.72 Q 124.663 4.595 124.714 4.497 A 0.6 0.6 0 0 1 124.811 4.361 Q 125.001 4.161 125.362 4.161 A 1.157 1.157 0 0 1 125.587 4.182 Q 125.717 4.207 125.818 4.266 A 0.599 0.599 0 0 1 125.942 4.361 Q 126.118 4.537 126.138 4.856 A 1.336 1.336 0 0 1 126.141 4.94 L 126.141 6.745 L 125.932 6.479 Q 126.236 5.396 127.139 4.76 Q 128.041 4.123 129.295 4.123 Q 130.53 4.123 131.452 4.703 A 3.729 3.729 0 0 1 132.742 6.091 A 4.584 4.584 0 0 1 132.877 6.356 A 5.11 5.11 0 0 1 133.269 7.611 Q 133.38 8.216 133.38 8.911 A 7.177 7.177 0 0 1 133.284 10.117 Q 133.16 10.844 132.877 11.448 A 4.158 4.158 0 0 1 132.159 12.525 A 3.674 3.674 0 0 1 131.461 13.11 A 3.659 3.659 0 0 1 129.982 13.651 A 4.78 4.78 0 0 1 129.295 13.699 A 4.123 4.123 0 0 1 128.203 13.56 A 3.305 3.305 0 0 1 127.148 13.063 Q 126.255 12.426 125.932 11.362 L 126.16 11.362 L 126.16 16.302 A 1.103 1.103 0 0 1 126.138 16.529 Q 126.109 16.669 126.04 16.774 A 0.601 0.601 0 0 1 125.951 16.882 Q 125.744 17.079 125.389 17.081 A 1.291 1.291 0 0 1 125.381 17.081 A 1.15 1.15 0 0 1 125.163 17.062 Q 124.942 17.019 124.811 16.882 Q 124.65 16.712 124.625 16.413 A 1.365 1.365 0 0 1 124.621 16.302 Z M 22.097 10.336 L 22.097 5.491 L 20.824 5.491 A 1.034 1.034 0 0 1 20.633 5.474 Q 20.446 5.439 20.33 5.33 A 0.531 0.531 0 0 1 20.175 5.045 A 0.787 0.787 0 0 1 20.159 4.883 A 0.759 0.759 0 0 1 20.178 4.707 A 0.492 0.492 0 0 1 20.33 4.446 Q 20.501 4.294 20.824 4.294 L 22.097 4.294 L 22.097 2.109 A 1.103 1.103 0 0 1 22.119 1.882 Q 22.148 1.742 22.217 1.637 A 0.601 0.601 0 0 1 22.306 1.53 Q 22.513 1.332 22.868 1.33 A 1.291 1.291 0 0 1 22.876 1.33 Q 23.174 1.33 23.362 1.466 A 0.615 0.615 0 0 1 23.437 1.53 Q 23.613 1.706 23.633 2.025 A 1.336 1.336 0 0 1 23.636 2.109 L 23.636 4.294 L 26.03 4.294 A 1.103 1.103 0 0 1 26.217 4.309 Q 26.406 4.342 26.524 4.446 A 0.492 0.492 0 0 1 26.676 4.707 A 0.759 0.759 0 0 1 26.695 4.883 Q 26.695 5.168 26.524 5.33 A 0.55 0.55 0 0 1 26.307 5.453 Q 26.224 5.479 26.124 5.487 A 1.162 1.162 0 0 1 26.03 5.491 L 23.636 5.491 L 23.636 10.184 A 4.121 4.121 0 0 0 23.678 10.795 Q 23.775 11.438 24.092 11.828 A 1.398 1.398 0 0 0 24.731 12.263 Q 24.966 12.345 25.256 12.373 A 3.281 3.281 0 0 0 25.574 12.388 A 2.908 2.908 0 0 0 25.83 12.377 Q 26.031 12.36 26.192 12.312 A 2.445 2.445 0 0 1 26.343 12.272 Q 26.422 12.254 26.491 12.245 A 0.992 0.992 0 0 1 26.619 12.236 Q 26.778 12.218 26.888 12.333 A 0.413 0.413 0 0 1 26.904 12.35 A 0.378 0.378 0 0 1 26.969 12.464 Q 27.01 12.573 27.017 12.741 A 1.668 1.668 0 0 1 27.018 12.806 Q 27.018 13.034 26.933 13.224 Q 26.847 13.414 26.638 13.49 Q 26.485 13.541 26.267 13.588 A 6.805 6.805 0 0 1 26.04 13.633 A 4.536 4.536 0 0 1 25.696 13.681 Q 25.525 13.699 25.37 13.699 A 2.734 2.734 0 0 1 25.365 13.699 Q 24.423 13.699 23.748 13.405 A 2.788 2.788 0 0 1 23.551 13.31 Q 22.819 12.92 22.458 12.17 A 3.446 3.446 0 0 1 22.19 11.35 Q 22.114 10.973 22.1 10.539 A 6.22 6.22 0 0 1 22.097 10.336 Z M 154.108 13.57 A 5.308 5.308 0 0 0 155.306 13.699 A 4.414 4.414 0 0 0 155.737 13.678 A 5.074 5.074 0 0 0 156.712 13.481 Q 157.434 13.262 158.042 12.768 A 0.774 0.774 0 0 0 158.166 12.662 A 0.543 0.543 0 0 0 158.289 12.455 A 0.66 0.66 0 0 0 158.32 12.255 Q 158.32 12.17 158.299 12.084 A 0.751 0.751 0 0 0 158.289 12.049 A 0.614 0.614 0 0 0 158.118 11.771 A 0.535 0.535 0 0 0 158.01 11.692 A 0.56 0.56 0 0 0 157.795 11.628 Q 157.605 11.609 157.396 11.761 A 3.969 3.969 0 0 1 156.945 12.052 A 2.945 2.945 0 0 1 156.38 12.293 Q 155.876 12.445 155.401 12.445 A 3.759 3.759 0 0 1 154.801 12.399 A 2.533 2.533 0 0 1 153.178 11.486 A 3.018 3.018 0 0 1 152.863 11.012 Q 152.399 10.149 152.399 8.873 Q 152.399 8.018 152.599 7.372 A 3.491 3.491 0 0 1 152.765 6.935 A 2.716 2.716 0 0 1 153.178 6.289 Q 153.558 5.852 154.109 5.615 A 2.812 2.812 0 0 1 154.769 5.426 A 3.902 3.902 0 0 1 155.401 5.377 Q 155.876 5.377 156.389 5.529 Q 156.902 5.681 157.396 6.061 A 0.968 0.968 0 0 0 157.422 6.079 Q 157.618 6.212 157.805 6.194 A 0.683 0.683 0 0 0 157.865 6.186 A 0.535 0.535 0 0 0 158.137 6.052 Q 158.27 5.928 158.327 5.748 Q 158.361 5.64 158.355 5.53 A 0.663 0.663 0 0 0 158.327 5.377 A 0.551 0.551 0 0 0 158.217 5.176 A 0.723 0.723 0 0 0 158.08 5.054 Q 157.472 4.541 156.731 4.332 A 5.976 5.976 0 0 0 156.273 4.222 A 4.96 4.96 0 0 0 155.306 4.123 Q 154.261 4.123 153.435 4.446 Q 152.608 4.769 152.019 5.387 A 3.81 3.81 0 0 0 151.679 5.798 A 4.226 4.226 0 0 0 151.126 6.878 Q 150.822 7.752 150.822 8.854 A 6.756 6.756 0 0 0 150.898 9.888 A 5.128 5.128 0 0 0 151.364 11.391 Q 151.905 12.483 152.912 13.091 A 4.072 4.072 0 0 0 154.108 13.57 Z M 135.698 10.469 L 135.698 0.779 A 1.22 1.22 0 0 1 135.717 0.559 Q 135.74 0.434 135.791 0.336 A 0.6 0.6 0 0 1 135.888 0.2 A 0.598 0.598 0 0 1 136.144 0.044 Q 136.28 0 136.458 0 A 1.054 1.054 0 0 1 136.695 0.025 Q 136.875 0.067 137.002 0.176 A 0.665 0.665 0 0 1 137.028 0.2 A 0.64 0.64 0 0 1 137.2 0.491 Q 137.237 0.619 137.237 0.779 L 137.237 10.355 Q 137.237 11.381 137.646 11.885 A 1.315 1.315 0 0 0 138.402 12.341 A 2.043 2.043 0 0 0 138.852 12.388 A 2.652 2.652 0 0 0 138.994 12.384 Q 139.081 12.38 139.156 12.369 Q 139.289 12.35 139.422 12.35 A 0.666 0.666 0 0 1 139.458 12.348 Q 139.586 12.343 139.663 12.394 A 0.218 0.218 0 0 1 139.717 12.445 A 0.296 0.296 0 0 1 139.757 12.524 Q 139.802 12.652 139.802 12.898 A 2.695 2.695 0 0 1 139.802 12.901 A 1.231 1.231 0 0 1 139.789 13.089 Q 139.773 13.188 139.74 13.268 A 0.517 0.517 0 0 1 139.65 13.414 A 0.572 0.572 0 0 1 139.488 13.538 Q 139.354 13.609 139.156 13.642 Q 139.004 13.661 138.833 13.68 A 3.143 3.143 0 0 1 138.627 13.696 A 2.609 2.609 0 0 1 138.51 13.699 A 3.567 3.567 0 0 1 137.664 13.605 A 2.324 2.324 0 0 1 136.42 12.863 A 2.725 2.725 0 0 1 135.891 11.886 Q 135.764 11.484 135.721 11 A 5.945 5.945 0 0 1 135.698 10.469 Z M 28.31 12.863 L 28.31 4.94 A 1.22 1.22 0 0 1 28.329 4.72 Q 28.352 4.595 28.403 4.497 A 0.6 0.6 0 0 1 28.5 4.361 Q 28.69 4.161 29.051 4.161 Q 29.349 4.161 29.537 4.297 A 0.615 0.615 0 0 1 29.612 4.361 Q 29.788 4.537 29.808 4.856 A 1.336 1.336 0 0 1 29.811 4.94 L 29.811 6.479 L 29.621 6.479 A 3.369 3.369 0 0 1 30.027 5.541 A 2.832 2.832 0 0 1 30.78 4.75 A 3.405 3.405 0 0 1 32.057 4.201 A 4.646 4.646 0 0 1 32.889 4.104 Q 33.174 4.085 33.345 4.228 Q 33.474 4.335 33.517 4.558 A 1.175 1.175 0 0 1 33.535 4.712 Q 33.554 5.035 33.383 5.225 A 0.61 0.61 0 0 1 33.173 5.373 Q 33.084 5.413 32.973 5.435 A 1.357 1.357 0 0 1 32.851 5.453 L 32.547 5.491 A 4.203 4.203 0 0 0 31.73 5.64 Q 31.239 5.784 30.871 6.05 A 2.359 2.359 0 0 0 30.562 6.318 Q 29.87 7.028 29.868 8.258 A 4.616 4.616 0 0 0 29.868 8.265 L 29.868 12.863 Q 29.868 13.153 29.752 13.344 A 0.638 0.638 0 0 1 29.669 13.452 A 0.64 0.64 0 0 1 29.378 13.624 Q 29.249 13.661 29.089 13.661 A 1.103 1.103 0 0 1 28.862 13.639 Q 28.722 13.61 28.617 13.541 A 0.601 0.601 0 0 1 28.51 13.452 Q 28.328 13.262 28.312 12.929 A 1.364 1.364 0 0 1 28.31 12.863 Z M 56.183 12.863 L 56.183 4.94 A 1.22 1.22 0 0 1 56.202 4.72 Q 56.225 4.595 56.276 4.497 A 0.6 0.6 0 0 1 56.373 4.361 Q 56.563 4.161 56.924 4.161 Q 57.222 4.161 57.41 4.297 A 0.615 0.615 0 0 1 57.485 4.361 Q 57.661 4.537 57.681 4.856 A 1.336 1.336 0 0 1 57.684 4.94 L 57.684 6.479 L 57.494 6.479 A 3.369 3.369 0 0 1 57.9 5.541 A 2.832 2.832 0 0 1 58.653 4.75 A 3.405 3.405 0 0 1 59.93 4.201 A 4.646 4.646 0 0 1 60.762 4.104 Q 61.047 4.085 61.218 4.228 Q 61.347 4.335 61.39 4.558 A 1.175 1.175 0 0 1 61.408 4.712 Q 61.427 5.035 61.256 5.225 A 0.61 0.61 0 0 1 61.046 5.373 Q 60.957 5.413 60.846 5.435 A 1.357 1.357 0 0 1 60.724 5.453 L 60.42 5.491 A 4.203 4.203 0 0 0 59.603 5.64 Q 59.112 5.784 58.744 6.05 A 2.359 2.359 0 0 0 58.435 6.318 Q 57.743 7.028 57.741 8.258 A 4.616 4.616 0 0 0 57.741 8.265 L 57.741 12.863 Q 57.741 13.153 57.625 13.344 A 0.638 0.638 0 0 1 57.542 13.452 A 0.64 0.64 0 0 1 57.251 13.624 Q 57.122 13.661 56.962 13.661 A 1.103 1.103 0 0 1 56.735 13.639 Q 56.595 13.61 56.49 13.541 A 0.601 0.601 0 0 1 56.383 13.452 Q 56.201 13.262 56.185 12.929 A 1.364 1.364 0 0 1 56.183 12.863 Z M 104.538 12.863 L 104.538 4.94 A 1.22 1.22 0 0 1 104.557 4.72 Q 104.58 4.595 104.631 4.497 A 0.6 0.6 0 0 1 104.728 4.361 Q 104.918 4.161 105.279 4.161 Q 105.577 4.161 105.765 4.297 A 0.615 0.615 0 0 1 105.84 4.361 Q 106.016 4.537 106.036 4.856 A 1.336 1.336 0 0 1 106.039 4.94 L 106.039 6.479 L 105.849 6.479 A 3.369 3.369 0 0 1 106.255 5.541 A 2.832 2.832 0 0 1 107.008 4.75 A 3.405 3.405 0 0 1 108.285 4.201 A 4.646 4.646 0 0 1 109.117 4.104 Q 109.402 4.085 109.573 4.228 Q 109.702 4.335 109.745 4.558 A 1.175 1.175 0 0 1 109.763 4.712 Q 109.782 5.035 109.611 5.225 A 0.61 0.61 0 0 1 109.401 5.373 Q 109.312 5.413 109.201 5.435 A 1.357 1.357 0 0 1 109.079 5.453 L 108.775 5.491 A 4.203 4.203 0 0 0 107.958 5.64 Q 107.467 5.784 107.099 6.05 A 2.359 2.359 0 0 0 106.79 6.318 Q 106.098 7.028 106.096 8.258 A 4.616 4.616 0 0 0 106.096 8.265 L 106.096 12.863 Q 106.096 13.153 105.98 13.344 A 0.638 0.638 0 0 1 105.897 13.452 A 0.64 0.64 0 0 1 105.606 13.624 Q 105.477 13.661 105.317 13.661 A 1.103 1.103 0 0 1 105.09 13.639 Q 104.95 13.61 104.845 13.541 A 0.601 0.601 0 0 1 104.738 13.452 Q 104.556 13.262 104.54 12.929 A 1.364 1.364 0 0 1 104.538 12.863 Z M 49.457 12.464 A 3.067 3.067 0 0 0 50.236 12.369 A 2.455 2.455 0 0 0 50.968 12.046 A 2.565 2.565 0 0 0 51.749 11.227 A 3.32 3.32 0 0 0 51.956 10.83 Q 52.28 10.094 52.305 9.084 A 6.914 6.914 0 0 0 52.307 8.911 A 6.227 6.227 0 0 0 52.232 7.91 Q 52.145 7.38 51.959 6.955 A 2.797 2.797 0 0 0 51.538 6.27 A 2.519 2.519 0 0 0 49.737 5.369 A 3.528 3.528 0 0 0 49.457 5.358 A 3.027 3.027 0 0 0 48.619 5.47 A 2.549 2.549 0 0 0 47.956 5.767 Q 47.31 6.175 46.959 6.964 A 3.766 3.766 0 0 0 46.709 7.769 Q 46.633 8.155 46.614 8.601 A 7.157 7.157 0 0 0 46.607 8.911 A 6.022 6.022 0 0 0 46.687 9.926 Q 46.857 10.916 47.386 11.543 A 2.535 2.535 0 0 0 49.239 12.457 A 3.446 3.446 0 0 0 49.457 12.464 Z M 128.972 12.464 A 3.067 3.067 0 0 0 129.751 12.369 A 2.455 2.455 0 0 0 130.483 12.046 A 2.565 2.565 0 0 0 131.264 11.227 A 3.32 3.32 0 0 0 131.471 10.83 Q 131.795 10.094 131.82 9.084 A 6.914 6.914 0 0 0 131.822 8.911 A 6.227 6.227 0 0 0 131.747 7.91 Q 131.66 7.38 131.474 6.955 A 2.797 2.797 0 0 0 131.053 6.27 A 2.519 2.519 0 0 0 129.252 5.369 A 3.528 3.528 0 0 0 128.972 5.358 A 3.027 3.027 0 0 0 128.134 5.47 A 2.549 2.549 0 0 0 127.471 5.767 Q 126.825 6.175 126.474 6.964 A 3.766 3.766 0 0 0 126.224 7.769 Q 126.148 8.155 126.129 8.601 A 7.157 7.157 0 0 0 126.122 8.911 A 6.022 6.022 0 0 0 126.202 9.926 Q 126.372 10.916 126.901 11.543 A 2.535 2.535 0 0 0 128.754 12.457 A 3.446 3.446 0 0 0 128.972 12.464 Z M 120.694 13.561 A 1.241 1.241 0 0 0 121.03 13.604 Q 121.505 13.604 121.781 13.31 A 0.983 0.983 0 0 0 122.007 12.915 A 1.235 1.235 0 0 0 122.056 12.559 A 1.372 1.372 0 0 0 122.046 12.394 A 1.011 1.011 0 0 0 121.781 11.809 A 0.892 0.892 0 0 0 121.352 11.554 A 1.236 1.236 0 0 0 121.03 11.514 A 1.345 1.345 0 0 0 120.825 11.529 A 0.95 0.95 0 0 0 120.27 11.809 A 0.975 0.975 0 0 0 120.038 12.197 A 1.193 1.193 0 0 0 119.985 12.559 A 1.352 1.352 0 0 0 119.991 12.691 A 1.003 1.003 0 0 0 120.27 13.31 A 0.928 0.928 0 0 0 120.694 13.561 Z" vector-effect="non-scaling-stroke"/></g></svg>