<svg width="303.205" height="31.395" viewBox="0 0 303.205 31.395" xmlns="http://www.w3.org/2000/svg"><g id="svgGroup" stroke-linecap="round" fill-rule="evenodd" font-size="9pt" stroke="#ffffff" stroke-width="0.25mm" fill="#ffffff" style="stroke:#ffffff;stroke-width:0.25mm;fill:#ffffff"><path d="M 14.42 24.885 L 1.19 24.885 A 1.604 1.604 0 0 1 0.834 24.848 Q 0.522 24.777 0.315 24.57 A 1.013 1.013 0 0 1 0.063 24.134 Q 0.016 23.977 0.004 23.789 A 2.079 2.079 0 0 1 0 23.66 L 0 1.435 A 1.797 1.797 0 0 1 0.033 1.079 Q 0.102 0.738 0.315 0.525 Q 0.623 0.217 1.164 0.21 A 1.96 1.96 0 0 1 1.19 0.21 L 14.42 0.21 A 1.562 1.562 0 0 1 14.696 0.233 Q 14.847 0.26 14.966 0.32 A 0.726 0.726 0 0 1 15.155 0.455 A 0.815 0.815 0 0 1 15.376 0.875 A 1.196 1.196 0 0 1 15.4 1.12 A 1.549 1.549 0 0 1 15.379 1.385 Q 15.355 1.526 15.302 1.636 A 0.664 0.664 0 0 1 15.155 1.838 A 0.768 0.768 0 0 1 14.877 1.999 Q 14.684 2.065 14.42 2.065 L 2.1 2.065 L 2.1 11.445 L 13.72 11.445 A 1.689 1.689 0 0 1 13.989 11.465 Q 14.134 11.488 14.249 11.539 A 0.735 0.735 0 0 1 14.455 11.673 Q 14.7 11.9 14.7 12.355 Q 14.7 12.81 14.455 13.055 A 0.769 0.769 0 0 1 14.149 13.239 Q 13.965 13.3 13.72 13.3 L 2.1 13.3 L 2.1 23.03 L 14.42 23.03 A 1.689 1.689 0 0 1 14.689 23.05 Q 14.834 23.073 14.949 23.124 A 0.735 0.735 0 0 1 15.155 23.258 Q 15.4 23.485 15.4 23.94 Q 15.4 24.395 15.155 24.64 A 0.769 0.769 0 0 1 14.849 24.824 Q 14.665 24.885 14.42 24.885 Z M 75.95 16.835 L 63.315 16.835 L 63.315 15.26 L 75.6 15.26 L 75.04 15.715 A 11.539 11.539 0 0 0 74.943 14.174 Q 74.835 13.377 74.609 12.703 A 6.328 6.328 0 0 0 74.445 12.268 Q 73.85 10.85 72.678 10.08 A 4.571 4.571 0 0 0 71.047 9.428 A 6.403 6.403 0 0 0 69.79 9.31 Q 67.865 9.31 66.535 10.203 A 5.43 5.43 0 0 0 64.582 12.556 A 6.508 6.508 0 0 0 64.54 12.653 Q 63.875 14.21 63.875 16.24 L 63.875 16.415 A 11.016 11.016 0 0 0 64.044 18.408 Q 64.402 20.352 65.52 21.578 A 5.364 5.364 0 0 0 68.411 23.204 A 8.041 8.041 0 0 0 70.14 23.38 Q 71.435 23.38 72.643 23.03 A 7.187 7.187 0 0 0 74.278 22.317 A 8.834 8.834 0 0 0 75.005 21.84 A 1.571 1.571 0 0 1 75.265 21.691 Q 75.433 21.616 75.596 21.6 A 0.916 0.916 0 0 1 75.688 21.595 A 1.046 1.046 0 0 1 75.958 21.629 A 0.813 0.813 0 0 1 76.248 21.77 Q 76.475 21.945 76.563 22.208 A 0.706 0.706 0 0 1 76.599 22.432 Q 76.599 22.536 76.57 22.644 A 1.03 1.03 0 0 1 76.528 22.768 Q 76.42 23.028 76.139 23.248 A 1.965 1.965 0 0 1 76.055 23.31 A 7.283 7.283 0 0 1 74.3 24.355 A 9.036 9.036 0 0 1 73.36 24.693 Q 71.785 25.165 70.21 25.165 A 11.018 11.018 0 0 1 68.054 24.964 A 8.075 8.075 0 0 1 65.695 24.115 Q 63.805 23.065 62.79 21.105 A 8.816 8.816 0 0 1 61.956 18.593 A 12.124 12.124 0 0 1 61.775 16.45 Q 61.775 13.79 62.79 11.813 Q 63.805 9.835 65.608 8.715 Q 67.41 7.595 69.755 7.595 A 8.654 8.654 0 0 1 71.322 7.731 A 6.562 6.562 0 0 1 72.783 8.173 Q 74.095 8.75 75.023 9.818 A 6.925 6.925 0 0 1 76.129 11.586 A 8.532 8.532 0 0 1 76.44 12.408 A 9.948 9.948 0 0 1 76.836 14.248 A 13.216 13.216 0 0 1 76.93 15.855 A 1.453 1.453 0 0 1 76.905 16.137 Q 76.848 16.421 76.668 16.59 A 0.876 0.876 0 0 1 76.276 16.798 Q 76.128 16.835 75.95 16.835 Z M 126.28 16.835 L 113.645 16.835 L 113.645 15.26 L 125.93 15.26 L 125.37 15.715 A 11.539 11.539 0 0 0 125.273 14.174 Q 125.165 13.377 124.939 12.703 A 6.328 6.328 0 0 0 124.775 12.268 Q 124.18 10.85 123.008 10.08 A 4.571 4.571 0 0 0 121.377 9.428 A 6.403 6.403 0 0 0 120.12 9.31 Q 118.195 9.31 116.865 10.203 A 5.43 5.43 0 0 0 114.912 12.556 A 6.508 6.508 0 0 0 114.87 12.653 Q 114.205 14.21 114.205 16.24 L 114.205 16.415 A 11.016 11.016 0 0 0 114.374 18.408 Q 114.732 20.352 115.85 21.578 A 5.364 5.364 0 0 0 118.741 23.204 A 8.041 8.041 0 0 0 120.47 23.38 Q 121.765 23.38 122.973 23.03 A 7.187 7.187 0 0 0 124.608 22.317 A 8.834 8.834 0 0 0 125.335 21.84 A 1.571 1.571 0 0 1 125.595 21.691 Q 125.763 21.616 125.926 21.6 A 0.916 0.916 0 0 1 126.018 21.595 A 1.046 1.046 0 0 1 126.288 21.629 A 0.813 0.813 0 0 1 126.578 21.77 Q 126.805 21.945 126.893 22.208 A 0.706 0.706 0 0 1 126.929 22.432 Q 126.929 22.536 126.9 22.644 A 1.03 1.03 0 0 1 126.858 22.768 Q 126.75 23.028 126.469 23.248 A 1.965 1.965 0 0 1 126.385 23.31 A 7.283 7.283 0 0 1 124.63 24.355 A 9.036 9.036 0 0 1 123.69 24.693 Q 122.115 25.165 120.54 25.165 A 11.018 11.018 0 0 1 118.384 24.964 A 8.075 8.075 0 0 1 116.025 24.115 Q 114.135 23.065 113.12 21.105 A 8.816 8.816 0 0 1 112.286 18.593 A 12.124 12.124 0 0 1 112.105 16.45 Q 112.105 13.79 113.12 11.813 Q 114.135 9.835 115.938 8.715 Q 117.74 7.595 120.085 7.595 A 8.654 8.654 0 0 1 121.652 7.731 A 6.562 6.562 0 0 1 123.113 8.173 Q 124.425 8.75 125.353 9.818 A 6.925 6.925 0 0 1 126.459 11.586 A 8.532 8.532 0 0 1 126.77 12.408 A 9.948 9.948 0 0 1 127.166 14.248 A 13.216 13.216 0 0 1 127.26 15.855 A 1.453 1.453 0 0 1 127.235 16.137 Q 127.178 16.421 126.998 16.59 A 0.876 0.876 0 0 1 126.606 16.798 Q 126.458 16.835 126.28 16.835 Z M 164.325 16.835 L 151.69 16.835 L 151.69 15.26 L 163.975 15.26 L 163.415 15.715 A 11.539 11.539 0 0 0 163.318 14.174 Q 163.21 13.377 162.984 12.703 A 6.328 6.328 0 0 0 162.82 12.268 Q 162.225 10.85 161.053 10.08 A 4.571 4.571 0 0 0 159.422 9.428 A 6.403 6.403 0 0 0 158.165 9.31 Q 156.24 9.31 154.91 10.203 A 5.43 5.43 0 0 0 152.957 12.556 A 6.508 6.508 0 0 0 152.915 12.653 Q 152.25 14.21 152.25 16.24 L 152.25 16.415 A 11.016 11.016 0 0 0 152.419 18.408 Q 152.777 20.352 153.895 21.578 A 5.364 5.364 0 0 0 156.786 23.204 A 8.041 8.041 0 0 0 158.515 23.38 Q 159.81 23.38 161.018 23.03 A 7.187 7.187 0 0 0 162.653 22.317 A 8.834 8.834 0 0 0 163.38 21.84 A 1.571 1.571 0 0 1 163.64 21.691 Q 163.808 21.616 163.971 21.6 A 0.916 0.916 0 0 1 164.063 21.595 A 1.046 1.046 0 0 1 164.333 21.629 A 0.813 0.813 0 0 1 164.623 21.77 Q 164.85 21.945 164.938 22.208 A 0.706 0.706 0 0 1 164.974 22.432 Q 164.974 22.536 164.945 22.644 A 1.03 1.03 0 0 1 164.903 22.768 Q 164.795 23.028 164.514 23.248 A 1.965 1.965 0 0 1 164.43 23.31 A 7.283 7.283 0 0 1 162.675 24.355 A 9.036 9.036 0 0 1 161.735 24.693 Q 160.16 25.165 158.585 25.165 A 11.018 11.018 0 0 1 156.429 24.964 A 8.075 8.075 0 0 1 154.07 24.115 Q 152.18 23.065 151.165 21.105 A 8.816 8.816 0 0 1 150.331 18.593 A 12.124 12.124 0 0 1 150.15 16.45 Q 150.15 13.79 151.165 11.813 Q 152.18 9.835 153.983 8.715 Q 155.785 7.595 158.13 7.595 A 8.654 8.654 0 0 1 159.697 7.731 A 6.562 6.562 0 0 1 161.158 8.173 Q 162.47 8.75 163.398 9.818 A 6.925 6.925 0 0 1 164.504 11.586 A 8.532 8.532 0 0 1 164.815 12.408 A 9.948 9.948 0 0 1 165.211 14.248 A 13.216 13.216 0 0 1 165.305 15.855 A 1.453 1.453 0 0 1 165.28 16.137 Q 165.223 16.421 165.043 16.59 A 0.876 0.876 0 0 1 164.651 16.798 Q 164.503 16.835 164.325 16.835 Z M 302.225 16.835 L 289.59 16.835 L 289.59 15.26 L 301.875 15.26 L 301.315 15.715 A 11.539 11.539 0 0 0 301.218 14.174 Q 301.11 13.377 300.884 12.703 A 6.328 6.328 0 0 0 300.72 12.268 Q 300.125 10.85 298.953 10.08 A 4.571 4.571 0 0 0 297.322 9.428 A 6.403 6.403 0 0 0 296.065 9.31 Q 294.14 9.31 292.81 10.203 A 5.43 5.43 0 0 0 290.857 12.556 A 6.508 6.508 0 0 0 290.815 12.653 Q 290.15 14.21 290.15 16.24 L 290.15 16.415 A 11.016 11.016 0 0 0 290.319 18.408 Q 290.677 20.352 291.795 21.578 A 5.364 5.364 0 0 0 294.686 23.204 A 8.041 8.041 0 0 0 296.415 23.38 Q 297.71 23.38 298.918 23.03 A 7.187 7.187 0 0 0 300.553 22.317 A 8.834 8.834 0 0 0 301.28 21.84 A 1.571 1.571 0 0 1 301.54 21.691 Q 301.708 21.616 301.871 21.6 A 0.916 0.916 0 0 1 301.963 21.595 A 1.046 1.046 0 0 1 302.233 21.629 A 0.813 0.813 0 0 1 302.523 21.77 Q 302.75 21.945 302.838 22.208 A 0.706 0.706 0 0 1 302.874 22.432 Q 302.874 22.536 302.845 22.644 A 1.03 1.03 0 0 1 302.803 22.768 Q 302.695 23.028 302.414 23.248 A 1.965 1.965 0 0 1 302.33 23.31 A 7.283 7.283 0 0 1 300.575 24.355 A 9.036 9.036 0 0 1 299.635 24.693 Q 298.06 25.165 296.485 25.165 A 11.018 11.018 0 0 1 294.329 24.964 A 8.075 8.075 0 0 1 291.97 24.115 Q 290.08 23.065 289.065 21.105 A 8.816 8.816 0 0 1 288.231 18.593 A 12.124 12.124 0 0 1 288.05 16.45 Q 288.05 13.79 289.065 11.813 Q 290.08 9.835 291.883 8.715 Q 293.685 7.595 296.03 7.595 A 8.654 8.654 0 0 1 297.597 7.731 A 6.562 6.562 0 0 1 299.058 8.173 Q 300.37 8.75 301.298 9.818 A 6.925 6.925 0 0 1 302.404 11.586 A 8.532 8.532 0 0 1 302.715 12.408 A 9.948 9.948 0 0 1 303.111 14.248 A 13.216 13.216 0 0 1 303.205 15.855 A 1.453 1.453 0 0 1 303.18 16.137 Q 303.123 16.421 302.943 16.59 A 0.876 0.876 0 0 1 302.551 16.798 Q 302.403 16.835 302.225 16.835 Z M 264.67 15.155 L 266.175 15.155 L 266.175 16.73 L 264.705 16.73 A 63.789 63.789 0 0 0 263.216 16.746 Q 261.606 16.784 260.452 16.908 A 16.684 16.684 0 0 0 259.788 16.993 Q 258.02 17.255 257.32 17.955 A 2.29 2.29 0 0 0 256.727 19.016 Q 256.633 19.372 256.622 19.793 A 4.392 4.392 0 0 0 256.62 19.915 A 3.721 3.721 0 0 0 256.813 21.138 A 3.17 3.17 0 0 0 257.705 22.47 A 3.651 3.651 0 0 0 259.289 23.294 Q 259.906 23.45 260.645 23.45 A 5.34 5.34 0 0 0 262.12 23.253 A 4.494 4.494 0 0 0 263.288 22.733 A 5.078 5.078 0 0 0 265.048 20.833 A 5.996 5.996 0 0 0 265.09 20.755 A 5.761 5.761 0 0 0 265.711 18.692 A 7.195 7.195 0 0 0 265.755 17.885 L 265.755 13.895 A 9.211 9.211 0 0 0 265.68 12.677 Q 265.489 11.25 264.81 10.483 A 2.886 2.886 0 0 0 263.591 9.684 Q 263.119 9.516 262.538 9.453 A 6.855 6.855 0 0 0 261.8 9.415 Q 260.47 9.415 259.228 9.765 Q 257.985 10.115 256.585 10.885 Q 256.2 11.095 255.903 11.025 A 0.913 0.913 0 0 1 255.678 10.942 A 0.697 0.697 0 0 1 255.448 10.745 Q 255.29 10.535 255.238 10.238 Q 255.185 9.94 255.325 9.66 A 0.907 0.907 0 0 1 255.565 9.365 Q 255.673 9.276 255.815 9.205 A 13.448 13.448 0 0 1 258.428 8.104 A 12.404 12.404 0 0 1 258.808 7.998 Q 260.33 7.595 261.765 7.595 A 10.028 10.028 0 0 1 263.211 7.693 Q 264.335 7.857 265.178 8.295 Q 266.525 8.995 267.173 10.395 Q 267.676 11.483 267.788 13.058 A 13.282 13.282 0 0 1 267.82 14 L 267.82 24.01 Q 267.82 24.535 267.575 24.815 Q 267.33 25.095 266.84 25.095 A 1.383 1.383 0 0 1 266.521 25.06 A 0.924 0.924 0 0 1 266.07 24.815 Q 265.817 24.562 265.793 24.108 A 1.842 1.842 0 0 1 265.79 24.01 L 265.79 20.79 L 266.14 20.79 Q 265.825 22.155 265.02 23.135 Q 264.215 24.115 263.025 24.64 A 6.184 6.184 0 0 1 261.17 25.124 A 7.623 7.623 0 0 1 260.365 25.165 A 7.573 7.573 0 0 1 258.647 24.977 A 6.195 6.195 0 0 1 257.303 24.5 A 5.664 5.664 0 0 1 255.775 23.416 A 5.194 5.194 0 0 1 255.168 22.68 Q 254.38 21.525 254.38 20.09 A 6.104 6.104 0 0 1 254.492 18.886 Q 254.637 18.162 254.973 17.6 A 3.373 3.373 0 0 1 255.325 17.115 A 3.601 3.601 0 0 1 256.261 16.366 Q 256.727 16.099 257.327 15.898 A 9.458 9.458 0 0 1 258.51 15.593 Q 260.533 15.197 263.928 15.159 A 65.968 65.968 0 0 1 264.67 15.155 Z M 19.74 24.01 L 19.74 8.785 A 1.785 1.785 0 0 1 19.766 8.47 Q 19.797 8.297 19.865 8.161 A 0.83 0.83 0 0 1 20.02 7.945 Q 20.273 7.692 20.727 7.668 A 1.842 1.842 0 0 1 20.825 7.665 Q 21.222 7.665 21.469 7.849 A 0.806 0.806 0 0 1 21.578 7.945 Q 21.786 8.168 21.829 8.568 A 2.05 2.05 0 0 1 21.84 8.785 L 21.84 12.075 L 21.455 11.865 A 6.447 6.447 0 0 1 22.367 10.069 A 5.513 5.513 0 0 1 23.853 8.68 A 6.912 6.912 0 0 1 27.078 7.622 A 8.51 8.51 0 0 1 27.755 7.595 Q 29.408 7.595 30.609 8.071 A 5.154 5.154 0 0 1 31.133 8.313 A 4.477 4.477 0 0 1 33.113 10.432 A 5.535 5.535 0 0 1 33.145 10.5 A 6.852 6.852 0 0 1 33.6 11.927 Q 33.744 12.62 33.789 13.423 A 13.389 13.389 0 0 1 33.81 14.175 L 33.81 24.01 A 1.574 1.574 0 0 1 33.78 24.327 Q 33.741 24.517 33.651 24.662 A 0.845 0.845 0 0 1 33.53 24.815 A 0.926 0.926 0 0 1 33.072 25.062 A 1.389 1.389 0 0 1 32.76 25.095 A 1.574 1.574 0 0 1 32.443 25.065 Q 32.253 25.026 32.108 24.936 A 0.845 0.845 0 0 1 31.955 24.815 Q 31.702 24.562 31.678 24.108 A 1.842 1.842 0 0 1 31.675 24.01 L 31.675 14.35 A 10.195 10.195 0 0 0 31.595 13.022 Q 31.402 11.557 30.744 10.724 A 2.924 2.924 0 0 0 30.66 10.623 A 3.118 3.118 0 0 0 29.297 9.725 Q 28.508 9.45 27.44 9.45 A 6.608 6.608 0 0 0 25.64 9.683 A 4.966 4.966 0 0 0 23.398 11.008 A 5.218 5.218 0 0 0 22.016 13.69 A 7.584 7.584 0 0 0 21.875 15.19 L 21.875 24.01 A 1.62 1.62 0 0 1 21.825 24.433 Q 21.645 25.095 20.825 25.095 A 1.574 1.574 0 0 1 20.508 25.065 Q 20.318 25.026 20.173 24.936 A 0.845 0.845 0 0 1 20.02 24.815 Q 19.767 24.562 19.743 24.108 A 1.842 1.842 0 0 1 19.74 24.01 Z M 131.6 24.01 L 131.6 8.785 A 1.785 1.785 0 0 1 131.626 8.47 Q 131.657 8.297 131.725 8.161 A 0.83 0.83 0 0 1 131.88 7.945 Q 132.133 7.692 132.587 7.668 A 1.842 1.842 0 0 1 132.685 7.665 Q 133.082 7.665 133.329 7.849 A 0.806 0.806 0 0 1 133.438 7.945 Q 133.646 8.168 133.689 8.568 A 2.05 2.05 0 0 1 133.7 8.785 L 133.7 12.075 L 133.315 11.865 A 6.447 6.447 0 0 1 134.227 10.069 A 5.513 5.513 0 0 1 135.713 8.68 A 6.912 6.912 0 0 1 138.938 7.622 A 8.51 8.51 0 0 1 139.615 7.595 Q 141.268 7.595 142.469 8.071 A 5.154 5.154 0 0 1 142.993 8.313 A 4.477 4.477 0 0 1 144.973 10.432 A 5.535 5.535 0 0 1 145.005 10.5 A 6.852 6.852 0 0 1 145.46 11.927 Q 145.604 12.62 145.649 13.423 A 13.389 13.389 0 0 1 145.67 14.175 L 145.67 24.01 A 1.574 1.574 0 0 1 145.64 24.327 Q 145.601 24.517 145.511 24.662 A 0.845 0.845 0 0 1 145.39 24.815 A 0.926 0.926 0 0 1 144.932 25.062 A 1.389 1.389 0 0 1 144.62 25.095 A 1.574 1.574 0 0 1 144.303 25.065 Q 144.113 25.026 143.968 24.936 A 0.845 0.845 0 0 1 143.815 24.815 Q 143.562 24.562 143.538 24.108 A 1.842 1.842 0 0 1 143.535 24.01 L 143.535 14.35 A 10.195 10.195 0 0 0 143.455 13.022 Q 143.262 11.557 142.604 10.724 A 2.924 2.924 0 0 0 142.52 10.623 A 3.118 3.118 0 0 0 141.157 9.725 Q 140.368 9.45 139.3 9.45 A 6.608 6.608 0 0 0 137.5 9.683 A 4.966 4.966 0 0 0 135.258 11.008 A 5.218 5.218 0 0 0 133.876 13.69 A 7.584 7.584 0 0 0 133.735 15.19 L 133.735 24.01 A 1.62 1.62 0 0 1 133.685 24.433 Q 133.505 25.095 132.685 25.095 A 1.574 1.574 0 0 1 132.368 25.065 Q 132.178 25.026 132.033 24.936 A 0.845 0.845 0 0 1 131.88 24.815 Q 131.627 24.562 131.603 24.108 A 1.842 1.842 0 0 1 131.6 24.01 Z M 169.575 18.585 L 169.575 8.785 A 1.785 1.785 0 0 1 169.601 8.47 Q 169.632 8.297 169.7 8.161 A 0.83 0.83 0 0 1 169.855 7.945 Q 170.108 7.692 170.562 7.668 A 1.842 1.842 0 0 1 170.66 7.665 A 1.383 1.383 0 0 1 170.979 7.7 A 0.924 0.924 0 0 1 171.43 7.945 Q 171.662 8.177 171.702 8.601 A 1.97 1.97 0 0 1 171.71 8.785 L 171.71 18.48 A 9.527 9.527 0 0 0 171.79 19.76 Q 171.88 20.42 172.07 20.958 A 3.761 3.761 0 0 0 172.725 22.138 A 3.151 3.151 0 0 0 174.181 23.097 Q 174.705 23.271 175.347 23.323 A 7.008 7.008 0 0 0 175.91 23.345 A 5.776 5.776 0 0 0 177.725 23.072 A 4.757 4.757 0 0 0 179.76 21.753 A 5.428 5.428 0 0 0 181.097 19.038 A 7.737 7.737 0 0 0 181.23 17.57 L 181.23 8.785 A 1.785 1.785 0 0 1 181.256 8.47 Q 181.287 8.297 181.355 8.161 A 0.83 0.83 0 0 1 181.51 7.945 Q 181.763 7.692 182.217 7.668 A 1.842 1.842 0 0 1 182.315 7.665 A 1.383 1.383 0 0 1 182.634 7.7 A 0.924 0.924 0 0 1 183.085 7.945 Q 183.317 8.177 183.357 8.601 A 1.97 1.97 0 0 1 183.365 8.785 L 183.365 24.01 A 1.678 1.678 0 0 1 183.317 24.429 Q 183.178 24.968 182.63 25.071 A 1.524 1.524 0 0 1 182.35 25.095 A 1.383 1.383 0 0 1 182.031 25.06 A 0.924 0.924 0 0 1 181.58 24.815 Q 181.327 24.562 181.303 24.108 A 1.842 1.842 0 0 1 181.3 24.01 L 181.3 20.545 L 181.72 20.79 A 6.709 6.709 0 0 1 180.89 22.556 A 5.507 5.507 0 0 1 179.41 24.045 A 6.482 6.482 0 0 1 175.961 25.158 A 7.928 7.928 0 0 1 175.63 25.165 Q 173.962 25.165 172.755 24.669 A 5.086 5.086 0 0 1 172.253 24.43 A 4.58 4.58 0 0 1 170.245 22.237 A 5.629 5.629 0 0 1 170.24 22.225 A 6.919 6.919 0 0 1 169.774 20.749 Q 169.575 19.772 169.575 18.585 Z M 207.725 17.71 L 204.68 17.01 A 9.768 9.768 0 0 1 203.415 16.644 Q 202.761 16.402 202.252 16.084 A 4.249 4.249 0 0 1 201.425 15.418 A 3.756 3.756 0 0 1 200.426 13.306 A 5.189 5.189 0 0 1 200.375 12.565 Q 200.375 11.06 201.163 9.94 A 4.746 4.746 0 0 1 202.636 8.594 A 6.157 6.157 0 0 1 203.403 8.208 A 7.639 7.639 0 0 1 205.268 7.698 A 10.163 10.163 0 0 1 206.745 7.595 Q 208.285 7.595 209.685 8.05 Q 211.085 8.505 212.135 9.45 A 1.183 1.183 0 0 1 212.337 9.64 A 0.878 0.878 0 0 1 212.503 9.94 Q 212.59 10.22 212.503 10.483 Q 212.415 10.745 212.205 10.92 Q 211.995 11.095 211.715 11.095 A 0.86 0.86 0 0 1 211.436 11.046 Q 211.282 10.993 211.12 10.885 A 7.496 7.496 0 0 0 209.538 9.956 A 6.771 6.771 0 0 0 208.985 9.748 Q 207.865 9.38 206.71 9.38 Q 204.68 9.38 203.578 10.22 Q 202.475 11.06 202.475 12.495 A 2.799 2.799 0 0 0 202.583 13.293 A 2.168 2.168 0 0 0 203.158 14.245 Q 203.838 14.908 205.303 15.258 A 9.166 9.166 0 0 0 205.31 15.26 L 208.355 15.96 A 11.762 11.762 0 0 1 209.664 16.338 Q 210.98 16.808 211.75 17.518 Q 212.87 18.55 212.87 20.3 Q 212.87 22.498 211.168 23.803 A 5.328 5.328 0 0 1 211.103 23.853 Q 209.62 24.954 207.263 25.131 A 12.5 12.5 0 0 1 206.325 25.165 Q 204.75 25.165 203.193 24.745 A 8.918 8.918 0 0 1 200.502 23.497 A 10.231 10.231 0 0 1 200.235 23.31 A 1.014 1.014 0 0 1 200.041 23.155 A 0.742 0.742 0 0 1 199.868 22.873 A 1.053 1.053 0 0 1 199.813 22.538 A 1.124 1.124 0 0 1 199.833 22.33 Q 199.885 22.05 200.078 21.858 Q 200.27 21.665 200.55 21.63 Q 200.8 21.599 201.078 21.763 A 1.45 1.45 0 0 1 201.145 21.805 A 10.785 10.785 0 0 0 202.409 22.535 A 7.931 7.931 0 0 0 203.805 23.065 Q 205.1 23.415 206.395 23.415 A 9.088 9.088 0 0 0 207.602 23.34 Q 208.871 23.17 209.65 22.61 A 2.746 2.746 0 0 0 210.406 21.815 Q 210.747 21.256 210.769 20.537 A 3.256 3.256 0 0 0 210.77 20.44 A 2.796 2.796 0 0 0 210.681 19.715 A 1.958 1.958 0 0 0 210.053 18.708 Q 209.403 18.153 208.021 17.785 A 11.911 11.911 0 0 0 207.725 17.71 Z M 81.27 30.31 L 81.27 8.785 A 1.785 1.785 0 0 1 81.296 8.47 Q 81.327 8.297 81.395 8.161 A 0.83 0.83 0 0 1 81.55 7.945 Q 81.803 7.692 82.257 7.668 A 1.842 1.842 0 0 1 82.355 7.665 A 1.383 1.383 0 0 1 82.674 7.7 A 0.924 0.924 0 0 1 83.125 7.945 Q 83.357 8.177 83.397 8.601 A 1.97 1.97 0 0 1 83.405 8.785 L 83.405 12.355 L 83.02 12.145 A 6.25 6.25 0 0 1 84.148 9.911 A 5.966 5.966 0 0 1 85.295 8.82 A 6.34 6.34 0 0 1 88.209 7.672 A 8.328 8.328 0 0 1 89.355 7.595 A 8.059 8.059 0 0 1 91.486 7.866 A 6.653 6.653 0 0 1 93.328 8.68 A 7.047 7.047 0 0 1 95.772 11.365 A 8.534 8.534 0 0 1 95.953 11.725 Q 96.867 13.657 96.88 16.304 A 15.569 15.569 0 0 1 96.88 16.38 A 13.221 13.221 0 0 1 96.703 18.601 Q 96.478 19.919 95.969 21.018 A 8.348 8.348 0 0 1 95.953 21.053 A 7.588 7.588 0 0 1 94.676 22.984 A 6.635 6.635 0 0 1 93.345 24.098 A 6.773 6.773 0 0 1 90.737 25.061 A 8.858 8.858 0 0 1 89.355 25.165 A 7.703 7.703 0 0 1 87.31 24.905 A 6.152 6.152 0 0 1 85.295 23.94 Q 83.615 22.715 83.02 20.685 L 83.405 20.685 L 83.405 30.31 A 1.574 1.574 0 0 1 83.375 30.627 Q 83.336 30.817 83.246 30.962 A 0.845 0.845 0 0 1 83.125 31.115 A 0.926 0.926 0 0 1 82.667 31.362 A 1.389 1.389 0 0 1 82.355 31.395 A 1.574 1.574 0 0 1 82.038 31.365 Q 81.848 31.326 81.703 31.236 A 0.845 0.845 0 0 1 81.55 31.115 Q 81.297 30.862 81.273 30.408 A 1.842 1.842 0 0 1 81.27 30.31 Z M 225.015 30.31 L 225.015 8.785 A 1.785 1.785 0 0 1 225.041 8.47 Q 225.072 8.297 225.14 8.161 A 0.83 0.83 0 0 1 225.295 7.945 Q 225.548 7.692 226.002 7.668 A 1.842 1.842 0 0 1 226.1 7.665 A 1.383 1.383 0 0 1 226.419 7.7 A 0.924 0.924 0 0 1 226.87 7.945 Q 227.102 8.177 227.142 8.601 A 1.97 1.97 0 0 1 227.15 8.785 L 227.15 12.355 L 226.765 12.145 A 6.25 6.25 0 0 1 227.893 9.911 A 5.966 5.966 0 0 1 229.04 8.82 A 6.34 6.34 0 0 1 231.954 7.672 A 8.328 8.328 0 0 1 233.1 7.595 A 8.059 8.059 0 0 1 235.231 7.866 A 6.653 6.653 0 0 1 237.073 8.68 A 7.047 7.047 0 0 1 239.517 11.365 A 8.534 8.534 0 0 1 239.698 11.725 Q 240.612 13.657 240.625 16.304 A 15.569 15.569 0 0 1 240.625 16.38 A 13.221 13.221 0 0 1 240.448 18.601 Q 240.223 19.919 239.714 21.018 A 8.348 8.348 0 0 1 239.698 21.053 A 7.588 7.588 0 0 1 238.421 22.984 A 6.635 6.635 0 0 1 237.09 24.098 A 6.773 6.773 0 0 1 234.482 25.061 A 8.858 8.858 0 0 1 233.1 25.165 A 7.703 7.703 0 0 1 231.055 24.905 A 6.152 6.152 0 0 1 229.04 23.94 Q 227.36 22.715 226.765 20.685 L 227.15 20.685 L 227.15 30.31 A 1.574 1.574 0 0 1 227.12 30.627 Q 227.081 30.817 226.991 30.962 A 0.845 0.845 0 0 1 226.87 31.115 A 0.926 0.926 0 0 1 226.412 31.362 A 1.389 1.389 0 0 1 226.1 31.395 A 1.574 1.574 0 0 1 225.783 31.365 Q 225.593 31.326 225.448 31.236 A 0.845 0.845 0 0 1 225.295 31.115 Q 225.042 30.862 225.018 30.408 A 1.842 1.842 0 0 1 225.015 30.31 Z M 40.075 19.215 L 40.075 9.625 L 37.485 9.625 A 1.482 1.482 0 0 1 37.171 9.594 Q 36.964 9.549 36.807 9.44 A 0.907 0.907 0 0 1 36.75 9.398 Q 36.47 9.17 36.47 8.75 A 0.854 0.854 0 0 1 36.516 8.463 A 0.728 0.728 0 0 1 36.75 8.138 A 0.979 0.979 0 0 1 37.144 7.948 Q 37.288 7.913 37.456 7.91 A 1.787 1.787 0 0 1 37.485 7.91 L 40.075 7.91 L 40.075 3.535 Q 40.075 3.179 40.188 2.943 A 0.768 0.768 0 0 1 40.355 2.713 A 0.903 0.903 0 0 1 40.709 2.512 Q 40.906 2.45 41.16 2.45 A 1.478 1.478 0 0 1 41.472 2.481 Q 41.746 2.54 41.93 2.713 Q 42.156 2.924 42.199 3.329 A 1.918 1.918 0 0 1 42.21 3.535 L 42.21 7.91 L 46.935 7.91 A 1.689 1.689 0 0 1 47.204 7.93 Q 47.349 7.953 47.464 8.004 A 0.735 0.735 0 0 1 47.67 8.138 A 0.753 0.753 0 0 1 47.904 8.595 A 1.069 1.069 0 0 1 47.915 8.75 A 1.154 1.154 0 0 1 47.887 9.011 Q 47.843 9.202 47.727 9.338 A 0.711 0.711 0 0 1 47.67 9.398 A 0.768 0.768 0 0 1 47.392 9.559 Q 47.199 9.625 46.935 9.625 L 42.21 9.625 L 42.21 18.935 A 8.348 8.348 0 0 0 42.293 20.156 Q 42.387 20.786 42.584 21.294 A 3.515 3.515 0 0 0 43.085 22.19 A 2.677 2.677 0 0 0 44.335 23.062 Q 44.794 23.225 45.363 23.281 A 6.41 6.41 0 0 0 45.99 23.31 A 5.166 5.166 0 0 0 46.483 23.288 Q 46.867 23.251 47.163 23.153 A 4.108 4.108 0 0 1 47.442 23.069 Q 47.733 22.995 47.95 22.995 Q 48.195 22.995 48.388 23.205 A 0.632 0.632 0 0 1 48.512 23.416 Q 48.548 23.512 48.565 23.632 A 1.706 1.706 0 0 1 48.58 23.87 Q 48.58 24.15 48.458 24.43 A 0.575 0.575 0 0 1 48.105 24.756 A 0.772 0.772 0 0 1 48.02 24.78 Q 47.635 24.92 46.97 25.043 Q 46.305 25.165 45.745 25.165 A 8.484 8.484 0 0 1 44.416 25.067 Q 43.383 24.903 42.595 24.465 Q 41.335 23.765 40.705 22.453 A 5.968 5.968 0 0 1 40.253 21.087 Q 40.119 20.45 40.086 19.716 A 11.042 11.042 0 0 1 40.075 19.215 Z M 280.315 25.165 Q 277.83 25.165 276.045 24.063 A 7.184 7.184 0 0 1 273.39 21.134 A 8.647 8.647 0 0 1 273.298 20.948 A 9.662 9.662 0 0 1 272.482 18.254 A 12.822 12.822 0 0 1 272.335 16.275 A 12.988 12.988 0 0 1 272.469 14.369 A 9.756 9.756 0 0 1 272.878 12.653 A 7.984 7.984 0 0 1 273.747 10.846 A 6.942 6.942 0 0 1 274.453 9.94 A 6.978 6.978 0 0 1 276.88 8.246 A 8.004 8.004 0 0 1 276.973 8.208 A 8.084 8.084 0 0 1 279.083 7.667 A 10.186 10.186 0 0 1 280.315 7.595 A 8.359 8.359 0 0 1 282.297 7.841 A 9.882 9.882 0 0 1 282.975 8.033 A 6.723 6.723 0 0 1 285.425 9.453 A 7.687 7.687 0 0 1 285.46 9.485 A 1.045 1.045 0 0 1 285.661 9.712 A 0.875 0.875 0 0 1 285.775 9.975 Q 285.845 10.255 285.74 10.518 A 1.003 1.003 0 0 1 285.568 10.805 A 0.914 0.914 0 0 1 285.425 10.938 A 0.87 0.87 0 0 1 285.057 11.096 A 1.118 1.118 0 0 1 284.918 11.113 A 0.597 0.597 0 0 1 284.882 11.114 Q 284.651 11.114 284.41 10.935 A 1.488 1.488 0 0 1 284.305 10.85 A 6.758 6.758 0 0 0 283.382 10.207 A 4.98 4.98 0 0 0 282.328 9.748 A 7.101 7.101 0 0 0 280.981 9.479 A 6.187 6.187 0 0 0 280.385 9.45 A 7.666 7.666 0 0 0 279.118 9.55 A 5.64 5.64 0 0 0 277.865 9.905 Q 276.78 10.36 276.028 11.235 Q 275.275 12.11 274.89 13.388 A 8.737 8.737 0 0 0 274.591 14.837 A 12.011 12.011 0 0 0 274.505 16.31 Q 274.505 18.747 275.34 20.406 A 5.862 5.862 0 0 0 276.028 21.473 A 4.94 4.94 0 0 0 279.128 23.242 A 7.344 7.344 0 0 0 280.385 23.345 Q 281.33 23.345 282.328 23.048 A 5.022 5.022 0 0 0 283.444 22.552 A 6.83 6.83 0 0 0 284.305 21.945 A 1.354 1.354 0 0 1 284.489 21.806 Q 284.689 21.682 284.882 21.682 A 0.597 0.597 0 0 1 284.918 21.683 Q 285.215 21.7 285.425 21.858 A 0.843 0.843 0 0 1 285.72 22.269 A 1.017 1.017 0 0 1 285.723 22.278 A 0.934 0.934 0 0 1 285.771 22.575 Q 285.771 22.688 285.744 22.804 A 1.112 1.112 0 0 1 285.74 22.82 A 0.904 0.904 0 0 1 285.514 23.225 A 1.156 1.156 0 0 1 285.425 23.31 Q 284.34 24.325 282.975 24.745 A 9.457 9.457 0 0 1 281.136 25.124 A 8.227 8.227 0 0 1 280.315 25.165 Z M 245.14 19.53 L 245.14 1.085 Q 245.14 0.729 245.253 0.493 A 0.768 0.768 0 0 1 245.42 0.263 A 0.903 0.903 0 0 1 245.774 0.062 Q 245.971 0 246.225 0 A 1.478 1.478 0 0 1 246.537 0.031 Q 246.811 0.09 246.995 0.263 Q 247.221 0.474 247.264 0.879 A 1.918 1.918 0 0 1 247.275 1.085 L 247.275 19.285 A 8.237 8.237 0 0 0 247.339 20.345 Q 247.501 21.596 248.08 22.313 A 2.604 2.604 0 0 0 249.659 23.24 A 3.962 3.962 0 0 0 250.425 23.31 A 5.883 5.883 0 0 0 250.673 23.305 Q 250.794 23.3 250.899 23.29 A 2.841 2.841 0 0 0 251.02 23.275 Q 251.265 23.24 251.51 23.24 Q 251.825 23.205 251.983 23.363 A 0.394 0.394 0 0 1 252.064 23.489 Q 252.118 23.618 252.134 23.828 A 2.473 2.473 0 0 1 252.14 24.01 A 1.562 1.562 0 0 1 252.117 24.286 Q 252.09 24.437 252.031 24.556 A 0.726 0.726 0 0 1 251.895 24.745 Q 251.65 24.99 251.09 25.095 A 6.7 6.7 0 0 1 250.648 25.143 A 7.342 7.342 0 0 1 250.583 25.148 A 8.064 8.064 0 0 1 250.11 25.165 A 8.863 8.863 0 0 1 250.04 25.165 A 5.996 5.996 0 0 1 248.554 24.991 A 4.101 4.101 0 0 1 246.418 23.695 Q 245.34 22.455 245.171 20.342 A 10.225 10.225 0 0 1 245.14 19.53 Z M 51.065 24.01 L 51.065 8.785 A 1.785 1.785 0 0 1 51.091 8.47 Q 51.122 8.297 51.19 8.161 A 0.83 0.83 0 0 1 51.345 7.945 Q 51.598 7.692 52.052 7.668 A 1.842 1.842 0 0 1 52.15 7.665 Q 52.547 7.665 52.794 7.849 A 0.806 0.806 0 0 1 52.903 7.945 Q 53.111 8.168 53.154 8.568 A 2.05 2.05 0 0 1 53.165 8.785 L 53.165 11.9 L 52.815 11.9 Q 53.445 9.835 55.073 8.715 A 6.485 6.485 0 0 1 57.747 7.666 A 8.465 8.465 0 0 1 58.975 7.56 A 1.418 1.418 0 0 1 59.085 7.555 Q 59.247 7.554 59.386 7.593 A 0.867 0.867 0 0 1 59.675 7.735 Q 59.939 7.933 59.954 8.349 A 1.412 1.412 0 0 1 59.955 8.4 Q 59.99 8.89 59.745 9.153 A 0.86 0.86 0 0 1 59.494 9.334 Q 59.376 9.392 59.227 9.431 A 2.23 2.23 0 0 1 58.94 9.485 L 58.45 9.52 A 8.039 8.039 0 0 0 56.809 9.845 Q 55.474 10.268 54.6 11.165 A 4.674 4.674 0 0 0 53.382 13.489 A 6.845 6.845 0 0 0 53.235 14.945 L 53.235 24.01 A 1.684 1.684 0 0 1 53.208 24.321 Q 53.175 24.497 53.102 24.634 A 0.846 0.846 0 0 1 52.973 24.815 Q 52.761 25.041 52.356 25.084 A 1.918 1.918 0 0 1 52.15 25.095 A 1.574 1.574 0 0 1 51.833 25.065 Q 51.643 25.026 51.498 24.936 A 0.845 0.845 0 0 1 51.345 24.815 Q 51.092 24.562 51.068 24.108 A 1.842 1.842 0 0 1 51.065 24.01 Z M 101.395 24.01 L 101.395 8.785 A 1.785 1.785 0 0 1 101.421 8.47 Q 101.452 8.297 101.52 8.161 A 0.83 0.83 0 0 1 101.675 7.945 Q 101.928 7.692 102.382 7.668 A 1.842 1.842 0 0 1 102.48 7.665 Q 102.877 7.665 103.124 7.849 A 0.806 0.806 0 0 1 103.233 7.945 Q 103.441 8.168 103.484 8.568 A 2.05 2.05 0 0 1 103.495 8.785 L 103.495 11.9 L 103.145 11.9 Q 103.775 9.835 105.403 8.715 A 6.485 6.485 0 0 1 108.077 7.666 A 8.465 8.465 0 0 1 109.305 7.56 A 1.418 1.418 0 0 1 109.415 7.555 Q 109.577 7.554 109.716 7.593 A 0.867 0.867 0 0 1 110.005 7.735 Q 110.269 7.933 110.284 8.349 A 1.412 1.412 0 0 1 110.285 8.4 Q 110.32 8.89 110.075 9.153 A 0.86 0.86 0 0 1 109.824 9.334 Q 109.706 9.392 109.557 9.431 A 2.23 2.23 0 0 1 109.27 9.485 L 108.78 9.52 A 8.039 8.039 0 0 0 107.139 9.845 Q 105.804 10.268 104.93 11.165 A 4.674 4.674 0 0 0 103.712 13.489 A 6.845 6.845 0 0 0 103.565 14.945 L 103.565 24.01 A 1.684 1.684 0 0 1 103.538 24.321 Q 103.505 24.497 103.432 24.634 A 0.846 0.846 0 0 1 103.303 24.815 Q 103.091 25.041 102.686 25.084 A 1.918 1.918 0 0 1 102.48 25.095 A 1.574 1.574 0 0 1 102.163 25.065 Q 101.973 25.026 101.828 24.936 A 0.845 0.845 0 0 1 101.675 24.815 Q 101.422 24.562 101.398 24.108 A 1.842 1.842 0 0 1 101.395 24.01 Z M 189 24.01 L 189 8.785 A 1.785 1.785 0 0 1 189.026 8.47 Q 189.057 8.297 189.125 8.161 A 0.83 0.83 0 0 1 189.28 7.945 Q 189.533 7.692 189.987 7.668 A 1.842 1.842 0 0 1 190.085 7.665 Q 190.482 7.665 190.729 7.849 A 0.806 0.806 0 0 1 190.838 7.945 Q 191.046 8.168 191.089 8.568 A 2.05 2.05 0 0 1 191.1 8.785 L 191.1 11.9 L 190.75 11.9 Q 191.38 9.835 193.008 8.715 A 6.485 6.485 0 0 1 195.682 7.666 A 8.465 8.465 0 0 1 196.91 7.56 A 1.418 1.418 0 0 1 197.02 7.555 Q 197.182 7.554 197.321 7.593 A 0.867 0.867 0 0 1 197.61 7.735 Q 197.874 7.933 197.889 8.349 A 1.412 1.412 0 0 1 197.89 8.4 Q 197.925 8.89 197.68 9.153 A 0.86 0.86 0 0 1 197.429 9.334 Q 197.311 9.392 197.162 9.431 A 2.23 2.23 0 0 1 196.875 9.485 L 196.385 9.52 A 8.039 8.039 0 0 0 194.744 9.845 Q 193.409 10.268 192.535 11.165 A 4.674 4.674 0 0 0 191.317 13.489 A 6.845 6.845 0 0 0 191.17 14.945 L 191.17 24.01 A 1.684 1.684 0 0 1 191.143 24.321 Q 191.11 24.497 191.037 24.634 A 0.846 0.846 0 0 1 190.908 24.815 Q 190.696 25.041 190.291 25.084 A 1.918 1.918 0 0 1 190.085 25.095 A 1.574 1.574 0 0 1 189.768 25.065 Q 189.578 25.026 189.433 24.936 A 0.845 0.845 0 0 1 189.28 24.815 Q 189.027 24.562 189.003 24.108 A 1.842 1.842 0 0 1 189 24.01 Z M 89.04 23.38 Q 90.755 23.38 92.033 22.558 A 5.074 5.074 0 0 0 93.637 20.879 A 6.51 6.51 0 0 0 94.01 20.16 Q 94.661 18.696 94.707 16.687 A 13.479 13.479 0 0 0 94.71 16.38 Q 94.71 14.038 93.946 12.443 A 5.611 5.611 0 0 0 93.17 11.235 A 5.035 5.035 0 0 0 89.516 9.431 A 6.972 6.972 0 0 0 89.04 9.415 Q 87.325 9.415 86.048 10.238 A 5.125 5.125 0 0 0 84.404 11.971 A 6.505 6.505 0 0 0 84.07 12.618 A 7.544 7.544 0 0 0 83.546 14.33 Q 83.403 15.096 83.376 15.971 A 13.328 13.328 0 0 0 83.37 16.38 Q 83.37 18.723 84.119 20.317 A 5.595 5.595 0 0 0 84.91 21.56 A 5.035 5.035 0 0 0 88.564 23.364 A 6.972 6.972 0 0 0 89.04 23.38 Z M 232.785 23.38 Q 234.5 23.38 235.778 22.558 A 5.074 5.074 0 0 0 237.382 20.879 A 6.51 6.51 0 0 0 237.755 20.16 Q 238.406 18.696 238.452 16.687 A 13.479 13.479 0 0 0 238.455 16.38 Q 238.455 14.038 237.691 12.443 A 5.611 5.611 0 0 0 236.915 11.235 A 5.035 5.035 0 0 0 233.261 9.431 A 6.972 6.972 0 0 0 232.785 9.415 Q 231.07 9.415 229.793 10.238 A 5.125 5.125 0 0 0 228.149 11.971 A 6.505 6.505 0 0 0 227.815 12.618 A 7.544 7.544 0 0 0 227.291 14.33 Q 227.148 15.096 227.121 15.971 A 13.328 13.328 0 0 0 227.115 16.38 Q 227.115 18.723 227.864 20.317 A 5.595 5.595 0 0 0 228.655 21.56 A 5.035 5.035 0 0 0 232.309 23.364 A 6.972 6.972 0 0 0 232.785 23.38 Z M 217.825 24.9 A 1.762 1.762 0 0 0 218.4 24.99 A 2.073 2.073 0 0 0 218.728 24.965 A 1.456 1.456 0 0 0 219.573 24.535 A 1.51 1.51 0 0 0 219.928 23.941 A 1.835 1.835 0 0 0 220.01 23.38 A 2.085 2.085 0 0 0 220.001 23.187 A 1.552 1.552 0 0 0 219.573 22.225 A 1.423 1.423 0 0 0 218.909 21.834 A 1.925 1.925 0 0 0 218.4 21.77 A 2.053 2.053 0 0 0 218.271 21.774 A 1.537 1.537 0 0 0 217.245 22.225 A 1.5 1.5 0 0 0 216.88 22.805 A 1.762 1.762 0 0 0 216.79 23.38 A 2.05 2.05 0 0 0 216.794 23.513 Q 216.834 24.119 217.238 24.528 A 1.65 1.65 0 0 0 217.245 24.535 A 1.5 1.5 0 0 0 217.825 24.9 Z" vector-effect="non-scaling-stroke"/></g></svg>