<svg width="165.075" height="18.075" viewBox="0 0 165.075 18.075" xmlns="http://www.w3.org/2000/svg"><g id="svgGroup" stroke-linecap="round" fill-rule="nonzero" font-size="9pt" stroke="#000" stroke-width="0" fill="#ffffff" style="stroke:#000;stroke-width:0;fill:#ffffff"><path d="M 65.05 10.425 L 62.45 9.9 A 10.721 10.721 0 0 1 61.036 9.503 Q 60.336 9.25 59.788 8.916 A 4.726 4.726 0 0 1 58.938 8.263 A 3.792 3.792 0 0 1 57.848 6.128 A 5.381 5.381 0 0 1 57.775 5.225 A 5.036 5.036 0 0 1 57.961 3.839 A 4.449 4.449 0 0 1 58.25 3.088 Q 58.725 2.125 59.575 1.438 A 5.846 5.846 0 0 1 60.961 0.613 A 7.146 7.146 0 0 1 61.6 0.375 Q 62.775 0 64.2 0 A 10.006 10.006 0 0 1 66.265 0.207 A 8.739 8.739 0 0 1 67.138 0.438 Q 68.5 0.875 69.6 1.75 Q 69.875 1.975 69.975 2.263 A 1.036 1.036 0 0 1 70.024 2.465 Q 70.032 2.525 70.032 2.583 A 0.832 0.832 0 0 1 70 2.813 A 0.968 0.968 0 0 1 69.844 3.132 A 0.909 0.909 0 0 1 69.738 3.25 Q 69.55 3.425 69.263 3.45 Q 68.975 3.475 68.625 3.25 A 7.306 7.306 0 0 0 67.297 2.451 A 6.298 6.298 0 0 0 66.55 2.163 A 7.313 7.313 0 0 0 65.08 1.869 A 9.144 9.144 0 0 0 64.175 1.825 A 7.375 7.375 0 0 0 63.103 1.899 Q 62.436 1.997 61.888 2.225 A 3.695 3.695 0 0 0 60.996 2.743 A 3.117 3.117 0 0 0 60.388 3.388 A 2.951 2.951 0 0 0 59.853 5.011 A 3.631 3.631 0 0 0 59.85 5.15 A 3.148 3.148 0 0 0 59.952 5.972 A 2.271 2.271 0 0 0 60.588 7.05 A 2.896 2.896 0 0 0 61.235 7.503 Q 61.879 7.843 62.863 8.048 A 10.325 10.325 0 0 0 63 8.075 L 65.6 8.625 A 13.497 13.497 0 0 1 67.042 9.003 Q 67.726 9.227 68.273 9.506 A 5.192 5.192 0 0 1 69.338 10.213 A 3.491 3.491 0 0 1 70.514 12.495 A 4.952 4.952 0 0 1 70.55 13.1 A 4.688 4.688 0 0 1 70.302 14.637 A 4.361 4.361 0 0 1 70.1 15.125 Q 69.65 16.05 68.8 16.713 Q 67.95 17.375 66.75 17.725 Q 65.55 18.075 64.05 18.075 Q 62.875 18.075 61.75 17.875 A 11.625 11.625 0 0 1 60.28 17.517 A 10.018 10.018 0 0 1 59.663 17.3 A 7.534 7.534 0 0 1 58.172 16.525 A 6.897 6.897 0 0 1 57.925 16.35 A 1.441 1.441 0 0 1 57.702 16.145 A 1.049 1.049 0 0 1 57.513 15.838 A 1.033 1.033 0 0 1 57.444 15.555 Q 57.44 15.511 57.44 15.468 A 0.964 0.964 0 0 1 57.463 15.263 A 1.055 1.055 0 0 1 57.596 14.927 A 0.97 0.97 0 0 1 57.713 14.775 Q 57.9 14.575 58.175 14.55 Q 58.409 14.529 58.68 14.671 A 1.604 1.604 0 0 1 58.775 14.725 Q 59.9 15.525 61.175 15.888 A 9.272 9.272 0 0 0 62.689 16.178 A 12.348 12.348 0 0 0 64.05 16.25 A 9.683 9.683 0 0 0 65.224 16.184 Q 66.526 16.024 67.295 15.481 A 2.798 2.798 0 0 0 67.388 15.413 A 2.785 2.785 0 0 0 68.177 14.492 Q 68.463 13.942 68.475 13.256 A 3.435 3.435 0 0 0 68.475 13.2 A 2.582 2.582 0 0 0 68.364 12.425 A 2.027 2.027 0 0 0 67.688 11.438 A 3.219 3.219 0 0 0 67.092 11.065 Q 66.461 10.752 65.493 10.522 A 13.781 13.781 0 0 0 65.05 10.425 Z M 116.975 12.2 L 108.275 12.2 L 108.275 10.875 L 116.5 10.875 L 116.1 11.2 Q 116.1 10.066 115.818 9.223 A 4.142 4.142 0 0 0 115.7 8.913 A 3.466 3.466 0 0 0 115.193 8.065 A 2.914 2.914 0 0 0 114.538 7.475 A 2.936 2.936 0 0 0 113.557 7.071 Q 113.168 6.984 112.719 6.976 A 5.181 5.181 0 0 0 112.625 6.975 A 4.606 4.606 0 0 0 111.601 7.084 A 3.416 3.416 0 0 0 110.463 7.563 A 3.605 3.605 0 0 0 109.168 9.091 A 4.342 4.342 0 0 0 109.125 9.188 A 5.298 5.298 0 0 0 108.761 10.462 A 7.189 7.189 0 0 0 108.675 11.6 L 108.675 11.75 Q 108.675 13.332 109.201 14.394 A 3.608 3.608 0 0 0 109.788 15.25 A 3.613 3.613 0 0 0 111.625 16.302 Q 112.229 16.45 112.95 16.45 Q 113.8 16.45 114.638 16.225 A 5.465 5.465 0 0 0 115.911 15.698 A 6.445 6.445 0 0 0 116.275 15.475 Q 116.607 15.262 116.882 15.262 A 0.701 0.701 0 0 1 116.913 15.263 Q 117.2 15.275 117.375 15.438 Q 117.55 15.6 117.613 15.838 Q 117.659 16.013 117.609 16.209 A 1.051 1.051 0 0 1 117.563 16.35 A 0.87 0.87 0 0 1 117.372 16.632 Q 117.27 16.736 117.125 16.825 Q 116.3 17.425 115.175 17.75 A 8.078 8.078 0 0 1 113.225 18.07 A 7.483 7.483 0 0 1 112.95 18.075 A 8.161 8.161 0 0 1 111.369 17.929 A 5.97 5.97 0 0 1 109.638 17.313 Q 108.25 16.55 107.488 15.15 Q 106.725 13.75 106.725 11.8 A 8.125 8.125 0 0 1 106.89 10.126 A 6.19 6.19 0 0 1 107.475 8.488 Q 108.225 7.075 109.538 6.275 Q 110.85 5.475 112.575 5.475 A 6.25 6.25 0 0 1 113.806 5.592 A 5.009 5.009 0 0 1 114.775 5.888 Q 115.75 6.3 116.438 7.075 A 5.046 5.046 0 0 1 117.286 8.421 A 6.13 6.13 0 0 1 117.488 8.95 A 7.095 7.095 0 0 1 117.789 10.344 A 9.248 9.248 0 0 1 117.85 11.425 A 1.126 1.126 0 0 1 117.83 11.644 Q 117.783 11.881 117.625 12.013 Q 117.447 12.161 117.143 12.192 A 1.664 1.664 0 0 1 116.975 12.2 Z M 139 10.8 L 140.125 10.8 L 140.125 12.125 L 139.025 12.125 A 35.545 35.545 0 0 0 137.844 12.144 Q 136.764 12.18 136.011 12.286 A 9.269 9.269 0 0 0 135.838 12.313 Q 134.828 12.476 134.346 12.836 A 1.365 1.365 0 0 0 134.213 12.95 A 1.462 1.462 0 0 0 133.821 13.638 Q 133.75 13.903 133.75 14.225 A 2.401 2.401 0 0 0 133.891 15.064 A 2.115 2.115 0 0 0 134.463 15.9 A 2.389 2.389 0 0 0 135.505 16.447 Q 135.874 16.541 136.309 16.549 A 4.511 4.511 0 0 0 136.4 16.55 A 3.573 3.573 0 0 0 137.396 16.416 A 3.037 3.037 0 0 0 138.163 16.075 Q 138.925 15.6 139.363 14.775 Q 139.8 13.95 139.8 12.875 L 139.8 10.025 A 6.072 6.072 0 0 0 139.752 9.232 Q 139.627 8.285 139.175 7.788 A 1.863 1.863 0 0 0 138.445 7.306 Q 137.905 7.1 137.125 7.1 Q 136.25 7.1 135.375 7.325 A 7.853 7.853 0 0 0 134.417 7.642 A 10.509 10.509 0 0 0 133.525 8.05 A 1.508 1.508 0 0 1 133.354 8.124 Q 133.118 8.207 132.935 8.165 A 0.524 0.524 0 0 1 132.925 8.163 Q 132.675 8.1 132.525 7.9 A 0.895 0.895 0 0 1 132.351 7.446 A 1.053 1.053 0 0 1 132.35 7.438 Q 132.328 7.21 132.429 6.992 A 1.048 1.048 0 0 1 132.463 6.925 A 0.904 0.904 0 0 1 132.728 6.629 A 1.214 1.214 0 0 1 132.9 6.525 A 10.441 10.441 0 0 1 134.333 5.933 A 8.904 8.904 0 0 1 135.075 5.725 Q 136.15 5.475 137.125 5.475 A 7.969 7.969 0 0 1 138.218 5.546 Q 139.08 5.665 139.725 5.988 Q 140.75 6.5 141.25 7.538 A 4.552 4.552 0 0 1 141.583 8.518 Q 141.687 8.982 141.727 9.523 A 9.385 9.385 0 0 1 141.75 10.2 L 141.75 16.975 A 1.692 1.692 0 0 1 141.724 17.279 Q 141.672 17.565 141.513 17.75 A 0.766 0.766 0 0 1 141.097 17.996 A 1.179 1.179 0 0 1 140.825 18.025 Q 140.441 18.025 140.204 17.845 A 0.766 0.766 0 0 1 140.1 17.75 A 0.901 0.901 0 0 1 139.905 17.395 Q 139.864 17.256 139.853 17.09 A 1.848 1.848 0 0 1 139.85 16.975 L 139.85 15.025 L 140.075 15.025 A 3.936 3.936 0 0 1 139.713 16.05 A 3.415 3.415 0 0 1 139.313 16.65 Q 138.75 17.325 137.925 17.7 A 4.19 4.19 0 0 1 136.636 18.046 A 5.179 5.179 0 0 1 136.075 18.075 A 5.509 5.509 0 0 1 134.821 17.938 A 4.545 4.545 0 0 1 133.838 17.588 A 4.12 4.12 0 0 1 132.719 16.792 A 3.789 3.789 0 0 1 132.275 16.25 Q 131.7 15.4 131.7 14.35 Q 131.7 13 132.388 12.225 A 2.694 2.694 0 0 1 133.078 11.679 Q 133.413 11.489 133.839 11.344 A 6.856 6.856 0 0 1 134.663 11.125 A 12.817 12.817 0 0 1 135.768 10.954 Q 136.921 10.822 138.479 10.803 A 43.738 43.738 0 0 1 139 10.8 Z M 163.325 8.525 L 163.05 8.525 L 163.05 1.075 A 1.523 1.523 0 0 1 163.077 0.779 Q 163.111 0.608 163.188 0.476 A 0.788 0.788 0 0 1 163.313 0.313 A 0.842 0.842 0 0 1 163.671 0.104 Q 163.804 0.064 163.965 0.054 A 1.758 1.758 0 0 1 164.075 0.05 A 1.379 1.379 0 0 1 164.373 0.081 Q 164.569 0.124 164.714 0.229 A 0.809 0.809 0 0 1 164.813 0.313 A 0.842 0.842 0 0 1 165.021 0.671 Q 165.062 0.804 165.072 0.965 A 1.758 1.758 0 0 1 165.075 1.075 L 165.075 16.975 A 1.609 1.609 0 0 1 165.048 17.279 Q 164.993 17.565 164.825 17.75 Q 164.575 18.025 164.075 18.025 A 1.316 1.316 0 0 1 163.774 17.993 Q 163.539 17.937 163.376 17.788 A 0.83 0.83 0 0 1 163.338 17.75 Q 163.098 17.5 163.077 17.062 A 1.794 1.794 0 0 1 163.075 16.975 L 163.075 14.6 L 163.35 14.95 Q 162.95 16.375 161.763 17.225 A 4.537 4.537 0 0 1 159.625 18.035 A 5.868 5.868 0 0 1 158.925 18.075 A 5.756 5.756 0 0 1 157.403 17.881 A 4.753 4.753 0 0 1 156.088 17.3 A 4.993 4.993 0 0 1 154.387 15.456 A 6.086 6.086 0 0 1 154.213 15.113 A 6.776 6.776 0 0 1 153.681 13.388 A 9.416 9.416 0 0 1 153.55 11.775 Q 153.55 9.825 154.213 8.413 Q 154.875 7 156.088 6.238 A 4.958 4.958 0 0 1 158.138 5.523 A 6.327 6.327 0 0 1 158.925 5.475 A 5.514 5.514 0 0 1 160.345 5.65 A 4.382 4.382 0 0 1 161.75 6.3 Q 162.925 7.125 163.325 8.525 Z M 159.35 16.45 Q 160.475 16.45 161.325 15.9 Q 162.175 15.35 162.638 14.3 Q 163.064 13.332 163.097 12.003 A 9.096 9.096 0 0 0 163.1 11.775 Q 163.1 9.5 162.088 8.3 A 3.315 3.315 0 0 0 159.719 7.115 A 4.643 4.643 0 0 0 159.35 7.1 A 4.135 4.135 0 0 0 158.341 7.218 A 3.272 3.272 0 0 0 157.363 7.638 A 3.316 3.316 0 0 0 156.326 8.711 A 4.283 4.283 0 0 0 156.063 9.213 A 4.956 4.956 0 0 0 155.734 10.273 Q 155.634 10.78 155.609 11.367 A 9.417 9.417 0 0 0 155.6 11.775 A 7.924 7.924 0 0 0 155.705 13.11 Q 155.827 13.823 156.091 14.392 A 3.725 3.725 0 0 0 156.625 15.238 Q 157.65 16.45 159.35 16.45 Z M 23.175 17.85 L 16.95 17.85 A 1.68 1.68 0 0 1 16.625 17.821 Q 16.308 17.758 16.113 17.563 A 0.92 0.92 0 0 1 15.885 17.173 Q 15.841 17.027 15.829 16.851 A 1.935 1.935 0 0 1 15.825 16.725 L 15.825 1.35 A 1.68 1.68 0 0 1 15.855 1.025 Q 15.917 0.708 16.113 0.513 A 0.92 0.92 0 0 1 16.502 0.285 Q 16.648 0.241 16.824 0.229 A 1.935 1.935 0 0 1 16.95 0.225 L 22.875 0.225 Q 24.408 0.225 25.545 0.605 A 5.571 5.571 0 0 1 25.963 0.763 Q 27.225 1.3 27.9 2.325 A 4.015 4.015 0 0 1 28.486 3.813 A 5.504 5.504 0 0 1 28.575 4.825 A 4.657 4.657 0 0 1 28.391 6.164 A 3.748 3.748 0 0 1 27.613 7.575 A 4.35 4.35 0 0 1 25.828 8.786 A 5.783 5.783 0 0 1 25 9.025 L 25 8.675 A 5.88 5.88 0 0 1 26.329 8.984 A 4.134 4.134 0 0 1 27.938 10.025 Q 29 11.15 29 13 Q 29 15.35 27.475 16.6 A 5.058 5.058 0 0 1 25.738 17.508 Q 25.009 17.732 24.133 17.81 A 10.913 10.913 0 0 1 23.175 17.85 Z M 17.825 9.75 L 17.825 16.2 L 22.975 16.2 Q 24.975 16.2 25.975 15.4 A 2.554 2.554 0 0 0 26.857 13.995 Q 26.975 13.534 26.975 12.975 A 4.303 4.303 0 0 0 26.88 12.039 Q 26.666 11.082 25.975 10.538 A 3.177 3.177 0 0 0 25.019 10.035 Q 24.572 9.884 24.023 9.813 A 8.2 8.2 0 0 0 22.975 9.75 L 17.825 9.75 Z M 17.825 1.875 L 17.825 8.1 L 22.575 8.1 A 7.618 7.618 0 0 0 23.676 8.026 Q 24.834 7.856 25.538 7.3 A 2.599 2.599 0 0 0 26.507 5.591 A 3.866 3.866 0 0 0 26.55 5 Q 26.55 3.45 25.538 2.663 Q 24.525 1.875 22.575 1.875 L 17.825 1.875 Z M 0 16.95 L 0 1.275 A 1.595 1.595 0 0 1 0.026 0.976 Q 0.058 0.808 0.13 0.678 A 0.777 0.777 0 0 1 0.275 0.488 Q 0.526 0.249 0.963 0.227 A 1.794 1.794 0 0 1 1.05 0.225 L 6.975 0.225 Q 9.8 0.225 11.325 1.613 A 4.524 4.524 0 0 1 12.701 4.058 A 6.834 6.834 0 0 1 12.85 5.525 Q 12.85 8.025 11.325 9.425 Q 9.8 10.825 6.975 10.825 L 2.05 10.825 L 2.05 16.95 Q 2.05 17.347 1.893 17.61 A 0.894 0.894 0 0 1 1.8 17.738 A 0.779 0.779 0 0 1 1.444 17.966 Q 1.315 18.008 1.158 18.02 A 1.73 1.73 0 0 1 1.025 18.025 A 1.387 1.387 0 0 1 0.722 17.994 Q 0.524 17.95 0.378 17.842 A 0.801 0.801 0 0 1 0.263 17.738 A 0.96 0.96 0 0 1 0.045 17.328 Q 0 17.157 0 16.95 Z M 2.05 1.925 L 2.05 9.1 L 6.725 9.1 Q 8.046 9.1 8.947 8.712 A 3.15 3.15 0 0 0 9.788 8.188 Q 10.799 7.298 10.824 5.613 A 5.798 5.798 0 0 0 10.825 5.525 A 4.832 4.832 0 0 0 10.716 4.465 Q 10.489 3.454 9.788 2.838 Q 8.75 1.925 6.725 1.925 L 2.05 1.925 Z M 40.125 18.075 Q 37.675 18.075 35.863 16.963 Q 34.05 15.85 33.063 13.825 A 9.463 9.463 0 0 1 32.264 11.31 A 13.139 13.139 0 0 1 32.075 9.025 Q 32.075 6.925 32.638 5.263 A 8.574 8.574 0 0 1 33.477 3.465 A 7.265 7.265 0 0 1 34.25 2.438 Q 35.3 1.275 36.788 0.638 A 7.873 7.873 0 0 1 39.004 0.062 A 9.832 9.832 0 0 1 40.125 0 A 9.525 9.525 0 0 1 42.284 0.234 A 7.307 7.307 0 0 1 44.438 1.1 A 7.285 7.285 0 0 1 47.175 4.088 A 8.714 8.714 0 0 1 47.238 4.213 Q 48.218 6.211 48.225 8.962 A 15.62 15.62 0 0 1 48.225 9 A 13.182 13.182 0 0 1 48.072 11.053 A 10.176 10.176 0 0 1 47.65 12.775 Q 47.075 14.45 46.025 15.625 Q 44.975 16.8 43.488 17.438 Q 42 18.075 40.125 18.075 Z M 40.125 16.25 Q 42.025 16.25 43.338 15.4 A 5.14 5.14 0 0 0 44.988 13.644 A 6.592 6.592 0 0 0 45.35 12.925 Q 46.05 11.3 46.05 9.025 A 12.267 12.267 0 0 0 45.886 6.954 Q 45.696 5.846 45.285 4.959 A 5.868 5.868 0 0 0 44.513 3.713 A 4.999 4.999 0 0 0 41.329 1.919 A 7.424 7.424 0 0 0 40.125 1.825 A 6.725 6.725 0 0 0 38.584 1.994 A 5.105 5.105 0 0 0 36.963 2.675 A 5.174 5.174 0 0 0 35.286 4.469 A 6.585 6.585 0 0 0 34.95 5.138 A 8.001 8.001 0 0 0 34.431 6.885 Q 34.284 7.685 34.256 8.598 A 14.186 14.186 0 0 0 34.25 9.025 Q 34.25 11.479 35.058 13.158 A 5.981 5.981 0 0 0 35.8 14.338 A 5.053 5.053 0 0 0 39.288 16.204 A 7.286 7.286 0 0 0 40.125 16.25 Z M 77.024 17.905 A 5.358 5.358 0 0 1 75.45 17.275 Q 74.125 16.475 73.413 15.038 A 6.748 6.748 0 0 1 72.8 13.06 A 8.889 8.889 0 0 1 72.7 11.7 Q 72.7 10.25 73.1 9.1 A 5.56 5.56 0 0 1 73.827 7.678 A 5.013 5.013 0 0 1 74.275 7.138 Q 75.05 6.325 76.138 5.9 Q 77.225 5.475 78.6 5.475 A 6.526 6.526 0 0 1 79.873 5.605 A 7.863 7.863 0 0 1 80.475 5.75 Q 81.45 6.025 82.25 6.7 A 0.951 0.951 0 0 1 82.43 6.861 A 0.725 0.725 0 0 1 82.575 7.125 A 0.872 0.872 0 0 1 82.611 7.326 Q 82.62 7.472 82.575 7.613 Q 82.5 7.85 82.325 8.013 Q 82.15 8.175 81.888 8.2 Q 81.625 8.225 81.35 8.025 A 4.574 4.574 0 0 0 80.652 7.579 A 3.63 3.63 0 0 0 80.025 7.325 Q 79.35 7.125 78.725 7.125 Q 77.75 7.125 77.025 7.438 Q 76.3 7.75 75.8 8.325 A 3.574 3.574 0 0 0 75.257 9.175 A 4.593 4.593 0 0 0 75.038 9.75 Q 74.775 10.6 74.775 11.725 A 7.466 7.466 0 0 0 74.896 13.113 Q 75.127 14.334 75.8 15.163 A 3.333 3.333 0 0 0 77.936 16.365 A 4.946 4.946 0 0 0 78.725 16.425 Q 79.35 16.425 80.013 16.225 Q 80.675 16.025 81.35 15.525 A 1.129 1.129 0 0 1 81.516 15.424 Q 81.701 15.333 81.875 15.35 A 0.737 0.737 0 0 1 82.158 15.435 A 0.703 0.703 0 0 1 82.3 15.538 A 0.808 0.808 0 0 1 82.525 15.904 A 0.988 0.988 0 0 1 82.538 15.95 Q 82.566 16.064 82.566 16.175 A 0.868 0.868 0 0 1 82.525 16.438 A 0.714 0.714 0 0 1 82.363 16.71 A 1.018 1.018 0 0 1 82.2 16.85 Q 81.4 17.5 80.45 17.788 Q 79.5 18.075 78.6 18.075 A 6.984 6.984 0 0 1 77.024 17.905 Z M 124.349 17.905 A 5.358 5.358 0 0 1 122.775 17.275 Q 121.45 16.475 120.738 15.038 A 6.748 6.748 0 0 1 120.125 13.06 A 8.889 8.889 0 0 1 120.025 11.7 Q 120.025 10.25 120.425 9.1 A 5.56 5.56 0 0 1 121.152 7.678 A 5.013 5.013 0 0 1 121.6 7.138 Q 122.375 6.325 123.463 5.9 Q 124.55 5.475 125.925 5.475 A 6.526 6.526 0 0 1 127.198 5.605 A 7.863 7.863 0 0 1 127.8 5.75 Q 128.775 6.025 129.575 6.7 A 0.951 0.951 0 0 1 129.755 6.861 A 0.725 0.725 0 0 1 129.9 7.125 A 0.872 0.872 0 0 1 129.936 7.326 Q 129.945 7.472 129.9 7.613 Q 129.825 7.85 129.65 8.013 Q 129.475 8.175 129.213 8.2 Q 128.95 8.225 128.675 8.025 A 4.574 4.574 0 0 0 127.977 7.579 A 3.63 3.63 0 0 0 127.35 7.325 Q 126.675 7.125 126.05 7.125 Q 125.075 7.125 124.35 7.438 Q 123.625 7.75 123.125 8.325 A 3.574 3.574 0 0 0 122.582 9.175 A 4.593 4.593 0 0 0 122.363 9.75 Q 122.1 10.6 122.1 11.725 A 7.466 7.466 0 0 0 122.221 13.113 Q 122.452 14.334 123.125 15.163 A 3.333 3.333 0 0 0 125.261 16.365 A 4.946 4.946 0 0 0 126.05 16.425 Q 126.675 16.425 127.338 16.225 Q 128 16.025 128.675 15.525 A 1.129 1.129 0 0 1 128.841 15.424 Q 129.026 15.333 129.2 15.35 A 0.737 0.737 0 0 1 129.483 15.435 A 0.703 0.703 0 0 1 129.625 15.538 A 0.808 0.808 0 0 1 129.85 15.904 A 0.988 0.988 0 0 1 129.863 15.95 Q 129.891 16.064 129.891 16.175 A 0.868 0.868 0 0 1 129.85 16.438 A 0.714 0.714 0 0 1 129.688 16.71 A 1.018 1.018 0 0 1 129.525 16.85 Q 128.725 17.5 127.775 17.788 Q 126.825 18.075 125.925 18.075 A 6.984 6.984 0 0 1 124.349 17.905 Z M 98.675 16.975 L 98.675 6.55 A 1.605 1.605 0 0 1 98.699 6.261 Q 98.73 6.096 98.797 5.967 A 0.789 0.789 0 0 1 98.925 5.788 A 0.803 0.803 0 0 1 99.295 5.57 Q 99.453 5.525 99.65 5.525 A 1.379 1.379 0 0 1 99.948 5.556 Q 100.144 5.599 100.289 5.704 A 0.809 0.809 0 0 1 100.388 5.788 A 0.842 0.842 0 0 1 100.596 6.146 Q 100.637 6.279 100.647 6.44 A 1.758 1.758 0 0 1 100.65 6.55 L 100.65 8.575 L 100.4 8.575 A 4.433 4.433 0 0 1 100.934 7.341 A 3.727 3.727 0 0 1 101.925 6.3 Q 103.05 5.5 104.7 5.45 A 1.302 1.302 0 0 1 104.781 5.447 Q 105.1 5.446 105.3 5.613 Q 105.47 5.755 105.526 6.047 A 1.545 1.545 0 0 1 105.55 6.25 A 1.418 1.418 0 0 1 105.553 6.333 Q 105.553 6.474 105.523 6.593 A 0.761 0.761 0 0 1 105.35 6.925 A 0.802 0.802 0 0 1 105.074 7.12 Q 104.895 7.199 104.65 7.225 L 104.25 7.275 A 5.53 5.53 0 0 0 103.174 7.471 Q 102.529 7.661 102.045 8.011 A 3.104 3.104 0 0 0 101.638 8.363 A 3.112 3.112 0 0 0 100.843 9.846 Q 100.725 10.341 100.725 10.925 L 100.725 16.975 A 1.535 1.535 0 0 1 100.697 17.279 Q 100.639 17.565 100.463 17.75 A 0.842 0.842 0 0 1 100.08 17.976 Q 99.944 18.016 99.781 18.023 A 1.715 1.715 0 0 1 99.7 18.025 Q 99.321 18.025 99.079 17.868 A 0.791 0.791 0 0 1 98.938 17.75 Q 98.698 17.5 98.677 17.062 A 1.794 1.794 0 0 1 98.675 16.975 Z M 145.5 16.975 L 145.5 6.55 A 1.605 1.605 0 0 1 145.524 6.261 Q 145.555 6.096 145.622 5.967 A 0.789 0.789 0 0 1 145.75 5.788 A 0.803 0.803 0 0 1 146.12 5.57 Q 146.278 5.525 146.475 5.525 A 1.379 1.379 0 0 1 146.773 5.556 Q 146.969 5.599 147.114 5.704 A 0.809 0.809 0 0 1 147.213 5.788 A 0.842 0.842 0 0 1 147.421 6.146 Q 147.462 6.279 147.472 6.44 A 1.758 1.758 0 0 1 147.475 6.55 L 147.475 8.575 L 147.225 8.575 A 4.433 4.433 0 0 1 147.759 7.341 A 3.727 3.727 0 0 1 148.75 6.3 Q 149.875 5.5 151.525 5.45 A 1.302 1.302 0 0 1 151.606 5.447 Q 151.925 5.446 152.125 5.613 Q 152.295 5.755 152.351 6.047 A 1.545 1.545 0 0 1 152.375 6.25 A 1.418 1.418 0 0 1 152.378 6.333 Q 152.378 6.474 152.348 6.593 A 0.761 0.761 0 0 1 152.175 6.925 A 0.802 0.802 0 0 1 151.899 7.12 Q 151.72 7.199 151.475 7.225 L 151.075 7.275 A 5.53 5.53 0 0 0 149.999 7.471 Q 149.354 7.661 148.87 8.011 A 3.104 3.104 0 0 0 148.463 8.363 A 3.112 3.112 0 0 0 147.668 9.846 Q 147.55 10.341 147.55 10.925 L 147.55 16.975 A 1.535 1.535 0 0 1 147.522 17.279 Q 147.464 17.565 147.288 17.75 A 0.842 0.842 0 0 1 146.905 17.976 Q 146.769 18.016 146.606 18.023 A 1.715 1.715 0 0 1 146.525 18.025 Q 146.146 18.025 145.904 17.868 A 0.791 0.791 0 0 1 145.763 17.75 Q 145.523 17.5 145.502 17.062 A 1.794 1.794 0 0 1 145.5 16.975 Z M 88.265 17.905 A 5.295 5.295 0 0 1 86.75 17.3 Q 85.45 16.525 84.738 15.113 A 6.473 6.473 0 0 1 84.152 13.308 A 8.847 8.847 0 0 1 84.025 11.775 A 9.047 9.047 0 0 1 84.135 10.336 A 7.044 7.044 0 0 1 84.425 9.163 A 5.677 5.677 0 0 1 85.147 7.731 A 5.102 5.102 0 0 1 85.6 7.175 Q 86.375 6.35 87.438 5.913 A 5.774 5.774 0 0 1 88.945 5.527 A 7.276 7.276 0 0 1 89.825 5.475 A 6.832 6.832 0 0 1 91.385 5.645 A 5.295 5.295 0 0 1 92.9 6.25 Q 94.2 7.025 94.913 8.438 A 6.473 6.473 0 0 1 95.498 10.242 A 8.847 8.847 0 0 1 95.625 11.775 Q 95.625 13.225 95.225 14.375 A 5.708 5.708 0 0 1 94.371 15.981 A 5.323 5.323 0 0 1 94.05 16.363 Q 93.275 17.2 92.213 17.638 A 5.774 5.774 0 0 1 90.705 18.023 A 7.276 7.276 0 0 1 89.825 18.075 A 6.832 6.832 0 0 1 88.265 17.905 Z M 89.825 16.45 Q 90.95 16.45 91.8 15.9 Q 92.65 15.35 93.113 14.3 Q 93.539 13.332 93.572 12.003 A 9.096 9.096 0 0 0 93.575 11.775 Q 93.575 9.5 92.563 8.3 A 3.315 3.315 0 0 0 90.194 7.115 A 4.643 4.643 0 0 0 89.825 7.1 A 4.135 4.135 0 0 0 88.816 7.218 A 3.272 3.272 0 0 0 87.838 7.638 A 3.316 3.316 0 0 0 86.801 8.711 A 4.283 4.283 0 0 0 86.538 9.213 A 4.956 4.956 0 0 0 86.209 10.273 Q 86.109 10.78 86.084 11.367 A 9.417 9.417 0 0 0 86.075 11.775 A 7.924 7.924 0 0 0 86.18 13.11 Q 86.302 13.823 86.566 14.392 A 3.725 3.725 0 0 0 87.1 15.238 Q 88.125 16.45 89.825 16.45 Z" vector-effect="non-scaling-stroke"/></g></svg>