<?xml version="1.0" encoding="UTF-8"?>
<svg width="40pt" height="40pt" version="1.1" viewBox="5 0 80 100" xmlns="http://www.w3.org/2000/svg">
 <g>
  <path d="m77.926 77.426-8.8633-18.012 9.125-4.4062-1.3594-2.8125-10.543 5.0938h0.003906c-0.375 0.17969-0.66406 0.50391-0.80078 0.89453-0.13672 0.39453-0.10938 0.82812 0.074219 1.1992l0.53906 1.0938c-3.5586-0.054687-7.0664-0.87109-10.281-2.3945-4.1484-1.8398-8.9531-1.3945-12.688 1.1836-1.7266 1.1953-3.25 2.668-4.5078 4.3516-1.1406-0.34766-2.2344-0.84375-3.2539-1.4727l0.21094-0.36719 0.003907-0.003906c0.20703-0.35938 0.26172-0.78516 0.15234-1.1875-0.10938-0.40234-0.37109-0.74219-0.73047-0.94922l-9.8789-5.6406-1.5508 2.7109 8.5156 4.8594-10.043 17.387-8.5273-4.8672-1.5508 2.7109 9.8789 5.6406c0.23828 0.13672 0.50781 0.21094 0.78125 0.20703 0.55859 0 1.0781-0.29688 1.3555-0.78125l0.19141-0.33594 2.1953 1.6172v0.003907c-0.85156 1.293-0.92578 2.9492-0.19141 4.3125 0.73047 1.3672 2.1523 2.2188 3.6992 2.2266 0.12109 0 0.24219-0.023438 0.36719-0.03125 0.5 1.8086 2.1484 3.0547 4.0273 3.0508 0.49609-0.011719 0.99219-0.10938 1.457-0.28906 0.71875 1.3672 2.1367 2.2188 3.6797 2.2109 0.12109 0 0.24219-0.023437 0.36328-0.035156 0.5 1.8086 2.1484 3.0586 4.0234 3.0547 0.26172 0 0.52344-0.023438 0.78125-0.070313 1.1055-0.20312 2.082-0.83594 2.7148-1.7578l0.039063-0.058593 3.4375 2.0742c0.65625 0.39453 1.4062 0.60156 2.1719 0.60156 1.4883 0 2.8672-0.77734 3.6367-2.0469 0.22656-0.39453 0.39062-0.82031 0.48047-1.2656 1.0938 0.26562 2.2461 0.078125 3.1914-0.52344 0.94922-0.60156 1.6133-1.5625 1.8398-2.6641 0.29688 0.074219 0.60547 0.11719 0.91406 0.125 1.9023 0.027344 3.5781-1.2461 4.0625-3.0859 1.9961 1.1641 4.5547 0.50391 5.7422-1.4766 0.39062-0.65625 0.59766-1.4062 0.60156-2.168 0-1.168-0.48828-2.2773-1.3438-3.0664 0.82813-1.2969 1.8711-2.4375 3.0898-3.375l0.64062 1.3008c0.37891 0.77344 1.3086 1.0938 2.082 0.71875l10.539-5.0938-1.3594-2.8125zm-45.609 6.4609-1.5156 2.207c-0.34375 0.5-1.0312 0.62891-1.5312 0.28125-0.5-0.34375-0.62891-1.0312-0.28125-1.5312l1.5117-2.1875c0.16406-0.24219 0.41797-0.40625 0.70703-0.45312 0.066407-0.015625 0.13672-0.023437 0.20703-0.023437 0.21875 0 0.43359 0.066406 0.61328 0.19141 0.49219 0.34375 0.61719 1.0156 0.28906 1.5156zm5.1406 1.9297-2.2656 3.2891c-0.34766 0.5-1.0312 0.625-1.5312 0.28125-0.50391-0.34375-0.62891-1.0312-0.28516-1.5312l2.2656-3.293c0.21094-0.29688 0.55078-0.47266 0.91406-0.46875 0.22266 0 0.4375 0.066406 0.61719 0.1875 0.49609 0.35156 0.61719 1.0312 0.28125 1.5352zm4.3867 3.0195-1.5078 2.1875h-0.003907c-0.34766 0.49219-1.0273 0.61719-1.5312 0.28125-0.49609-0.34766-0.62109-1.0312-0.28125-1.5312l1.5078-2.1875h0.003906c0.20703-0.29688 0.55078-0.47266 0.91406-0.46875 0.21875 0 0.43359 0.066406 0.61719 0.1875 0.48828 0.35156 0.61328 1.0273 0.28125 1.5312zm3.625 4.1133-0.75391 1.0938c-0.34375 0.5-1.0312 0.62891-1.5312 0.28125-0.5-0.34375-0.625-1.0312-0.28125-1.5312l0.75391-1.0938c0.34766-0.49609 1.0312-0.62109 1.5312-0.27734s0.625 1.0273 0.28125 1.5273zm24.66-7.0469c-0.15234 0.25-0.39453 0.42969-0.67578 0.5-0.28906 0.066406-0.58984 0.023437-0.84375-0.12891l-7.9844-4.8086-1.6094 2.6797 4.5742 2.75c0.38281 0.22656 0.59375 0.66797 0.52344 1.1094-0.070312 0.44141-0.39844 0.79688-0.83594 0.89844-0.28516 0.070312-0.58594 0.023437-0.83594-0.125l-5.7031-3.4375-1.6094 2.6758 3.4219 2.0625h-0.003906c0.39062 0.22266 0.60156 0.66406 0.53516 1.1055-0.066406 0.44531-0.39844 0.80469-0.83594 0.90625-0.28125 0.066406-0.58203 0.023437-0.83203-0.125l-5.6953-3.4375-1.6094 2.6719 3.4375 2.0703-0.003906-0.003906c0.32422 0.20312 0.52344 0.55469 0.52734 0.9375 0 0.19922-0.054687 0.39062-0.15625 0.5625-0.14844 0.25-0.39453 0.42969-0.67969 0.5s-0.58594 0.027344-0.83594-0.125l-3.6523-2.2031c0.25781-1.5977-0.42969-3.1992-1.7695-4.1094-0.53906-0.36719-1.1602-0.60156-1.8125-0.68359-0.007812-1.375-0.6875-2.6562-1.8203-3.4375-0.80469-0.55078-1.7734-0.80078-2.7422-0.70703-0.58203-2.0938-2.6758-3.3906-4.8086-2.9844-0.23438 0.046875-0.46875 0.11328-0.69141 0.19922-0.66406-1.2305-1.8984-2.043-3.2891-2.1758-1.3906-0.12891-2.7578 0.44531-3.6367 1.5273l-2.418-1.7812 8.0469-13.941c0.96094 0.58594 1.9766 1.0781 3.0352 1.4688-1.2422 1.9492-2.0586 4.1367-2.3906 6.4219 0.066406 1.5312 1.1875 2.8047 2.6992 3.0625 3.0195 0.78125 7.4258-0.79688 10.539-5.25l22.062 13.836c0.33594 0.19531 0.54688 0.55859 0.54688 0.94922-0.003906 0.20312-0.058594 0.39844-0.16406 0.57031zm-0.65625-5.3789-9.3477-5.8633v0.003906c1.3516-0.83594 2.4961-1.9648 3.3516-3.3008l-2.6953-1.5508c-0.92188 1.3164-2.207 2.3359-3.6992 2.9336l-9.0469-5.6719v-0.003907c-0.36328-0.22266-0.80078-0.29297-1.2148-0.1875-0.41016 0.10547-0.76172 0.375-0.97266 0.74219-2.5117 4.4453-5.7422 5.1133-6.6719 5.2109-0.53516 0.097656-1.0898 0.027343-1.5859-0.20703 1.1719-4.3516 3.7852-8.1758 7.4102-10.855 2.8555-1.9258 6.5117-2.2305 9.6445-0.80078 5.4336 2.207 9.7656 3.0352 12.922 2.4766l6.2031 12.602 0.003907 0.003907c-1.707 1.1953-3.168 2.7148-4.293 4.4688z"/>
  <path d="m78.645 71.785 2.6641-1.3086 1.3789 2.8047-2.6641 1.3086z"/>
  <path d="m28.125 21.875h4.6875v3.125h-4.6875z"/>
  <path d="m67.188 21.875h4.6875v3.125h-4.6875z"/>
  <path d="m48.438 1.5625h3.125v4.6875h-3.125z"/>
  <path d="m33.426 9.0742 2.2109-2.2109 3.3164 3.3164-2.2109 2.2109z"/>
  <path d="m61.051 36.695 2.2109-2.2109 3.3164 3.3164-2.2109 2.2109z"/>
  <path d="m33.426 37.801 3.3164-3.3164 2.2109 2.2109-3.3164 3.3164z"/>
  <path d="m61.051 10.18 3.3164-3.3164 2.2109 2.2109-3.3164 3.3164z"/>
  <path d="m35.938 23.438c-0.019531 5.0273 2.668 9.6719 7.0312 12.164v5.8047c0 3.8828 3.1484 7.0312 7.0312 7.0312s7.0312-3.1484 7.0312-7.0312v-5.8047c4.3516-2.5117 7.0312-7.1562 7.0312-12.18 0-5.0273-2.6836-9.668-7.0352-12.18-4.3555-2.5117-9.7148-2.5078-14.066 0.007812-4.3516 2.5156-7.0273 7.1641-7.0234 12.188zm14.062 21.875c-1.5508-0.003906-2.9531-0.92188-3.5742-2.3438h7.1484c-0.62109 1.4219-2.0234 2.3398-3.5742 2.3438zm3.9062-5.4688h-7.8125v-2.3438h7.8125zm-3.9062-27.344c5.0859 0.011719 9.4922 3.5273 10.633 8.4805 1.1406 4.957-1.2812 10.043-5.8477 12.281-0.4375 0.21875-0.75 0.63281-0.83984 1.1133h-7.8906c-0.089844-0.48047-0.40234-0.89453-0.83984-1.1133-4.5664-2.2383-6.9883-7.3242-5.8477-12.281 1.1406-4.9531 5.5469-8.4688 10.633-8.4805z"/>
 </g>
</svg>
